<?xml version="1.0" encoding="utf-8"?>
<!-- Generator: Adobe Illustrator 26.3.1, SVG Export Plug-In . SVG Version: 6.00 Build 0)  -->
<svg version="1.1" id="Capa_1" xmlns="http://www.w3.org/2000/svg" xmlns:xlink="http://www.w3.org/1999/xlink" x="0px" y="0px"
	 viewBox="0 0 1405 601" style="enable-background:new 0 0 1405 601;" xml:space="preserve">
<style type="text/css">
	.st0{fill:#F5D222;}
	.st1{fill:#F5D323;}
	.st2{fill:#F2D12A;}
	.st3{fill:#F9FBFB;}
	.st4{fill:#788797;}
	.st5{fill:#C2CCD6;}
	.st6{fill:#7B8998;}
	.st7{fill:#979692;}
	.st8{fill:#687689;}
	.st9{fill:#F0D436;}
	.st10{fill:#EDD74B;}
	.st11{fill:#F4F5EA;}
	.st12{fill:#F3ECCB;}
	.st13{fill:#5E6F85;}
	.st14{fill:none;}
</style>
<symbol  id="lemax" viewBox="-300.2 -122.4 600.4 244.7">
	<g>
		<path class="st0" d="M177.5-76.2c-3.4-0.9-4.8,1.1-5.3,3.9c-0.8,4.4-1.2,8.9-1.8,13.4c-0.8,5.7-0.8,5.7-6.2,5.7
			c-6.2,0-12.5-0.1-18.7,0.1c-2.7,0.1-3.8-0.9-4.1-3.5c-0.5-4.1-1.4-8.1-2-12.2c-1.1-8.5-1.4-6.6-8.4-6.9c-4.8-0.2-9.7,0.8-14.4-0.6
			c-0.5,0-1,0-1.5,0c-4.5,0-5.3,0.9-4.3,5.4c1.2,5.9,2.5,11.7,3.8,17.5c3.6,16,7.1,31.9,10.4,48c3.1,15.2,6.7,30.2,10,45.4
			c1.4,6.6,3,13.1,4.2,19.7c0.6,3.2,1.9,4.8,5.3,4.8c7.1-0.1,14.2-0.2,21.4,0c4.4,0.2,6.8-1.3,7.1-5.8
			c9.2-43.1,18.5-86.2,27.8-129.4c1-4.7,0.9-4.8-3.9-4.9C190.4-75.9,183.9-75.1,177.5-76.2z M152.6-31.4c3.2,0,6.5,0,9.7-0.2
			c2.8-0.2,3.4,0.8,2.9,3.5C163-16.5,161-4.9,159,6.7c-1,5.8-1.6,11.6-3.5,17.2c-0.7-1.1-1.1-2.1-1.3-3.2c-2.6-15.3-5.1-30.7-7.6-46
			C145.6-31.7,145.8-31.7,152.6-31.4z"/>
		<path class="st0" d="M269.8-76.1c-3.2-1-3.8,1.5-4.5,3.5c-3.1,8.7-6.2,17.5-9.3,26.2c-1.1,3.8-2.2,7.5-4,11.2
			c-1.4-1.2-1.6-2.6-2-3.9c-3.4-9.4-6.5-18.8-10.1-28.1c-3.9-10.2-0.9-8.2-12.1-8.6c-4.1-0.1-8.2,0.9-12.2-0.7c-1,0-2,0.1-3,0.1
			c-3.9,0.2-4.4,1.2-2.9,4.8c5.8,14,11.4,28,17.1,42c2.7,6.7,5.4,13.4,8.4,20c1,2.3,1.3,4.3,0.4,6.6c-6,14.4-11.9,28.9-17.9,43.3
			c-2.9,6.9-5.8,13.8-8.6,20.7c-0.7,1.7-0.4,2.9,1.8,3c8,0.5,16,0.3,23.9,0.1c3.6-0.1,2.8-3.9,4.5-5.7c4-11.7,8-23.4,12.2-35.9
			c1.8,2.9,2.6,4.9,2.2,7.3c1.1,0.8,1.4,2,1.8,3.2c3.2,9.2,6.5,18.3,9.4,27.5c0.9,2.7,2.4,3.7,4.8,3.7c7.1,0.1,14.2,0.1,21.3,0.1
			c4.8,0,2.4-3.4,2.6-5.6c-1-0.5-1.2-1.5-1.6-2.4c-8-19.5-15.9-39-24-58.5c-1.1-2.7-1-4.8,0.1-7.4c8.4-20.4,16.7-40.9,25.1-61.3
			c1.7-4.2,1.3-4.7-3.1-4.8C283.3-75.9,276.5-75.3,269.8-76.1z"/>
		<path class="st0" d="M-209-76.4c-5.8,0.1-5.9,0.2-5.9,5.9c0,43.2,0,86.4,0,129.5c0,5.2,0,5.2,5.2,5.2c20.7,0,41.4,0,62.1,0
			c5.8,0,5.9-0.1,6.2-5.7c0-4.1-0.1-8.2-0.1-12.3c0-6.3,0-6.3-6.1-6.3c-11.9,0-23.7-0.1-35.6,0c-2.6,0-3.5-0.7-3.4-3.4
			c0.1-8.2,0.1-16.5,0.1-24.7c0-6,0-6,6-5.5c5.3-0.1,10.6-0.1,15.9-0.1c5.1,0,5.1,0,5.4-5c-0.1-5-0.2-10-0.1-15
			c0.1-3.1-1-4.2-4.1-4.2c-6.5,0.1-13-0.1-19.5,0.1c-2.7,0.1-3.7-0.6-3.7-3.5c0.2-9,0.1-18,0-27c0-2.6,0.8-3.7,3.4-3.3
			c0.9,0.1,1.7,0.1,2.6,0.1c11.2,0,22.3-0.1,33.5-0.1c5.4,0,5.4,0,5.8-5.2c0-4.5-0.1-9-0.1-13.5c0-5.1-0.3-5.4-5.3-5.4
			c-19.4,0-38.7,0-58,0C-206.1-75.8-207.7-75.2-209-76.4z"/>
		<path class="st1" d="M-294.9-76.2c-4.6-0.4-5.2,0.2-5.2,4.7c0,43.8,0.1,87.6-0.1,131.4c0,3.6,1.4,4.2,4.3,4.2
			c6.4-0.1,12.7-0.2,19.1,0.1c3.7,0.2,5.4-1.1,5.1-4.9c0-36-0.1-72-0.1-108.1c0-2.3,0.8-3.2,3-2.9c1,0.1,2,0.1,3,0.1l0.4-0.1
			l0.4,0.1c11,0,22.1-0.1,33.1-0.1c5.3,0,5.4-0.1,5.9-5.2c-1.1-4.6-0.3-9.2-0.4-13.8c-0.2-4.9-0.2-5.1-5.1-5.1
			c-19.7,0-39.5,0-59.2,0C-292.2-75.8-293.6-75.4-294.9-76.2z"/>
		<path class="st2" d="M82.2,54.2c-1,2.3-1.5,4.8-1.5,7.3c1.4,1.6,0.1,3.1-0.3,4.5c-0.6,2.1-1.2,4.2-0.1,6.1
			c1.2,2.2,0.9,4.2-0.3,6.2c-0.5,0.8-1.9,2.3,0.6,2.7c4.2-5.3,7.9-11,11.3-16.8c0.8-1.4,1.6-2.8,3.6-2.5c0.3-0.3,0.6-0.7,0.9-1
			c0.4-1,0.9-2,1.3-3c-0.4-2.8-3.4-5.5-0.1-8.3c1.9-6.4,3.7-12.9,4.8-19.5c0.2-0.3,0.3-0.6,0.5-0.9c0.3-2.2,0.7-4.4,1-6.6
			c-0.1-1.3-0.3-2.6,0.5-3.8c0.1-0.7,0.1-1.5,0.1-2.2c-0.1-2.5-0.3-5.1,0.6-7.5c0-4,0.1-8,0.1-12l0,0c-1-1.9-0.7-4-0.6-6.1
			c0-0.5-0.1-1-0.1-1.5c-0.7-0.7-0.7-1.4-0.4-2.3c-0.1-1-0.2-2-0.3-3c-0.5-0.4-0.6-1-0.4-1.6c-0.1-0.7-0.2-1.4-0.3-2.1
			c-0.2-0.3-0.3-0.5-0.5-0.8c-2.6-12.1-8.1-22.9-14.1-33.6c-0.8-1.3-0.9-3.2-2.6-4c-0.6,0.3-1.1,0.6-1.7,0.8c-0.3,2.2,1.2,4,1.9,5.9
			c2.9,6.9,4.7,14,6.4,21.2c0.6,0.3,0.7,0.8,0.4,1.4c0.1,0.5,0.1,1,0.2,1.5c0,0.3,0.1,0.5,0.1,0.8c0.4,4.2,0.3,8.5,0,12.7
			c0.2,1.5,0.3,3-0.2,4.5c-0.1,0.8-0.1,1.6-0.1,2.3c0,0.5,0.1,0.6,0.1,0.7c-0.1,0.2-0.2,0.4-0.3,0.6c-1.6,2.7-0.3,5.9-1.2,9.3
			c-2.5-3-2.1-6.3-2.6-9.2c-2.5-15.9-7.6-30.8-14.1-45.3C70.1-61.5,64.4-71.5,58-81.1c-0.5-0.7-1.1-1.3-1.7-2c-1,0-1.3,0.7-1.3,1.5
			c1.2,3.7,2.5,7.5,3.8,11.2c1.2,1.7,1.8,3.5,1.3,5.9c-1.6-1-2.3-2.3-3.1-3.5c-4.5-5.1-8.8-10.3-13.4-15.4c-2.2-2.4-4.7-4.4-7-6.6
			c-0.8-0.7-1.5-0.8-2.3-0.2c-1,0.8-0.5,1.5,0,2.2c3.5,5.5,7.2,11,10.4,16.7c11.4,20,22.5,40,30.3,61.7c1.4,3.8,3,7.7,3.3,11.9
			c0.3,0.2,0.5,0.5,0.7,0.8l0,0c0.7,0.3,0.7,0.9,0.6,1.5c0.1,0.5,0.2,0.9,0.2,1.4c0.5,0.4,0.7,1,0.5,1.6c0.1,0.5,0.1,1,0.2,1.5
			c0.7,1.9,1.7,3.9,0.8,6c0,0.7,0,1.5,0,2.2c2.5,1.5,1.2,4,1.4,6c0.1,0.9,0.1,1.9,0.2,2.8c1,1.7,0.7,3.6,0.4,5.4c0,1,0,2,0,3
			c0,0.3,0,0.5,0,0.8c0,0.7,0,1.5,0,2.2c0.3,4,0.5,8-0.5,12c-0.1,0.7-0.1,1.5-0.2,2.2C82.9,52.7,82.8,53.5,82.2,54.2z"/>
		<path class="st2" d="M-76.7-72.6c-2.4,2.9-4.2,6.1-5.5,9.7c0.1,1,0,2-1.3,2.2c-8.1,15.1-13.9,31-17.8,47.7c-0.3,1.3-0.3,2.7-0.4,4
			c-0.1,0.3-0.1,0.5-0.2,0.8c-0.1,0.5-0.1,1-0.1,1.5c-0.1,0.3-0.2,0.7-0.3,1c-0.5,3.7-1,7.4-1.6,11.1c-0.1,0.8,0.1,2.2-0.6,2.2
			c-1.3-0.1-0.8-1.4-0.6-2.4c-0.1-1.2-0.1-2.4-0.2-3.6c-0.8-3-1.1-6-0.8-9c0-0.5-0.1-1-0.1-1.5c-1.1-7.8-1.4-15.6,0.7-23.3
			c1.1-8.4,4.6-16,7.7-23.7c0.2-0.5,0.4-1.1,0.6-1.7c-0.7-2.3-1.5,0.7-2.2,0c-6.4,9.6-11.2,20-15.1,30.9c-0.4,1.2-0.6,2.4-0.8,3.6
			c-0.1,0.4-0.3,0.8-0.4,1.1c-0.2,1.1-0.3,2.2-0.5,3.4c-0.1,0.4-0.2,0.7-0.4,1c-0.1,0.9-0.3,1.8-0.4,2.7c0.2,0.6,0.1,1.2-0.4,1.7
			c-1.1,1.3-0.8,2.8-0.9,4.3c0.6,0.5,0.6,1.1,0.1,1.6c-0.1,2.2-0.2,4.4-0.3,6.6c0,0.3,0,0.5,0,0.8c0,0.5,0,1-0.1,1.5
			c0,2.5,0.1,5,0.1,7.5c0.1,1.2,0.1,2.5,0.1,3.7c0,0.8,0.1,1.5,0.1,2.3c0.3,2.6-0.5,5.4,1,7.9c0.1,0.4,0.2,0.7,0.3,1.1
			c0.3,2.2,0.7,4.5,1,6.7c0.5,0.4,0.6,1,0.4,1.6c0.9,1.9-0.4,4.2,1,6c0.4,0.1,0.6,0.3,0.4,0.7c0.1,0.5,0.2,1,0.3,1.5
			c0.5,0.4,0.7,1,0.5,1.6c0.1,0.7,0.2,1.4,0.3,2c0.1,0.3,0.3,0.6,0.4,0.9c0.1,0.2,0.3,0.5,0.4,0.7c2.4,0.9,1,3,1.4,4.6
			c0,0.2,0.1,0.5,0.2,0.7c1.9,0.6,2.9,1.8,1.1,3.3c-1.6,1.3-1.2,2.7-1.3,4.2c0.2,0.3,0.3,0.6,0.5,0.8c0.8,0.2,1,0.8,0.9,1.5
			c0,0.3,0.2,0.5,0.4,0.6c0.2,0.1,0.3,0.2,0.5,0.3c0,0.1,0,0.3,0,0.4c2.1-0.5,2.8,1.1,3.6,2.5c3.1,5.1,6.2,10.2,9.9,14.8
			c1.3-0.1,1.6-0.8,1.2-2c-0.4-1.1-1-2.2,0.3-3.2c0.2-0.6,0.3-1.1,0.5-1.7c-0.9-1,0-1.2,0.7-1.5h0.3c-0.1-0.5-0.2-0.9-0.3-1.4
			c-0.2-0.2-0.3-0.5-0.4-0.8c-0.4-4.5-2.6-8.7-2.4-13.3c-0.8-1.2-0.7-2.6-0.5-4c-0.1-0.7-0.2-1.4-0.2-2c-0.6-0.8-0.6-1.6-0.3-2.4
			c0-0.5,0-1,0-1.5c-0.4-1-0.4-2-0.2-3c0-3.5,0-7,0-10.5c-0.1-3.3-0.6-6.6,0.6-9.8c0-0.5,0.1-1,0.1-1.5c-0.1-1.6-0.3-3.2,0.6-4.7
			c0.1-1.4,0.2-2.8,0.4-4.3c0.2-0.3,0.3-0.5,0.5-0.8l0,0c-0.1-1.1-0.2-2.2,0.7-3.1c0-0.2,0-0.4,0.1-0.6c-0.1-0.9-0.1-1.8,0.6-2.5
			c0.1-0.7,0.2-1.4,0.3-2C-92.7,2-92.6,1.3-92,0.6c4.8-17.3,12.4-33.4,20.9-49.1c5.7-10.4,11.2-20.9,17.5-30.9c1.6-2.5,3.3-5,5-7.4
			c0.8-1.2,1.3-2.6,0.4-3.4c-1.1-1.1-2.2,0.4-3,1.2c-6.1,5.7-11.9,11.7-17.1,18.3c-1,1.3-2.1,3.8-3.8,2.8c-1.6-0.9-0.3-3.1,0.4-4.7
			c1.2-3.1,2.4-6.2,3.7-9.2c-0.7-0.8-1.1-0.5-1.5,0.4c-0.8,1.7-1.7,3.5-3.8,4.1l0,0c0,1.4-0.7,2.2-2.1,2.4v0.1
			C-75.3-73.8-75.4-72.8-76.7-72.6z"/>
		<path class="st3" d="M-34.2,95.2c0.6,3.2,2.9,5.5,4.6,8c1.2,1.7,1.5,2.2-0.9,2.8c-2.1,0.6-5.6,0.1-5.7,3.1c-0.1,2.4,3.2,2.2,5,3
			c9.8,4.5,19.8,8.8,30.6,10c8,0.9,15.8-0.3,23.4-3.3c2.3-0.9,2.9-2.3,0.9-4.2c-0.8-0.8-1.7-1.4-2.6-2.1c-0.9,1.1-1.5,0.1-2.1-0.3
			c-4.4-2.6-8.9-3.9-14-2c-2.1,0.8-4.3,0.9-7.2,1.4c0.9-1.1,1.3-1.6,1.7-2c-2.3-1.6-4.8-0.6-7.2-0.7c-1.6-0.1-2.7-0.4-2.5-2.3
			c-1.6,0.3-3.2,0.6-4.5,1.7c-0.6,0.4-1.2,0.4-1.6-0.2c-0.6-0.8-0.3-1.4,0.3-1.9c0.6-0.4,1.3-0.7,1.9-1.1c3.2-2.3,6.6-4.4,9.5-7.1
			c0.8-0.7,0.1-3,2.3-3.2c4-0.3,8-0.9,11.4,2c0.6,1.6,2.2,1.9,3.3,2.9c1,0.8,2.3,2.7,3.6,1.6c1.2-1-0.2-2.7-0.8-4
			c-0.4-0.9-1.1-1.7-1.6-2.5c-3.4-1.2-5.1-4.3-7.5-6.5c-7.9-7.5-12.6-16.1-9.9-27.6c1.6-6.7,0-13.2-2.7-20.2
			c-3.2,4.8-5.3,9.2-6.2,14.3c-0.2,1,0.5,2.6-0.9,3c-1.6,0.5-1.9-1.3-2.7-2.1c-2.3-2.4-4.7-4.8-7.1-7.2c-0.2,0.2-0.5,0.4-0.8,0.6
			c1.2,6.6,2.4,13.1,3.5,19.7c-4.9-5.6-9-11.5-14.7-16l0,0c-0.2,10.5,1,20.8,5.8,30.4c0.6,1.2,1.7,2.9-1,2.6
			c-4.6-0.5-4.4,1.5-2.7,4.6c0.3,0.7,0.5,1.4,0.8,2.1C-30.7,94.7-31.9,95.3-34.2,95.2z"/>
		<path class="st4" d="M-0.4-115.6c-6,0.3-12.1,0.2-17.7,3.1c-8.3,4.4-13.4,10.8-14.3,20.3c0.3,0.6,0.2,1.1-0.3,1.5
			c0.2,6-1.2,12.3,1.8,17.9c2.5,4.8,4.8,9.9,10.3,12.2c1.6-0.1,3.2-0.1,4.9-0.2c8.5-0.4,16.6-2.2,23.9-6.6
			c10.4-6.2,16.1-15,14.8-27.5c-0.4-3.8-2.2-7.1-3.2-10.7c-0.6-0.4-0.8-0.9-0.6-1.6c-0.4,0-0.7,0.1-0.4-0.5c0.1,0.2,0.2,0.4,0.3,0.5
			c0.6,0.2,0.9,0.7,1,1.3c7.4,7.6,8.1,16.7,5.8,26.4c0.5,0,1-0.1,1.4-0.1c5.3-15.2-1.2-31.6-16-38.4c-14-6.5-28-6.2-40.1,4.2
			c-11.6,10-15,26.8-6.5,38.8c0.1,0.2,0.4,0.2,1,0.5c-0.8-2.8-1.6-5.3-2.3-7.8c-4.2-14.8,4.6-31.1,19.2-35.7
			c5.7-1.8,11.5-1.4,17.1,0.9c1.3-0.1,2.4,0.2,3.7,1.7C1.7-115.4,0.6-115.5-0.4-115.6z M-7.1-107.2c8.7-1,16.6,7.1,16.2,14.5
			C8.7-82.4,1.2-75.9-10.1-75c-8.2,0.6-15-6.8-15-15.3C-25.2-99.9-17.4-107.2-7.1-107.2z"/>
		<path class="st5" d="M-34.9,52.6c5.7,4.5,9.8,10.4,14.7,16c-1.2-6.6-2.4-13.1-3.5-19.7c0.2-0.2,0.5-0.4,0.8-0.6
			c2.4,2.4,4.7,4.8,7.1,7.2c0.8,0.8,1.1,2.6,2.7,2.1c1.3-0.4,0.7-1.9,0.9-3c0.9-5.1,3-9.6,6.2-14.3c2.6,7,4.3,13.5,2.7,20.2
			C-6,72-1.3,80.6,6.6,88.1c2.4,2.3,4.1,5.4,7.5,6.5c-2.1-7-5.9-13.1-9.8-19.1c-1.2-1.9-2.9-3.7-3.3-6.3c2.5-0.2,3.7,1.4,5.2,2.7
			c0.9,0.8,2,1.8,3.3,1.4c1.6-0.5,0.9-2.1,0.9-3.2c0.1-2.6-0.1-5.2,0.7-7.8c0.1-0.7-0.2-1.6,0.6-1.8c0.8-0.3,0.8,0.6,0.9,1.1
			c1,3.2,2.3,6.3,3.9,9.3c1.3,2.4,2.4,2.6,3.8,0.1c4.3-7.3,8.2-14.8,11.3-22.7c1.1-2.9-0.8-3.3-2.9-3c-3.6,0.6-7,1.8-10.1,3.6
			c-0.7,0.4-1.6,1.1-2.4,0.4c-0.9-0.8,0-1.6,0.2-2.4c0.9-3.7,2-7.4,3-11.2c0.2-0.7,1.1-1.7,0-2.4c-0.8-0.5-1.6-0.1-2.5,0.2
			c-5.4,2.2-9.4,6.1-13,10.4c-1,1.2-1.9,2.6-3.1,4.1c-1.8-2.5-2.2-5.4-3.1-8c-0.5-1.5-0.5-3.3-1.2-4.7c-0.9-1.8-0.7-5-3.2-4.9
			c-1.8,0.1-2.2,3-2.9,4.8c-1.3,3.1-2.6,6.2-3.6,9.4c-0.9,2.5-1.8,2.2-3.2,0.4c-3.6-4.5-7.6-8.5-12.9-11.2c-1-0.5-2-1.3-3.1-0.5
			c-1,0.7-0.4,1.8-0.1,2.8c0.9,3.1,1.8,6.2,2.5,9.3c0.2,1,0.3,2.6-0.3,3.2c-0.7,0.8-2-0.1-3.1-0.5c-2.6-1.1-5.3-2-8.2-2.6
			c-1.2-0.3-2.4-0.9-3.5,0.1c-1.3,1.2-0.3,2.3,0.1,3.4c2.1,6,3.7,12.1,6.3,17.9c-0.3,0.2-0.4,0.5-0.6,0.5c-4.5,0.3-4.5,0.3-2.4,4.4
			c1.2,2.4,2.7,4.8,4,7.2c0.9,1.6,1.8,3.2-1.1,3.9c-0.9,0.2-2.2,1.3-1.2,2.6c2.2,3.1,3.1,7.1,6.2,9.6c2.2,0.1,3.5-0.5,2.2-3
			c-0.4-0.7-0.5-1.4-0.8-2.1c-1.7-3.1-1.8-5.1,2.7-4.6c2.7,0.3,1.5-1.5,1-2.6C-33.9,73.4-35.1,63.1-34.9,52.6c0-0.1-0.1-0.2-0.2-0.3
			C-35,52.4-35,52.5-34.9,52.6z"/>
		<path class="st6" d="M63.7,42.8c0.1,1,0.2,2,0.4,3c0.7,0.7,0.7,1.5,0.3,2.3c0.9,4.2,0.5,8.5,0.3,12.7c0.2,0.7,0.1,1.3-0.6,1.7
			c0.5,3.2,1,6.4,1.6,9.8c-1.5-0.1-1.8-1-2.3-1.7c-6.6-8.8-11.2-18.8-18-27.5c-3.5-4.5-5.8-10.7-12.8-11.5
			c3.9,6.2,7.8,12.3,11.6,18.5c8.5,13.8,14.3,28.8,18.4,44.5c0.4,1.4-0.5,3,0.8,4.2c1.4,0.7,2-0.6,2.7-1.3c2.2-2.4,4.4-5,6.6-7.5
			c2-3.9,4.1-7.7,6-11.6c1.3-2.6,2-5.2-1-7.3c-1.9,3-3.8,6-5.7,9c-0.4-0.1-0.8-0.1-1.1-0.2c5.1-25.1,6.1-50-2-74.6
			c-3-0.1-2.8-3.1-4.2-4.6c-1.1-1.1-2-2.9-3.5-1.7c-3.5,2.7-4.4,0.5-5.5-2.2c-0.5-1.3-1.2-2.4-2-3.6c-2.1-3.3-3.5-7.2-7.5-8.9
			c2.6,7,5.3,13.9,7.7,21c1.8,5.3,3.3,10.7,5,16.1c0.7,0.5,1.2,1,0.8,2c0.1,0.5,0.2,1,0.4,1.5c0.8,0.6,0.9,1.4,0.5,2.2
			c0.1,0.5,0.2,1,0.3,1.5c0.5,0.4,0.7,0.9,0.3,1.5c0.8,3.2,0.6,6.6,1.9,9.8C64.2,40.7,64.1,41.8,63.7,42.8z"/>
		<path class="st6" d="M-92.9,72.7c-0.2,0.6-0.3,1.1-0.5,1.7c0.5,2.6,1.8,4.8,2.9,7.1c1.3,3,3.9,5.4,4.8,8.7l0.3,0.2
			c0.2,0.2,0.3,0.4,0.5,0.6c1.8,2.2,3.7,4.4,5.6,6.5c0.8,0.9,1.5,2.2,3,1.2c0.8-9.4,3.9-18.2,7.4-26.7c5.2-12.4,11.8-24.2,19.3-35.3
			c1.7-2.5,3.6-4.9,5.5-7.3c-3.1-0.6-4.9,1.4-6.5,3.5c-6.2,8-12.1,16.3-17.1,25.3c-2.3,4.1-4.8,8.1-7.7,11.8
			c-0.4,0.5-0.7,1.2-1.4,1.1c-1-0.2-0.8-1.1-0.8-1.8c-0.2-2.4,0.2-4.7,0.7-7c-0.9-0.1-1.4-0.5-0.7-1.4c-0.8-2.2-0.6-4.4-0.4-6.7
			c-1.2-8.6,0.2-17.1,1.7-25.5c1.9-11.2,5.5-21.9,10-32.2c-2.3,0.4-2.2,3.1-4.3,4.6c0.2-1.9,1.3-3.9-0.9-4.4
			c-2.1-0.5-3.6,0.7-4.8,2.2c-0.6,0.8-0.9,1.8-1.5,2.6C-79.1,3.1-79.6,2-80,0.7c-0.6,0.2-0.9,0.6-1.2,1.3C-85.4,13.4-88,25-88,37.3
			c0.1,9.6-0.5,19.1,1.6,28.6c0.8,3.8,0,7.7,1.3,11.4c0.2,0.6,0.2,1.3-0.5,1.6c-0.7,0.3-1.2-0.3-1.5-0.8c-1.6-2.2-3.1-4.4-4.7-6.7
			h-0.3C-92.1,71.9-92.3,72.4-92.9,72.7z"/>
		<path class="st7" d="M269.8-76.1c6.7,0.8,13.4,0.2,20.2,0.4c4.5,0.1,4.9,0.6,3.1,4.8C284.8-50.5,276.5-30,268-9.6
			c-1.1,2.6-1.2,4.7-0.1,7.4c8.1,19.5,16,39,24,58.5c0.4,0.9,0.6,1.9,1.6,2.4c9-0.1,7.2-0.7,4.5-7.3c-8.1-20-16.4-39.9-24.6-59.9
			c-0.8-2-0.6-3.8,0.2-5.7c8.5-20.7,16.9-41.3,25.3-62c1.8-4.3,1.5-4.8-3-4.8c-5.5,0-11,0.2-16.5-0.1
			C275.2-81.2,271.3-81.2,269.8-76.1z"/>
		<path class="st7" d="M177.5-76.2c6.4,1.1,12.9,0.2,19.4,0.4c4.8,0.1,4.9,0.2,3.9,4.9c-9.2,43.1-18.5,86.2-27.8,129.4
			c3.7,0.8,5.1-1,5.8-4.4c4.1-19.3,8.2-38.7,12.4-58c5.3-24.5,10.7-49,16-73.6c0.5-2.4,0-3.7-2.9-3.6c-6.4,0.2-12.7,0.3-19.1,0
			C181.2-81.3,178.2-80.7,177.5-76.2z"/>
		<path class="st7" d="M-265.9-51.5c-1,0-2,0-3-0.1c-2.2-0.2-3,0.6-3,2.9c0.1,36,0.1,72,0.1,108.1c5.9-2.1,5.9-2.1,5.9-8.8
			c0-32.3,0-64.6,0-96.9c0-1.5,0.1-3,0.1-4.5C-265.8-51.1-265.9-51.3-265.9-51.5z"/>
		<path class="st7" d="M-180.5,6.3c-6-0.5-6-0.5-6,5.5c0,8.2,0.1,16.5-0.1,24.7c-0.1,2.7,0.8,3.4,3.4,3.4c11.9-0.1,23.7,0,35.6,0
			c6.1,0,6.1,0,6.1,6.3c0,4.1,0.1,8.2,0.1,12.3c5.9,0,5.9,0,5.9-5.8c0-4.6-0.1-9.2,0-13.9c0.1-3.2-1.2-4.4-4.5-4.4
			c-12.4,0.1-24.7,0-37.1,0.1c-2.8,0-3.7-0.7-3.6-3.6C-180.4,22.8-180.5,14.6-180.5,6.3z"/>
		<path class="st8" d="M-77,62.2c-0.5,2.3-0.8,4.6-0.7,7c0.1,0.7-0.1,1.7,0.8,1.8c0.7,0.1,1-0.6,1.4-1.1c2.9-3.7,5.5-7.7,7.7-11.8
			c4.9-9,10.8-17.2,17.1-25.3c1.6-2,3.4-4.1,6.5-3.5C-38,21.5-31,14.5-23.8,7.5c-4.9,1-9.2,3.1-13.4,5.5
			C-50.4,20.5-60.1,31.5-68,44.2c-0.3,0.5-0.4,1.1-0.6,1.7c-0.1,1.6-0.3,3.1-2.1,3.7c-2.8,3.3-3.8,7.7-6.3,11.2
			C-77.1,61.3-77,61.7-77,62.2z"/>
		<path class="st8" d="M32.6,31.6c6.9,0.9,9.2,7,12.8,11.5c6.7,8.7,11.3,18.8,18,27.5c0.5,0.7,0.8,1.6,2.3,1.7
			c-0.5-3.3-1.1-6.6-1.6-9.8c-0.3-0.5-0.6-1-0.9-1.6C58.9,53,55.3,44.7,50,37.3C40.8,24.4,29,14.8,14.6,8.4c-0.4-0.2-1-0.2-1.5-0.2
			c-0.9,0.3-0.9,1-0.9,1.7c7.4,4.9,11.7,12.8,18.1,18.7c1.4,0,1.6,0.9,1.6,2C32.2,30.9,32.4,31.2,32.6,31.6z"/>
		<path class="st7" d="M-294.9-76.2c1.3,0.8,2.7,0.4,4,0.4c19.7,0,39.5,0,59.2,0c4.9,0,4.9,0.2,5.1,5.1c0.1,4.6-0.6,9.2,0.4,13.8
			c5.3,0,5.8-0.5,5.8-5.7c0-4.8,0-9.5,0-14.2c0-2.9-0.9-4.2-4.1-4.2c-21.9,0.1-43.7,0.2-65.6-0.1C-294.2-81.2-294-78.5-294.9-76.2z"
			/>
		<path class="st7" d="M-209-76.4c1.3,1.2,2.8,0.7,4.3,0.7c19.4,0,38.7,0,58,0c5,0,5.2,0.3,5.3,5.4c0,4.5,0.1,9,0.1,13.5
			c5.7,0,5.9-0.2,5.9-6c0-4.9-0.1-9.7,0-14.6c0-2.5-0.9-3.6-3.5-3.6c-22.2,0.1-44.4,0.1-66.6,0C-209.5-81.1-208.8-78.7-209-76.4z"/>
		<path class="st7" d="M-180.5-51.6c-0.9,0-1.8,0-2.6-0.1c-2.6-0.4-3.4,0.7-3.4,3.3c0.1,9,0.2,18,0,27c-0.1,2.9,0.9,3.6,3.7,3.5
			c6.5-0.2,13,0,19.5-0.1c3.1-0.1,4.2,1.1,4.1,4.2c-0.1,5,0.1,10,0.1,15c5.7-0.1,5.8-0.2,5.8-5.9c0-4.4,0-8.7,0-13.1
			c0-5.3,0-5.3-5.5-5.3c-6.2,0-12.5-0.1-18.7,0c-2.3,0-3-0.7-3-3C-180.5-34.6-180.5-43.1-180.5-51.6z"/>
		<path class="st9" d="M46.9,84.1c-0.1,0.5-0.1,1-0.2,1.5c0.1,0.6,0.1,1.2-0.6,1.4c-3,6.7-8.4,8.5-15.3,7.4c0.1-2.3,3.3-0.8,3.7-3
			c-0.4-0.3-1-1-1.6-1c-4.9,0.2-9.1-1.8-13.4-3.7c-0.4-0.2-1.1-0.1-1.4,0.2c-0.8,0.8,0.2,1.3,0.5,1.9c2.1,5,5.1,9.6,5.2,15.3
			c0.1,0.3,0.2,0.7,0.3,1c0.1,0.5,0.2,1,0.3,1.5c0.7,0.3,1.5,0.6,2.2,0.9c0.7-1.3-1-3.8,1.3-4c2-0.2,3.6,1.5,4.9,3.4
			c-2.2,1.4-4.3-0.2-6.2,0.5c7.6,5.7,20.8-0.2,22.6-9.9c0.8-4.5,0.6-8.9,0.1-13.3c-0.3-0.7-0.6-1.5-0.8-2.2
			C47.3,82.2,47.6,83.5,46.9,84.1z"/>
		<path class="st7" d="M215.6-76.5c4,1.6,8.1,0.6,12.2,0.7c11.2,0.3,8.2-1.6,12.1,8.6c3.6,9.3,6.7,18.8,10.1,28.1
			c0.4,1.3,0.6,2.7,2,3.9c1.8-3.7,2.9-7.4,4-11.2c-2.8-2.9-3.1-6.9-4.4-10.3c-2.7-6.8-5-13.7-7.3-20.6c-0.9-2.8-2.4-3.9-5.4-3.8
			c-6.6,0.2-13.2,0.1-19.8,0.1C214.3-81,214.2-80.8,215.6-76.5z"/>
		<path class="st7" d="M116.6-76.4c4.7,1.4,9.6,0.4,14.4,0.6c7,0.3,7.2-1.6,8.4,6.9c0.6,4.1,1.5,8.1,2,12.2c0.3,2.7,1.4,3.6,4.1,3.5
			c6.2-0.2,12.5,0,18.7-0.1c5.4,0,5.4,0,6.2-5.7c-6,0.1-11.9,0.2-17.9,0.3c-3.2,0-5.2-0.5-5.4-4.7c-0.1-4.8-1.4-9.5-2.2-14.3
			c-0.4-2.4-1.4-3.6-4.2-3.5c-6.5,0.2-13,0.3-19.4,0C117.5-81.3,116-80.1,116.6-76.4z"/>
		<path class="st3" d="M19.7-105.6c0.9,3.6,2.8,6.9,3.2,10.7c1.2,12.5-4.4,21.4-14.8,27.6c-7.3,4.4-15.4,6.2-23.9,6.6
			c-1.6,0.1-3.2,0.1-4.9,0.2c3.4,3.6,8.1,4,12.5,4.3C-0.1-55.6,7.2-58,14-62.3c1.2-0.7,2.2-1.6,3.8-1.2c1.1-0.6,2.2-1.1,3.3-1.7
			c0.4-0.6,0.7-1.2,1-1.8c-0.8-2,1.3-3.2,1.4-4.9c-0.6-0.3-0.5-0.5,0-0.8l0,0c0.1-2.5,0.9-4.7,2.2-6.8c2.3-9.7,1.6-18.8-5.8-26.4
			C20-105.8,19.7-105.6,19.7-105.6z"/>
		<path class="st6" d="M-32.5-62.9c-0.3-0.2-0.6-0.5-0.8-0.8c-4.8-5-4.8-5-9.4,0.2c-5.4,6.1-8.3,13.2-8.5,21.2
			c-0.1,5.3,1.8,10.4,4.6,15c0.8,1.4,2,1.2,2.5-0.1c1.2-3.4,4.3-5.1,6.4-7.7c-0.2-0.6-0.2-1.2-0.5-1.8c-4.6-9.8-3.3-16.7,4.6-24.1
			C-33-61.6-32.6-62.1-32.5-62.9z"/>
		<path class="st9" d="M-22.5-20.1c-0.1-2.4-0.1-4.9-0.2-7.3c-0.1-1.1,0.5-2.5-0.9-3.2c-0.2,0.2-0.5,0.4-0.7,0.6
			c-3.5,3.1-5.6,7-6.8,11.4c0,0.6-0.3,1.1-1,1.2c-0.1,0-0.2-0.8-0.3-1.2c-0.1-2.8-0.5-5.5,0.2-8.3c0.1-0.3,0.2-0.6,0.4-0.9
			c-0.6-1.4,1.9-3.2,0.2-4c-1.9-0.8-3.4,1.2-4.5,2.6c-3.4,4.1-4,8.9-3.6,14c0.7,0.5,1.4,1.2,2.2,1.3c4.5,0.6,9,1.5,13.5,2.3
			c3.9,0.7,9.8-0.8,11.1-7c0-1.7,0-3.3,0-5c-0.3-0.8-0.6-1.6-0.9-2.4c-0.5-1-0.9-1.9-1.4-2.9c-0.2-0.3-0.4-0.6-0.7-0.9
			c-0.5-0.2-1-1-1.6,0c0,0.5,0,1,0.1,1.5c0,0.7-0.1,1.5-0.1,2.2c-0.1,0.6-0.3,1.2-0.5,1.8c-1.2,2.1-0.4,4.8-2.1,6.7
			c-0.2,1-0.4,2.1-1.7,2.4C-22.9-17-23-18.6-22.5-20.1z"/>
		<path class="st9" d="M25.8-15.7c0.1-1.5,0.3-3,0.4-4.5c0-0.2-0.1-0.5-0.1-0.7c-1.6-3.6-3-7.3-6.1-10c-1-0.9-2-1.8-3.2-1
			c-1,0.7,0.1,1.9,0.4,2.6c1.5,3.4,1.4,6.8,1.1,10.9c-2.4-2-3.1-4.5-4.5-6.5c-1.5-2.1-2-5.1-5.1-5.9c0,4.8-0.1,9.6-0.1,14.5
			c0,0.6,0.3,1.4-0.7,1.4c-0.8,0-0.8-0.8-1-1.4c-0.2-0.3-0.3-0.7-0.5-1c-0.2-0.2-0.4-0.5-0.6-0.8c-2.1-3.5-2.7-7.2-2.5-11.2
			c-0.5-0.3-1-0.6-1.5-0.9c-3.7,3.3-2.8,7.5-2.9,11.5c0.4,1,0.9,2,1.4,3c1.2,2.4,9.8,5.7,11.8,4c2.5-2.1,5.2-2,8-1.8
			C22.3-13.3,24.1-14.2,25.8-15.7z"/>
		<path class="st8" d="M46.4-15.7c4,1.7,5.4,5.6,7.5,8.9c0.7,1.1,1.5,2.3,2,3.6c1.1,2.8,2,5,5.5,2.2c1.5-1.2,2.5,0.7,3.5,1.7
			c1.5,1.5,1.2,4.5,4.2,4.6c-2.2-6.6-4.4-13.1-7.3-19.4c-0.4,0.4-0.8,0.8-1.2,1.1c-0.1,0.4-0.1,0.8-0.2,1.2c0.2,0.2,0.2,0.4,0.2,0.6
			c0.3,1.3,0.7,2.7,1,4c0.3,0.5,0.2,1-0.4,1c-0.7,0-0.8-0.6-0.8-1.2c-0.6-1.2-1.2-2.4-1.8-3.7c-4.2-6.4-8.4-12.7-12.6-19.1
			c-1-1.6-2-1.3-2.7,0.1c-1,1.9-2.2,3.5-0.9,6.1C43.7-21.2,44.9-18.4,46.4-15.7z"/>
		<path class="st6" d="M21.2-65.3c-1.1,0.6-2.2,1.1-3.3,1.7c-2.8,2.4-2.3,3.8,0.7,6c4.8,3.5,8.7,11.8,5.7,18.1c-2.4,5,0.6,6.8,3.8,9
			c1.5-0.3,1.8-1.6,2.2-2.7c4.6-11.1,1.8-23.1-7.3-31.3C22.4-64.7,21.8-65,21.2-65.3z"/>
		<path class="st8" d="M-80.1,0.5c0.4,1.2,0.8,2.4,2.2,0.8c0.6-0.8,0.9-1.8,1.5-2.6c1.2-1.5,2.8-2.7,4.8-2.2
			c2.2,0.5,1.1,2.5,0.9,4.4c2.1-1.5,2-4.2,4.3-4.6c0.6-1,1.1-2,1.7-2.9c-1.2-2.4,0-3.4,2.2-3.7c2.2-4.6,4.4-9.2,6.6-13.7
			c0.5-1,1.1-2.1,0.4-3.2c-0.7-1.2-0.3-3.4-2-3.6c-1.3-0.1-2,1.6-2.8,2.7c-4.7,6.6-9.2,13.3-12.8,20.6c-0.1,0.9-0.2,1.8-1.4,1.3
			c-0.9-0.4-1.1-1.2-0.1-1.9c-0.2-1.6,1.2-3.1,0.4-4.8c-0.2-0.2-0.4-0.4-0.6-0.6c-1.6,0.7-1.9,1.9-1.5,3.4c0.3,1,0.2,1.7-1,2
			c-0.5,1.5-2.1,2.7-1.5,4.6c0.7,1.1-0.1,1.2-0.8,1.4C-80-1.3-80.4-0.4-80.1,0.5z"/>
		<path class="st10" d="M97.7,49.6c-3.3,2.8-0.2,5.5,0.1,8.3c0.8-0.2,1-1.5,2.2-1.1c0.3,1.4-0.4,2.6-0.6,4l0,0
			c1.1,0,1.4-0.8,1.8-1.6c3.6-6.9,6.4-14,8.7-21.5c1.5-5,2.2-10.2,5-14.7c0.6-3.9,1.2-7.7,1.7-11.6c0-0.2,0-0.5,0.1-0.8
			c0-1.5,0.1-3,0.1-4.5c-0.3,0-0.7-0.1-1-0.1c-2.6,7.7-3.7,15.9-6.5,23.6c-2.6,6.9-5.7,13.6-9.7,19.8C98.8,50.5,98.3,49.6,97.7,49.6
			z"/>
		<path class="st3" d="M23-64.5c9.1,8.2,11.9,20.2,7.3,31.3c-0.5,1.1-0.7,2.5-2.2,2.7c0.9,1.6,1,4.5,3,4.6c2.2,0.1,3-2.6,3.9-4.5
			c4.5-9,3.9-18-0.7-26.7c-1.2-2.3-3.8-3.5-4.8-6c-2.1,0.4-3.3-1.1-4.7-2.1C24-65.7,22.8-67,23-64.5z"/>
		<path class="st10" d="M-110.7,58.6c0.1-1.5-0.3-2.9,1.3-4.2c1.8-1.5,0.8-2.7-1.1-3.3c-0.2,0.4-0.5,1.2-0.5,1.2
			c-1.2-0.4-1.7-1.4-2-2.6c-6.1-8.9-10.1-18.7-12.7-29.1c-0.8-3.5-2.1-6.9-2.4-10.5c-0.1-0.3-0.3-0.7-0.4-1
			c-0.1-0.5-0.2-0.9-0.2-1.4c-1,0.5-0.7,1.6-1.1,2.3c0.9,4.8,0.1,9.8,2.2,14.5c1.4,0.7,1.3,2.1,1.5,3.4c0.2,0.5,0.3,1,0.5,1.6
			c0.5,1.1,1.1,2.2,1.4,3.4c2.6,8.8,5.4,17.5,9.8,25.7c0.4,0.7,0.2,2.2,1.8,1.7c0-0.5,0-1-0.1-1.5c-0.2-0.7-0.5-1.7,0.2-1.8
			c1-0.2,1.1,0.9,1.3,1.7C-111.1,58.5-110.9,58.6-110.7,58.6z"/>
		<path class="st11" d="M-64.8-6.6c-0.6,1-1.1,2-1.7,2.9c-4.5,10.4-8.1,21.1-10,32.2c-1.5,8.4-2.9,16.9-1.7,25.5
			c2.5-2.9,1.3-6.6,1.8-9.8c2.1-14,5.7-27.5,10-41c1.2-3.6,3.2-7.1,3.4-11.1C-63.6-7.5-64.2-7-64.8-6.6z"/>
		<path class="st11" d="M72.8,90c-2.2,2.5-4.4,5-6.6,7.5c-0.7,0.8-1.3,2-2.7,1.3c0.1,1.3-0.9,3,0.6,3.7c1.6,0.8,2.3-1,3.3-1.9
			C77.6,91,86.5,80.4,93,67.9c1-1.9,2.3-3.8,2.6-6.1c-2-0.4-2.8,1.1-3.6,2.5c-3.5,5.8-7.2,11.5-11.4,16.8
			C78.9,84.8,76.4,87.9,72.8,90z"/>
		<path class="st11" d="M-76.4,98.6c-1.6,1-2.3-0.3-3-1.2c-1.9-2.1-3.7-4.3-5.6-6.5c-0.2-0.2-0.3-0.4-0.5-0.6l-0.3-0.2
			c-4-2.7-6.7-6.5-9.1-10.6c-3.7-4.7-6.8-9.7-9.9-14.8c-0.8-1.3-1.5-3-3.6-2.5c2.2,7.1,6.5,13,10.8,18.9
			c5.1,6.9,10.6,13.4,16.7,19.5c1,1,2,2.7,3.7,1.9C-75.3,101.8-76.4,100-76.4,98.6z"/>
		<path class="st7" d="M253.8,29.8c0.3-2.4-0.5-4.4-2.2-7.3c-4.2,12.5-8.2,24.2-12.2,35.9c2.6,0.5,4-0.5,4.9-3.2
			c2.3-7.2,4.9-14.4,7.5-21.6C252.2,32.3,252.5,30.8,253.8,29.8z"/>
		<path class="st11" d="M26.6,107.3c-0.7-0.3-1.5-0.6-2.2-0.9c-0.1,2.9,1.4,4.5,4.1,5.4c6.5,2,12.4-0.1,17.5-3.6
			c5.8-4,6.8-10.3,5.5-16.9c-0.5-2.5,0.1-5.4-2.4-7.3c0.6,4.4,0.8,8.8-0.1,13.3C47.3,107.1,34.2,113,26.6,107.3L26.6,107.3z"/>
		<path class="st11" d="M114.9,22.9c-2.8,4.5-3.5,9.8-5,14.7c-2.3,7.4-5.1,14.6-8.7,21.5c-0.4,0.8-0.7,1.6-1.8,1.6
			c-1.2,3-2.5,6.1-2.3,9.6C106.8,56,113.3,40.4,114.9,22.9z"/>
		<path class="st11" d="M-32.5-62.9c-0.1,0.8-0.5,1.3-1.1,1.9c-7.8,7.4-9.1,14.4-4.6,24.1c0.3,0.5,0.3,1.2,0.5,1.8
			c2.1,0,2-1,1.5-2.7c-2.2-7.3-1.2-13.9,4.8-19.3C-27.9-60.3-28-60.7-32.5-62.9z"/>
		<path class="st11" d="M-112.7,60.1c-1.6,0.4-1.4-1-1.8-1.7c-4.3-8.1-7.2-16.8-9.8-25.7c-0.3-1.2-0.9-2.2-1.4-3.4
			c-1.3,1.5-1,3.4-0.6,5c3.3,12.2,8,23.9,14.6,34.7c0.2,0.3,0.6,0.4,1.8,1.1C-111,66.3-110.8,63-112.7,60.1z"/>
		<path class="st5" d="M9.3,96.7c-3.4-2.9-7.4-2.3-11.4-2c-2.2,0.2-1.6,2.4-2.3,3.2c-2.9,2.7-6.3,4.8-9.5,7.1
			c-0.6,0.4-1.4,0.6-1.9,1.1c-0.6,0.5-1,1.2-0.3,1.9c0.5,0.6,1.1,0.6,1.6,0.2c1.3-1,2.9-1.4,4.5-1.7c2.9-0.9,4.9-2.5,6.6-5.3
			C-0.7,96.6,4.3,96.5,9.3,96.7z"/>
		<path class="st11" d="M-13.2-18.7c-1.2,6.2-7.2,7.7-11.1,7c-4.4-0.8-8.9-1.7-13.5-2.3c-0.8-0.1-1.5-0.9-2.2-1.3
			c0.4,3.2,2.3,4.8,5.4,4.9c2.7,0,5.3,0.3,8,1.3c3.9,1.5,7.8-0.1,11.4-1.5C-12.5-11.7-11.9-15.4-13.2-18.7z"/>
		<path class="st11" d="M25.8-15.7c-1.6,1.5-3.4,2.4-5.7,2.2c-2.8-0.2-5.5-0.2-8,1.8c-2,1.6-10.5-1.6-11.8-4c-0.5-1-0.9-2-1.4-3
			c-1.6,3.8,0,7.9,3.8,8.6c4.2,0.9,8.4,3.2,12.7-0.1c1.1-0.9,3.4-0.2,5.1-0.3C23.5-10.6,26-13.1,25.8-15.7z"/>
		<path class="st10" d="M72.8,90c3.6-2.1,6.1-5.2,7.8-8.9c-2.4-0.4-1-1.8-0.6-2.7c1.2-2.1,1.5-4,0.3-6.2c-1.1-1.9-0.5-4,0.1-6.1
			c0.4-1.4,1.7-2.9,0.3-4.5c-1,3.2-2,6.3-2.9,9.5c3,2.1,2.3,4.7,1,7.3C76.9,82.3,74.8,86.1,72.8,90z"/>
		<path class="st7" d="M-7.5-29c-2.4,0-4,0.4-2.8,3.2c0.3,0.8,0.1,1.7,0.2,2.6C-9.8-21.5-11-19-8-18.9c3.1,0.1,2.1-2.4,2.3-4.1
			c0.1-1.1,0-2.3,0.4-3.3C-4.4-28.8-5.7-29.1-7.5-29z"/>
		<path class="st5" d="M-0.4,109.6c-0.4,0.5-0.8,0.9-1.7,2c2.8-0.5,5.1-0.7,7.2-1.4c5.1-1.9,9.6-0.6,14,2c0.7,0.4,1.2,1.4,2.1,0.3
			c-4.3-7.2-10.8-5.2-17-4.2C2.6,108.7,1.1,109.2-0.4,109.6z"/>
		<path class="st10" d="M84.2-56.9c0.6-0.3,1.1-0.6,1.7-0.8c-1.8-4.5-5-8-7.6-11.9c-0.5,0-1,0-1.4,0C79.6-65.6,80.5-60.4,84.2-56.9z
			"/>
		<path class="st10" d="M-73.2-77.2c2.1-0.5,2.9-2.3,3.8-4.1c0.4-0.9,0.8-1.2,1.5-0.4c1.7-3,3.4-5.9,5-8.9c-0.2-0.2-0.4-0.5-0.6-0.7
			C-67.6-87.2-71-82.6-73.2-77.2z"/>
		<path class="st12" d="M-105.4-32.2c-2.1,7.7-1.8,15.5-0.7,23.3c1.4-1.8,0.6-3.9,0.6-5.8C-105.4-20.5-105.4-26.4-105.4-32.2z"/>
		<path class="st11" d="M4.7,99.8c-1.8,0-2.9,0.6-3.8,1.4c-0.8,0.6-1.6,1.4-1,2.5c0.6,0.9,1.5,0.4,2.3,0c1.2-0.6,2.4-1.2,3.8-0.3
			c0.6,0.4,1.6,1.3,2.2,0.3c0.6-1-0.3-1.9-1.1-2.4C6.3,100.6,5.3,100.2,4.7,99.8z"/>
		<path class="st10" d="M55-81.6c0-0.8,0.3-1.5,1.3-1.5c-1.8-3-4-5.7-6.9-7.8C51.6-87.9,51.8-83.9,55-81.6z"/>
		<path class="st10" d="M-99.3-57.6c0.7,0.7,1.5-2.3,2.2,0c1.3-2.3,2.7-4.5,4-6.8c-0.1-0.8,0.2-1.9-1-2.2
			C-95.7-63.6-98.4-61.1-99.3-57.6z"/>
		<path class="st12" d="M6.9-16.2c0.2,0.6,0.2,1.4,1,1.4c0.9,0,0.6-0.8,0.7-1.4c0.1-4.8,0.1-9.6,0.1-14.5C5.6-29,7.4-26.3,7.5-24
			C7.6-21.3,8.5-18.7,6.9-16.2z"/>
		<path class="st12" d="M-129.8,9.9c0.4-0.7,0.1-1.8,1.1-2.3c0.5-2.3,0.2-4.4-1.5-6.3C-130.6,4.2-131.9,7.1-129.8,9.9z"/>
		<path class="st7" d="M23-64.5c-0.2-2.5,1-1.2,1.8-0.6c1.5,1,2.7,2.5,4.7,2.1c-2.2-1.7-3.2-5.8-7.3-4c-0.4,0.6-0.7,1.2-1,1.8
			C21.8-65,22.4-64.7,23-64.5z"/>
		<path class="st12" d="M-94.1-66.6c1.2,0.4,0.9,1.4,1,2.2c1.5-3.1,4.1-5.7,4.8-9.2C-90.9-71.7-92.6-69.2-94.1-66.6z"/>
		<path class="st12" d="M82.9,49.6c1-4,0.8-8,0.5-12C83,41.6,81.5,45.5,82.9,49.6z"/>
		<path class="st5" d="M25.8-79.4c-1.3,2.1-2.1,4.3-2.2,6.8c2.1-1.8,3.2-4.2,3.7-6.8C26.8-79.4,26.3-79.4,25.8-79.4z"/>
		<path class="st11" d="M115.8,6c0.3,0,0.7,0.1,1,0.1c0.3-0.3,0.8-0.6,1-1c0.5-1.1,0.5-2.4,0-3.5c-0.1-0.2-0.7-0.4-0.9-0.2
			c-1.3,0.7-0.9,2.1-1,3.2C115.8,5,115.8,5.5,115.8,6z"/>
		<path class="st12" d="M-95.7,22.5c-1.1,3.2-0.7,6.5-0.6,9.8C-95.4,29.1-95.1,25.9-95.7,22.5z"/>
		<path class="st7" d="M60.6-13c0.4-0.4,0.8-0.8,1.2-1.1c0-1.7-1.1-2.9-2.1-4.4c-1.8,2.2,1.2,3.8,0.6,5.7L60.6-13L60.6-13z"/>
		<path class="st11" d="M99.4,60.8c0.2-1.3,0.9-2.6,0.6-4c-1.2-0.4-1.4,0.8-2.2,1.1c-0.4,1-0.9,2-1.3,3
			C97.5,60.8,98.5,60.8,99.4,60.8z"/>
		<path class="st11" d="M105.3-2.9c0,4-0.1,8-0.1,12c0.3,0,0.5,0.1,0.8,0.1C105.8,5.1,106.9,1,105.3-2.9z"/>
		<path class="st12" d="M-106-7.4c-0.3,3.1,0,6.1,0.8,9C-103.9-1.6-105.2-4.5-106-7.4z"/>
		<path class="st12" d="M57-67.9c0.8,1.2,1.5,2.4,3.1,3.5c0.5-2.4-0.1-4.2-1.3-5.9C58.9-69,58.5-68.1,57-67.9z"/>
		<path class="st6" d="M-64.8-6.6c0.6-0.4,1.2-0.9,1.7-1.3c0.2-0.8,0.3-1.6,0.5-2.4C-64.7-10-65.9-9-64.8-6.6z"/>
		<path class="st12" d="M-22.5-20.1c-0.5,1.6-0.4,3.1,0.5,4.8c1.3-0.3,1.5-1.3,1.7-2.4C-22-17.7-22-19.1-22.5-20.1z"/>
		<path class="st12" d="M106,9.1c-0.3,0-0.5-0.1-0.8-0.1c-0.8,2.5-0.6,5-0.6,7.5C106.1,14.3,104.9,11.5,106,9.1z"/>
		<path class="st12" d="M81.3,15.1c0.9-2.2,0-4.1-0.8-6C79.8,11.2,80.7,13.1,81.3,15.1z"/>
		<path class="st5" d="M76.8-69.6c0.5,0,1,0,1.4,0c-0.6-1.6-1.4-3-2.9-3.8l-0.2,0.2C75.3-71.8,75.7-70.6,76.8-69.6z"/>
		<path class="st11" d="M-63.5-91.3c0.2,0.2,0.4,0.5,0.6,0.7c1.1-0.8,1.8-1.9,2.3-3.6C-62.7-94.1-62.7-92.3-63.5-91.3z"/>
		<path class="st11" d="M61.6-7.2c-0.3-1.3-0.7-2.7-1-4c-0.7,0.1-1.3,0.1-2,0.1c0.6,1.2,1.2,2.4,1.8,3.7C60.7-7.3,61.2-7.3,61.6-7.2
			z"/>
		<path class="st12" d="M-118.4,9.1c0-2.5-0.1-5-0.1-7.5C-119.2,4.1-119.3,6.6-118.4,9.1z"/>
		<path class="st5" d="M75.4-73.5c-0.2-1.3-1.1-2.1-2.9-3.4c0.7,2.2,1,3.3,2.7,3.6L75.4-73.5z"/>
		<path class="st12" d="M46.9,84.1c0.8-0.6,0.4-1.8,1.5-2.2c-0.1-0.6-0.3-1.6-0.9-1.1C46.6,81.6,45.7,82.8,46.9,84.1z"/>
		<path class="st6" d="M-70.7,49.6c1.8-0.6,2-2.1,2.1-3.7C-70,46.8-70.6,48-70.7,49.6z"/>
		<path class="st12" d="M82.8,23.3c-0.2-2.1,1-4.5-1.4-6.1C82.7,19.1,81.3,21.5,82.8,23.3z"/>
		<path class="st11" d="M63.7,42.8c0.4-1.1,0.5-2.1-0.5-3C62.3,41,62.1,42.1,63.7,42.8z"/>
		<path class="st12" d="M104.5,18.8c-0.8,1.2-0.7,2.5-0.5,3.8C104.7,21.4,106,20.3,104.5,18.8z"/>
		<path class="st11" d="M-0.4-115.6c1,0.1,2.1,0.2,3.7,0.4c-1.2-1.5-2.4-1.8-3.7-1.7C-0.4-116.5-0.4-116.1-0.4-115.6z"/>
		<path class="st12" d="M104.7-8.9c-0.1,2.1-0.3,4.1,0.6,6.1C105.2-4.9,105.9-7,104.7-8.9z"/>
		<path class="st6" d="M-74.6-8.2c-1,0.7-0.8,1.5,0.1,1.9c1.2,0.6,1.3-0.4,1.4-1.3C-73.6-7.8-74.1-8-74.6-8.2z"/>
		<path class="st12" d="M-113,49.6c0.3,1.2,0.8,2.2,2,2.6c0,0,0.3-0.8,0.5-1.2c-0.1-0.2-0.2-0.4-0.2-0.7c-0.3-0.3-0.5-0.5-0.8-0.8
			C-112,49.6-112.5,49.6-113,49.6z"/>
		<path class="st10" d="M-111.5,49.5c0.3,0.3,0.5,0.5,0.8,0.8c-0.4-1.5,1.1-3.6-1.4-4.6c0,0.5,0,0.9,0,1.4c0.1,0.3,0.3,0.6,0.4,0.9
			C-111.6,48.6-111.6,49.1-111.5,49.5z"/>
		<path class="st11" d="M1.8-30c0.5,0.3,1,0.6,1.5,0.9c1-0.7,0.8-1.4-0.1-1.9C2.2-31.5,2-30.7,1.8-30z"/>
		<path class="st12" d="M83.3,31.6c0.3-1.8,0.6-3.7-0.4-5.4C82.9,28,82.4,29.8,83.3,31.6z"/>
		<path class="st12" d="M-105,5.2c-0.2,0.9-0.7,2.2,0.6,2.4c0.7,0.1,0.6-1.4,0.6-2.2C-104.2,5.3-104.6,5.3-105,5.2z"/>
		<path class="st10" d="M-75.3-74.9c1.4-0.2,2.1-0.9,2.1-2.4C-74.6-77-75.4-76.4-75.3-74.9z"/>
		<path class="st5" d="M12.2,9.9c0-0.7,0.1-1.4,0.9-1.7c-0.8-0.9-1.7-0.7-2.6-0.4C10.6,8.9,11.4,9.4,12.2,9.9z"/>
		<path class="st12" d="M92.9-9c0.5-1.5,0.5-3,0.2-4.5C92.2-12,92.4-10.5,92.9-9z"/>
		<path class="st6" d="M-77.3-8.1c1.2-0.3,1.3-1,1-2C-77.9-10.1-77.6-9.1-77.3-8.1z"/>
		<path class="st11" d="M-126.2,27.8c-0.2-1.3,0-2.7-1.5-3.4C-127.9,25.8-127.6,27-126.2,27.8z"/>
		<path class="st11" d="M60.7,27.1c0.3-0.9,0.3-1.6-0.5-2.2C59.3,25.9,59.4,26.6,60.7,27.1z"/>
		<path class="st12" d="M-95.1,16.4c-0.9,1.5-0.7,3.1-0.6,4.7C-94.4,19.6-95,18-95.1,16.4z"/>
		<path class="st11" d="M64.4,48.1c0.4-0.8,0.4-1.6-0.3-2.3C63,46.7,63.1,47.5,64.4,48.1z"/>
		<path class="st10" d="M-76.7-72.6c1.3-0.2,1.3-1.2,1.3-2.2C-76.3-74.4-76.9-73.7-76.7-72.6z"/>
		<path class="st11" d="M12.3,61.6c-0.1-0.5-0.1-1.4-0.9-1.1c-0.8,0.3-0.5,1.2-0.6,1.8C11.3,62.1,11.8,61.8,12.3,61.6z"/>
		<path class="st12" d="M104.1-12.7c-0.3,0.8-0.2,1.6,0.4,2.3C105.8-11.4,104.7-12,104.1-12.7z"/>
		<path class="st6" d="M31.9,30.6c0-1.1-0.2-2-1.6-2C30.4,29.6,30.8,30.4,31.9,30.6z"/>
		<path class="st10" d="M-83.5-60.6c1.4-0.2,1.4-1.2,1.3-2.2C-83-62.4-83.8-61.8-83.5-60.6z"/>
		<path class="st11" d="M-111.2,58.5c-0.2-0.8-0.3-1.9-1.3-1.7c-0.7,0.1-0.3,1.2-0.2,1.8C-112.2,58.6-111.7,58.5-111.2,58.5z"/>
		<path class="st12" d="M-95.6,51.8c-0.2,1.4-0.3,2.7,0.5,4C-94.9,54.4-94.5,53-95.6,51.8z"/>
		<path class="st12" d="M-93.5,8.2c-0.8,0.9-0.7,2-0.7,3.1C-93,10.5-93.4,9.3-93.5,8.2z"/>
		<path class="st11" d="M59.9,23.3c0.5-0.9-0.1-1.5-0.8-2C58.8,22.2,58.9,23,59.9,23.3z"/>
		<path class="st6" d="M-79.7-2.1c0.8-0.2,1.6-0.3,0.8-1.4C-79.8-3.5-79.9-2.9-79.7-2.1z"/>
		<path class="st11" d="M61.4,30.1c0.4-0.6,0.2-1.1-0.3-1.5C60.1,29.3,60.5,29.8,61.4,30.1z"/>
		<path class="st12" d="M-115.4,32.4c0.2-0.6,0.1-1.2-0.4-1.6C-116.9,31.6-116.4,32.1-115.4,32.4z"/>
		<path class="st12" d="M103.4-17.3c-0.2,0.6-0.1,1.1,0.4,1.6C104.9-16.5,104.3-16.9,103.4-17.3z"/>
		<path class="st11" d="M-77,62.2c0-0.5-0.1-0.9-0.1-1.3c-0.2,0-0.4,0-0.6,0C-78.4,61.7-77.9,62-77,62.2z"/>
		<path class="st12" d="M-113.2,42.2c0.2-0.6,0-1.2-0.5-1.6C-114.7,41.4-114.1,41.8-113.2,42.2z"/>
		<path class="st12" d="M-96.3,42.8c-0.3,1-0.2,2,0.2,3C-95.4,44.8-95.4,43.8-96.3,42.8z"/>
		<path class="st11" d="M63.2,60.9c0.3,0.5,0.6,1,0.9,1.6c0.7-0.4,0.8-1,0.6-1.7C64.1,60.8,63.6,60.9,63.2,60.9z"/>
		<path class="st8" d="M-74.2-13c0.6-0.6,1.7-1.1,0.3-1.9c-0.2,0-0.4,0-0.7,0c-0.1,0.4-0.2,0.9-0.2,1.4
			C-74.6-13.4-74.4-13.2-74.2-13z"/>
		<path class="st11" d="M-32.7-90.7c0.5-0.4,0.6-0.9,0.3-1.5C-33.3-91.8-33.7-91.4-32.7-90.7z"/>
		<path class="st12" d="M-96.1,47.3c-0.3,0.9-0.3,1.7,0.3,2.4C-95.6,48.9-95.5,48.1-96.1,47.3z"/>
		<path class="st12" d="M82.2,54.2c0.6-0.7,0.7-1.5,0.5-2.4C81.9,52.5,82,53.4,82.2,54.2z"/>
		<path class="st11" d="M-14.1-26.1c0.3,0.8,0.6,1.6,0.9,2.4C-13.2-24.6-12.9-25.6-14.1-26.1z"/>
		<path class="st12" d="M-92.8,5.1c-0.7,0.7-0.7,1.6-0.6,2.5C-92.5,6.9-92.6,6-92.8,5.1z"/>
		<path class="st12" d="M-91.9,0.8c-0.6,0.7-0.7,1.5-0.5,2.3C-91.7,2.4-91.8,1.6-91.9,0.8z"/>
		<path class="st12" d="M-118.2,15.1c0-0.8-0.1-1.5-0.1-2.3C-119.1,13.6-119.1,14.4-118.2,15.1z"/>
		<path class="st11" d="M-32.6-18.7c0.1,0.4,0.2,1.2,0.3,1.2c0.7,0,1-0.5,1-1.2C-31.7-18.7-32.1-18.7-32.6-18.7z"/>
		<path class="st12" d="M-18.2-24.4c0.1-0.6,0.3-1.2,0.5-1.8C-18.4-25.7-18.5-25.1-18.2-24.4z"/>
		<path class="st12" d="M-118.1-7.3c0.5-0.6,0.6-1.1-0.1-1.6C-118.1-8.4-118.1-7.9-118.1-7.3z"/>
		<path class="st12" d="M-117.2-13.2c0.4-0.5,0.6-1.1,0.4-1.7C-117.4-14.5-117.4-13.9-117.2-13.2z"/>
		<path class="st12" d="M80.3,7.6C80.5,7,80.4,6.4,79.8,6C79.8,6.6,79.8,7.2,80.3,7.6z"/>
		<path class="st10" d="M-109.2,60.9c0.1-0.7-0.1-1.3-0.9-1.5C-109.9,59.9-109.5,60.4-109.2,60.9z"/>
		<path class="st11" d="M60.6-13h-0.2l-0.2,0.1c0.1,0.4,0.1,0.7,0.2,1.1C60.5-12.2,60.5-12.6,60.6-13z"/>
		<path class="st12" d="M79.7,4.6c0.1-0.6,0.1-1.2-0.6-1.5C79.3,3.6,79.5,4.1,79.7,4.6z"/>
		<path class="st12" d="M-17.7-28.4c0-0.5,0-1-0.1-1.5C-18.4-29.4-18.4-28.9-17.7-28.4z"/>
		<path class="st12" d="M46,87c0.7-0.2,0.8-0.8,0.6-1.4C46.5,86,46.2,86.5,46,87z"/>
		<path class="st12" d="M92.9-28.4c0.3-0.6,0.2-1-0.4-1.4C92.6-29.3,92.8-28.9,92.9-28.4z"/>
		<path class="st12" d="M92.7-5.8C92.8-6,92.9-6.2,93-6.4c0-0.1-0.1-0.2-0.2-0.3C92.8-6.3,92.7-6.1,92.7-5.8z"/>
		<path class="st12" d="M-24.4-30.1c0.2-0.2,0.5-0.4,0.7-0.6C-24-30.5-24.2-30.3-24.4-30.1z"/>
		<path class="st12" d="M-101.8-8.1c0.1-0.3,0.1-0.5,0.2-0.8C-102.1-8.7-102.3-8.5-101.8-8.1z"/>
		<path class="st12" d="M-116.8,24.1c-0.1-0.4-0.2-0.7-0.3-1.1C-117,23.4-116.9,23.7-116.8,24.1z"/>
		<path class="st12" d="M-111.7,48.1c-0.1-0.3-0.3-0.6-0.4-0.9C-112,47.5-111.8,47.8-111.7,48.1z"/>
		<path class="st3" d="M-265.9-51.5c0,0.2,0,0.4,0.1,0.6c0.2-0.2,0.4-0.4,0.6-0.6l-0.4-0.1L-265.9-51.5z"/>
		<path class="st12" d="M103,29.2c-0.2,0.3-0.3,0.6-0.5,0.9C102.7,29.8,102.9,29.5,103,29.2z"/>
		<path class="st12" d="M5.8-17.9c0.2,0.2,0.4,0.5,0.6,0.8C6.2-17.4,6-17.7,5.8-17.9z"/>
		<path class="st12" d="M-116.5-17.6c0.1-0.4,0.2-0.7,0.4-1C-116.2-18.3-116.3-18-116.5-17.6z"/>
		<path class="st12" d="M83.4,35.4c0-0.3,0-0.5,0-0.8c-0.1,0.2-0.2,0.4-0.2,0.6C83.1,35.2,83.3,35.3,83.4,35.4z"/>
		<path class="st12" d="M102.6-20.2c0.2,0.3,0.3,0.5,0.5,0.8C102.9-19.6,102.7-19.9,102.6-20.2z"/>
		<path class="st12" d="M-114,39.1c0.1-0.4,0-0.7-0.4-0.7C-114.3,38.6-114.1,38.9-114,39.1z"/>
		<path class="st12" d="M-115.6-22.1c0.1-0.4,0.3-0.8,0.4-1.1C-115.3-22.8-115.5-22.4-115.6-22.1z"/>
		<path class="st12" d="M-102.2-5.7c0.1-0.3,0.2-0.7,0.3-1C-102-6.3-102.1-6-102.2-5.7z"/>
		<path class="st11" d="M116.7,10.6c0,0.2,0,0.5-0.1,0.8c0.1-0.2,0.2-0.3,0.3-0.5C116.9,10.8,116.8,10.7,116.7,10.6z"/>
		<path class="st12" d="M79,3.1c-0.2-0.3-0.5-0.5-0.7-0.8C78.6,2.5,78.8,2.8,79,3.1z"/>
		<path class="st10" d="M-108.4,61.8c-0.1-0.1-0.3-0.2-0.5-0.3C-108.9,61.9-108.7,62.1-108.4,61.8z"/>
		<path class="st5" d="M23.6-72.7c-0.6,0.2-0.6,0.5,0,0.8C23.6-72.2,23.6-72.4,23.6-72.7z"/>
		<path class="st12" d="M-112.4,45.1c-0.1-0.3-0.3-0.6-0.4-0.9C-112.7,44.5-112.6,44.8-112.4,45.1z"/>
		<path class="st10" d="M-92.6,69c0.2,0.2,0.3,0.5,0.4,0.8C-92.4,69.6-92.5,69.3-92.6,69z"/>
		<path class="st6" d="M-74.6-14.9c0.2,0,0.4,0,0.7,0c-0.1-0.2-0.2-0.4-0.4-0.6C-74.4-15.3-74.5-15.1-74.6-14.9z"/>
		<path class="st12" d="M93.2-26.1c0-0.3-0.1-0.5-0.1-0.8c-0.1,0.2-0.1,0.4-0.2,0.6C92.9-26.3,93.1-26.2,93.2-26.1z"/>
		<path class="st11" d="M-32-27.9c-0.1,0.3-0.2,0.6-0.4,0.9C-32.3-27.3-32.1-27.6-32-27.9z"/>
		<path class="st11" d="M24,105c-0.1-0.3-0.2-0.7-0.3-1C23.8,104.3,23.9,104.7,24,105z"/>
		<path class="st12" d="M-94.2,11.3c-0.2,0.3-0.3,0.5-0.5,0.8C-94.5,11.9-94.3,11.6-94.2,11.3z"/>
		<path class="st12" d="M-128.4,9c0.1,0.3,0.3,0.6,0.4,1C-128.2,9.7-128.3,9.4-128.4,9z"/>
		<path class="st12" d="M-118.4,0.1c0-0.3,0-0.5,0-0.8c-0.1,0.2-0.2,0.4-0.2,0.6C-118.6-0.1-118.5,0-118.4,0.1z"/>
		<path class="st12" d="M-16.2-29.9c0.2,0.3,0.4,0.6,0.6,0.9C-15.7-29.3-15.9-29.6-16.2-29.9z"/>
		<path class="st11" d="M26-20.9c0,0.2,0.1,0.5,0.1,0.7c0-0.2,0.1-0.4,0.1-0.5S26.1-20.9,26-20.9z"/>
		<path class="st7" d="M152.6-31.4c-6.8-0.4-6.9-0.3-5.9,6.1c2.5,15.4,5,30.7,7.6,46c0.2,1.1,0.6,2.1,1.3,3.2
			c1.9-5.6,2.5-11.4,3.5-17.2C156.8-6,154.7-18.7,152.6-31.4z"/>
		<path class="st10" d="M-94.8,79.5c2.4,4.1,5.1,7.9,9.1,10.6c-0.9-3.3-3.4-5.6-4.8-8.7c-1-2.3-2.4-4.6-2.9-7.1
			c-1.3,0.9-0.7,2.1-0.3,3.2C-93.3,78.7-93.6,79.4-94.8,79.5z"/>
		<path class="st10" d="M-92.9,72.7c0.6-0.3,0.8-0.8,0.7-1.5C-92.8,71.5-93.8,71.7-92.9,72.7z"/>
		<path class="st13" d="M-7.1-107.2c-10.3,0-18,7.3-18,16.9c0,8.5,6.8,15.9,15,15.3C1.2-75.9,8.7-82.4,9.1-92.7
			C9.5-100.1,1.6-108.2-7.1-107.2z"/>
		<path class="st3" d="M19.1-107.2c-0.1,0.7,0,1.2,0.6,1.6l0.3-0.2C19.9-106.4,19.7-106.9,19.1-107.2L19.1-107.2z"/>
		<path class="st3" d="M19.1-107.1c-0.1-0.2-0.2-0.4-0.3-0.5C18.4-107.1,18.7-107.1,19.1-107.1C19.1-107.2,19.1-107.1,19.1-107.1z"
			/>
		<path class="st3" d="M-34.9,52.6c0-0.1-0.1-0.2-0.2-0.3C-35,52.4-35,52.5-34.9,52.6L-34.9,52.6z"/>
		<path class="st10" d="M-85.5,90.3c0.2,0.2,0.3,0.4,0.5,0.6C-85.1,90.7-85.3,90.5-85.5,90.3z"/>
		<path class="st11" d="M26.6,107.3c1.9-0.7,4.1,0.9,6.2-0.5c-1.2-1.9-2.9-3.5-4.9-3.4C25.6,103.6,27.3,106,26.6,107.3L26.6,107.3z"
			/>
		<path class="st7" d="M61.6-7.2c-0.4-0.1-0.8-0.1-1.2-0.2c0,0.6,0.1,1.2,0.8,1.2C61.7-6.2,61.8-6.7,61.6-7.2z"/>
	</g>
</symbol>
<g>
	<rect x="57" y="13.1" class="st14" width="1306.2" height="560.2"/>
	<g>
		<defs>
			<rect id="SVGID_1_" x="57" y="17.9" width="1306.2" height="560.2"/>
		</defs>
		<clipPath id="SVGID_00000061462461722416056810000017649113255537976208_">
			<use xlink:href="#SVGID_1_"  style="overflow:visible;"/>
		</clipPath>
		
			<g transform="matrix(1 0 0 1 0 3.051758e-05)" style="clip-path:url(#SVGID_00000061462461722416056810000017649113255537976208_);">
			
				<use xlink:href="#lemax"  width="600.4" height="244.7" id="XMLID_00000045611833981411268200000002509128225449892264_" x="-300.2" y="-122.4" transform="matrix(2.1752 0 0 -2.2903 710.0386 303.1125)" style="overflow:visible;"/>
		</g>
	</g>
</g>
</svg>
