<?xml version="1.0" encoding="utf-8"?>
<!-- Generator: Adobe Illustrator 26.3.1, SVG Export Plug-In . SVG Version: 6.00 Build 0)  -->
<svg version="1.1" id="Capa_1" xmlns="http://www.w3.org/2000/svg" xmlns:xlink="http://www.w3.org/1999/xlink" x="0px" y="0px"
	 viewBox="0 0 1920 1080" style="enable-background:new 0 0 1920 1080;" xml:space="preserve">
<style type="text/css">
	.st0{fill:#FEFEFE;}
	.st1{fill:#F5D221;}
	.st2{fill:#F4D020;}
	.st3{fill:#F2CF1F;}
	.st4{fill:#949493;}
	.st5{fill:#748494;}
	.st6{fill:#FAFBFC;}
	.st7{fill:#778594;}
	.st8{fill:#C1CBD5;}
	.st9{fill:#949494;}
	.st10{fill:#5E6E84;}
	.st11{fill:#607084;}
	.st12{fill:#F2D121;}
	.st13{fill:#758292;}
	.st14{fill:#F4D123;}
	.st15{fill:#738393;}
	.st16{fill:#FAFBFB;}
	.st17{fill:#BDC8D4;}
	.st18{fill:#768394;}
	.st19{fill:#768696;}
	.st20{fill:#F1D028;}
	.st21{fill:#F2D225;}
	.st22{fill:#B9C6D3;}
	.st23{fill:#788594;}
	.st24{fill:#F0D122;}
	.st25{fill:#738291;}
	.st26{fill:#788998;}
	.st27{fill:#F4F6F2;}
	.st28{fill:#F1F6F2;}
	.st29{fill:#BDC9D6;}
	.st30{fill:#616F84;}
	.st31{fill:#657487;}
	.st32{fill:#F5F7F6;}
	.st33{fill:#F6F6F2;}
	.st34{fill:#758293;}
	.st35{fill:#F5F7EF;}
	.st36{fill:#F1D323;}
	.st37{fill:#FAFAFB;}
	.st38{fill:#F0D028;}
	.st39{fill:#EFD72B;}
	.st40{fill:#F6F7F1;}
	.st41{fill:#788695;}
	.st42{fill:#F6F8F8;}
	.st43{fill:#F3D127;}
	.st44{fill:#6A7789;}
	.st45{fill:#F7F7F2;}
	.st46{fill:#F5D127;}
	.st47{fill:#F7F5ED;}
	.st48{fill:#F4DA32;}
	.st49{fill:#687688;}
	.st50{fill:#EFF3F3;}
	.st51{fill:#EBD234;}
	.st52{fill:#97A4B2;}
	.st53{fill:#708190;}
	.st54{fill:#F1D22D;}
	.st55{fill:#BCC6D0;}
	.st56{fill:#C3CCD6;}
	.st57{fill:#F0D428;}
	.st58{fill:#EAD442;}
	.st59{fill:#C2CCD5;}
	.st60{fill:#637385;}
	.st61{fill:#7C8A97;}
	.st62{fill:#F5D125;}
	.st63{fill:#7E8993;}
	.st64{fill:#E7D13E;}
	.st65{fill:#BFCAD7;}
	.st66{fill:#7C8B9A;}
	.st67{fill:#F1D12A;}
	.st68{fill:#F2CF34;}
	.st69{fill:#EFD22E;}
	.st70{fill:#7C8A9A;}
	.st71{fill:#BECAD7;}
	.st72{fill:#F3CF29;}
	.st73{fill:#F4F7F6;}
	.st74{fill:#788593;}
	.st75{fill:#EAEEED;}
	.st76{fill:#7D8997;}
	.st77{fill:#627389;}
	.st78{fill:#EECF34;}
	.st79{fill:#C7D1DA;}
	.st80{fill:#728293;}
	.st81{fill:#C1CCD6;}
	.st82{fill:#6F7E8F;}
	.st83{fill:#F3D12A;}
	.st84{fill:#919FAD;}
	.st85{fill:#F3F6F8;}
	.st86{fill:#647286;}
	.st87{fill:#F6F9F9;}
	.st88{fill:#F2D837;}
	.st89{fill:#A9B5C2;}
	.st90{fill:#EEF3F4;}
	.st91{fill:#EACD32;}
	.st92{fill:#EDF2F5;}
	.st93{fill:#F4D229;}
	.st94{fill:#C8D1D8;}
	.st95{fill:#687588;}
	.st96{fill:#F0F3F4;}
	.st97{fill:#727F91;}
	.st98{fill:#F1D02B;}
	.st99{fill:#758494;}
	.st100{fill:#F2F5F6;}
	.st101{fill:#F4F0E4;}
	.st102{fill:#818C9B;}
	.st103{fill:#F0D02D;}
	.st104{fill:#F4D625;}
	.st105{fill:#F4F5E3;}
	.st106{fill:#8B98A6;}
	.st107{fill:#ECD132;}
	.st108{fill:#E7ECED;}
	.st109{fill:#C8D1D7;}
	.st110{fill:#F3F0E4;}
	.st111{fill:#F2DA3B;}
	.st112{fill:#8292A1;}
	.st113{fill:#EBDD60;}
	.st114{fill:#EFF2F3;}
	.st115{fill:#798595;}
	.st116{fill:#7C8591;}
	.st117{fill:#F1ECC4;}
	.st118{fill:#E5CF66;}
	.st119{fill:#C5CDD5;}
	.st120{fill:#E6D45B;}
	.st121{fill:#7A8998;}
	.st122{fill:#8A96A1;}
	.st123{fill:#748495;}
	.st124{fill:#E8CF4A;}
	.st125{fill:#F0ECD7;}
	.st126{fill:#A5B0B7;}
	.st127{fill:#C2D2E1;}
	.st128{fill:#DEDFD4;}
	.st129{fill:#F3F0DC;}
	.st130{fill:#EBD13E;}
	.st131{fill:#F0D019;}
	.st132{fill:#DBCF91;}
	.st133{fill:#D4CE8B;}
	.st134{fill:#DED264;}
	.st135{fill:#EEF2F3;}
	.st136{fill:#F1D234;}
	.st137{fill:#E8ECED;}
	.st138{fill:#EAEAEA;}
	.st139{fill:#EFD340;}
	.st140{fill:#C9B440;}
	.st141{fill:#D7D5A5;}
	.st142{fill:#EFF1F3;}
	.st143{fill:#E4D258;}
	.st144{fill:#8C98A3;}
	.st145{fill:#D6DEE2;}
	.st146{fill:#EBD96E;}
	.st147{fill:#EBDE9D;}
	.st148{fill:#DDD481;}
	.st149{fill:#DACF76;}
	.st150{fill:#EACC3C;}
	.st151{fill:#798797;}
	.st152{fill:#D2D4C9;}
	.st153{fill:#9EAAB0;}
	.st154{fill:#EAD849;}
	.st155{fill:#D9DBB1;}
	.st156{fill:#9DA2AB;}
	.st157{fill:#5F6F80;}
	.st158{fill:#D9D17B;}
	.st159{fill:#C7CACF;}
	.st160{fill:#BDC6CC;}
	.st161{fill:#EEE6C0;}
	.st162{fill:#D6D492;}
	.st163{fill:#E2CF6E;}
	.st164{fill:#F1D712;}
	.st165{fill:#F5F2D1;}
	.st166{fill:#B3B8BE;}
	.st167{fill:#C1C4C9;}
	.st168{fill:#D5D6C5;}
	.st169{fill:#CED0AA;}
	.st170{fill:#DADBD4;}
	.st171{fill:#C5CFDC;}
	.st172{fill:#F9FAFA;}
	.st173{fill:#DFD065;}
	.st174{fill:#DFD273;}
	.st175{fill:#CBCED2;}
	.st176{fill:#E8D34D;}
	.st177{fill:#E8E9E6;}
	.st178{fill:#E9DA79;}
	.st179{fill:#FEFEFD;}
	.st180{fill:#EFD029;}
	.st181{fill:#E8D63C;}
	.st182{fill:#607087;}
	.st183{fill:#EDF1F1;}
	.st184{fill:#FCFDFD;}
	.st185{fill:#F8FAFB;}
	.st186{fill:#BCC2CD;}
	.st187{fill:#F7F9F7;}
	.st188{fill:#E9D963;}
	.st189{fill:#F7F5E8;}
	.st190{fill:#E5DD57;}
	.st191{fill:#F9F9F9;}
	.st192{fill:#AFBCC1;}
	.st193{fill:#768189;}
	.st194{fill:#6F7D8E;}
	.st195{fill:#E9D648;}
	.st196{fill:#F6DA1B;}
</style>
<g>
	<path class="st0" d="M761.19,658.62c-111.85,0-223.7-0.01-335.56,0.07c-2.81,0-3.45-0.63-3.45-3.44
		c0.08-107.7,0.08-215.41,0-323.11c0-2.81,0.63-3.44,3.44-3.44c223.7,0.08,447.41,0.08,671.11,0c2.81,0,3.45,0.63,3.45,3.44
		c-0.08,107.7-0.08,215.41,0,323.11c0,2.81-0.63,3.45-3.44,3.44C984.89,658.61,873.04,658.62,761.19,658.62z"/>
	<path class="st1" d="M875.19,562.93c-6.83-0.47-6.87-0.48-5.37-7.39c5.3-24.35,10.64-48.69,15.96-73.04
		c1.62-0.1,0.56,1.28,1.04,1.65c-0.14-1.8-0.56-3.75-0.43-5.74c-0.12-1.03-0.15-2.04,0.7-2.82c3.52-16.07,7.15-32.12,10.48-48.24
		c0.74-3.6,2.42-4.72,5.85-4.64c6.62,0.16,13.24,0.04,19.87,0.05c6.12,0,6.12,0,8.08,5.65c1.21,1.23,1.46,2.85,1.8,4.44
		c8.69,40.23,17.36,80.45,26.09,120.67c2.2,10.15,2.11,10.35-8.32,10.19c-4.82-0.07-9.72,0.86-14.46-0.75
		c-4.16,0.4-5.85-1.47-6.11-5.66c-0.24-3.89-1.33-7.72-2.05-11.58c-1.43-3.73-4.26-4.68-8.03-4.47c-4.47,0.25-8.97,0.04-13.46,0.06
		c-5.43,0.02-5.7,0.28-6.65,5.79c-0.68,3.93-1.18,7.89-2.05,11.79c-0.87,3.89-1.92,4.94-5.88,4.83
		C886.55,563.54,880.8,564.75,875.19,562.93z"/>
	<path class="st1" d="M1012.06,458.76c3.7-10.54,7.49-21.04,11.03-31.63c1.08-3.24,2.85-4.55,6.25-4.44
		c5.84,0.18,11.68,0.04,17.53,0.05c5.66,0.02,5.8,0.21,4.47,5.58c-0.67,5.55-3.45,10.36-5.51,15.4
		c-5.94,14.54-11.66,29.17-17.9,43.59c-1.73,4-1.58,7.48,0.1,11.43c7.94,18.71,15.48,37.58,23.2,56.38
		c3.01,7.32,2.14,8.53-5.71,8.54c-4.12,0.01-8.23,0.01-12.35,0c-1.49,0-3.01,0.09-4.37-0.72c-3.4,0.39-4.76-1.55-5.77-4.49
		c-2.94-8.6-6.12-17.12-9.2-25.67c-2.29-1.92-2.02-5.22-4.03-7.69c-2.79,6.31-4.68,12.6-6.91,18.76c-1.82,5.03-3.81,10-5.36,15.11
		c-1,3.28-3.02,4.99-6.59,4.71c-5.54-0.43-11.15,0.83-16.64-0.76c-7.71-0.49-7.73-0.5-4.74-7.83c7.86-19.25,15.66-38.52,23.69-57.7
		c1.36-3.26,1.3-5.92-0.05-9.15c-8.39-20.11-16.58-40.3-24.83-60.46c-1.74-4.26-1.3-4.96,3.36-5.01c5.49-0.06,11,0.27,16.46-0.1
		c4.71-0.32,8.03,0.78,9.2,5.74c1.38,1.24,1.77,2.97,2.35,4.61c3.29,9.3,6.4,18.66,9.86,27.92
		C1011.06,460.76,1010.88,459,1012.06,458.76z"/>
	<path class="st1" d="M595.71,538.55c11.22,0.04,22.43,0.09,33.65,0.12c5.34,0.02,5.36,0.03,5.91,5.25
		c2.28,5.54,1.47,11.2,0.47,16.81c-0.3,1.67-1.86,2.57-3.59,2.89c-1.48,0.28-2.98,0.25-4.47,0.25c-18.07,0.01-36.15,0.01-54.22,0
		c-1.99,0-4.01,0.16-5.83-0.93c-5.93-0.45-5.93-0.45-5.93-6.54c0-42.68,0-85.35,0-128.03c0-5.39,0.23-5.62,5.73-5.62
		c20.59-0.01,41.19-0.01,61.78,0c5.39,0,5.55,0.17,6.06,5.61c2.18,5.56,1.57,11.26,0.38,16.84c-0.62,2.92-3.55,3.15-6.13,3.16
		c-9.23,0.06-18.47-0.04-27.7,0.04c-12.59,0.1-10.95-1.49-11.08,11.26c-0.05,4.49-0.02,8.98-0.01,13.47
		c0.01,5.49,0.02,5.49,4.98,7.53c5.34,0.06,10.67,0.13,16.01,0.17c5.32,0.03,5.32,0.01,5.67,5.24c2,5.45,1.27,11.04,0.54,16.53
		c-0.37,2.76-3.01,3.38-5.52,3.45c-4.98,0.13-9.96,0.04-14.93,0.06c-6.65,0.03-6.73,0.09-6.75,6.57
		c-0.01,5.97,0.22,11.96-0.08,17.91C590.45,534.68,591.24,537.66,595.71,538.55z"/>
	<path class="st1" d="M510.71,538.56c11.21,0.04,22.43,0.08,33.64,0.11c5.33,0.02,5.33,0.01,5.8,5.22
		c1.68,5.51,0.91,11.11,0.53,16.68c-0.12,1.81-1.58,2.74-3.33,3.07c-1.48,0.28-2.99,0.24-4.48,0.24
		c-18.24,0.01-36.47,0.01-54.71-0.01c-1.98,0-4.03,0.27-5.82-0.94c-5.95-0.42-5.95-0.42-5.95-6.62c0-42.57,0-85.14,0-127.71
		c0-5.51,0.32-5.84,5.97-5.85c5.49-0.02,10.99-0.02,16.48,0c5.4,0.02,5.63,0.25,6.05,5.6c1.5,1.97,1.14,4.28,1.14,6.5
		c0.02,31.95,0.07,63.91-0.06,95.86C505.95,534.59,506.56,537.49,510.71,538.56z"/>
	<path class="st2" d="M675.04,416.01c-8.05,28.25-5.97,56.01,4.04,83.39c4.86,13.28,11.13,25.9,17.89,38.3
		c0.53,0.97,0.93,2.02,1.38,3.04c0.33,0.92,0.31,2.09,1.03,2.72c2.7,2.38,1.06,5.43,1.34,8.15c0.15,1.44-0.73,2.55-2.64,1.94
		c-1.06-0.34-2.1-0.65-3.02-1.3c-2.48,0.06-0.83,1.92-1.26,2.88c0.57,3.4,1.34,6.73,3.02,9.79c0.06,0.49,0.13,0.97,0.19,1.46
		c-4.08-1.45-5.21-5.15-6.55-8.66c-0.21-0.55-0.15-1.2-0.19-1.81c-0.62-0.43,1.59-1.57-0.76-1.92c-2.37-0.35-3.1-3.25-4.48-5.09
		c-0.65-0.87-0.87-2.06-1.91-2.67c-2.27-4.1-4.41-8.26-5.86-12.74c-0.14-1.45-0.67-2.72-1.74-3.74c-0.17-0.5-0.34-0.99-0.52-1.49
		c-0.86-1.98-1.14-4.19-2.28-6.07c-1.68-3.81-3.03-7.73-3.74-11.86c-1.98-7.51-3.25-15.15-4.5-22.8c-0.29-1.75-0.2-3.47-0.27-5.21
		c-0.05-1.16,0.54-2.6-1.2-3.1c-2.11,0.84-1.42,2.85-1.85,4.38c-0.23,0.81-0.38,1.53-1.34,0.63c-0.08-0.07-0.1-0.24-0.09-0.35
		c0.01-0.11,0.11-0.21,0.02-0.04c1.26,3.87-0.69,7.74-0.88,11.76c-0.05,1.19-0.02,2.38,0.04,3.57c0.56,4.49,0.58,8.99,0.17,13.48
		c-0.38,0.65-0.88,0.86-1.45,0.24c-0.71-0.77-0.99-1.79-1-2.76c-0.05-3.69,0.09-7.29-2.83-10.31c-1.01-1.05-0.39-3.1-0.24-4.73
		c0.48-5.05,0.25-10.1-0.22-15.17c-1.66,1.01-1.15,2.54-1.25,3.87c-0.11,1.48,0.11,3-0.43,4.44c-0.17,0.45-0.38,0.96-1.01,0.91
		c-0.59-0.05-0.93-0.56-0.91-1.01c0.27-6.11-1.88-12.23,0.67-18.41c0.93-2.25-0.57-5.3,0.28-7.97c0.18-0.56-0.12-1.26,0.71-1.86
		c2.47,1.97-0.13,5.72,2.52,7.29c-0.06-0.77-1.45-1.32-1.2-2.23c1.35-4.79-1.14-9.61,0.22-14.38c0.21-0.75,0.38-1.46,1.06-1.88
		c3.82-2.35,3.86-6.05,3.27-9.79c-0.28-1.74,0.49-2.74,1.4-3.86c-3.55-2.52-3.2-5.64-1.42-8.98c3.26-2.17,4.53-6.07,7.42-8.56
		c1.32-0.58,1.63-1.95,2.32-3.03c0.21-0.27,0.47-0.48,0.77-0.65c1.89,0.86,3.21-1.3,5.01-0.94c0.85,0.57,1.39,1.42,2.01,2.21
		C674.94,415.37,675.03,415.68,675.04,416.01z"/>
	<path class="st2" d="M859.39,492.22c-0.2-0.75-0.39-1.51-0.59-2.26c-0.85-1.98-0.18-4.06-0.42-6.08c-0.08-0.69,0.4-1.95-1.18-1.5
		l0.01,0.02c-0.89,1.42,0.27,3.17-0.75,4.57c-1.57,5.68-1.49,11.7-3.62,17.26c-1.67-0.26-1.5-1.82-2.05-2.89
		c0.32-1.83,0.51-3.56,0.03-5.49c-0.88-3.56,1.22-6.73,2.11-10.04c0.46-1.72,1.11-3.26,0.23-5.02c-0.47-0.92-0.39-1.95-0.04-2.92
		c0.86-2.39-0.07-4.49-0.45-6.8c-0.51-3.09-2.89-7.12,0.91-10.3c0.72-0.6-0.89-2.17-1.37-3.32c-0.38-0.94-0.45-1.94-0.42-2.93
		c0.18-7.22-2.24-14.14-2.35-21.33c-0.01-0.39-0.2-0.7-0.49-0.95l0.03,0.03c-0.09-3.16-0.66-6.27-0.3-9.48
		c0.62-5.45,0.45-5.47,5.97-5.39c0.55,0.17,0.99,0.5,1.35,0.95c0.77,1.96,1.2,3.8-1.71,4.77c3.54-0.98,5.25,1.41,7.01,3.73
		c0.5,1.55,0.76,3.31,0.34,4.72c-0.98,3.28,0.49,5.42,2.59,7.47c-0.34,4.88,2.64,8.86,3.62,13.39l-0.02-0.03
		c-0.29,2.68,0.39,5.16,1.5,7.56c2.44,10.79,2.63,21.73,1.85,32.69c-0.62,8.72-2.18,17.29-5.38,25.48
		c-0.45,1.15-1.08,2.22-1.62,3.33c-0.8,1.48-1.68,2.16-2.79,0.27c-0.78-1.33-0.96-2.77-0.98-4.31c-0.09-8.09-0.18-16.18-0.5-24.26
		C859.87,492.74,859.65,492.48,859.39,492.22z"/>
	<path class="st3" d="M852.76,457.71c2.27,0.68,1.64,2.7,1.89,4.28c0.05,0.3-0.53,0.7-0.81,1.05c-0.23-0.51-0.46-1.03-0.78-1.73
		c-1.09,3.17,1.1,6.23-0.27,9.17c2.02,0.01,1.3,1.77,1.74,2.77c0.71,1.58,0.71,3.11-0.41,4.58c-0.34,0.45-0.71,1.36-0.49,1.7
		c3.12,4.93-1.28,8.7-2,13.02c-0.17,0.99-0.66,2.09-0.12,2.87c1.62,2.32,0.76,4.4-0.24,6.54c0.49,2.55,0.93,5-0.62,7.48
		c-1.39,2.22-0.29,5.14-1.64,7.46c-0.84,0.58-0.51,1.51-0.7,2.29c-1.58,1.17-0.6,3.17-1.49,4.57l0.03,0.02
		c-2.62,0.48-0.72,2.7-1.49,3.89c-0.14,1.31-0.57,2.52-1.38,3.57c-2.89,1.36-3.29,3.91-3.22,6.7c-0.76,0.57-0.5,1.49-0.78,2.23
		c-1.49-0.66-0.7,4.41-3.22,1.27c0.14,1.18,2.03,1.81,1.06,3.31l0.02,0.01c-1.83,1-3.35,1.79-3.1,4.67c0.1,1.11-2.06,3.03-2.13,5.08
		l0.01-0.03c-0.98,0.84-2.57,0.18-3.45,1.77c-0.5,0.9-2.26,0.66-3.31-0.33c0.13-0.27,0.26-0.55,0.39-0.82
		c1.63-0.99,0.91-2.84,1.65-4.22c-1.07-0.15-1.43,0.8-2.14,1.11c-0.11,0.19-0.28,0.29-0.5,0.29c-0.73,0.45-1.38,0.37-1.95-0.28
		c-0.64-2.02,1.17-5.32-3.02-5.54c-0.91-0.05-0.75-1.22-0.26-1.82c0.74-0.9,1.11-1.88,1.2-3.01c4.71-9.85,10.23-19.31,14.47-29.39
		c0.52-1.25,1.17-2.44,1.76-3.66c1.33-0.75,1.93,0.04,2.37,1.17c-1.58-3.99,0.82-7.37,1.59-11c1.53-4.93,3.06-9.86,4.59-14.79
		c1.27-4.29,2.69-8.54,2.7-13.08c0.15-0.32,0.4-0.52,0.73-0.63c2.01-1.87,0.22-4.47,1.22-6.53c0.39-1.19,0.42-2.45,0.75-3.65
		C851.7,459.17,851.95,458.28,852.76,457.71z"/>
	<path class="st4" d="M1028.81,562.94c6.48-0.07,12.96-0.12,19.44-0.2c4.13-0.05,4.65-0.83,3.06-4.72
		c-8.38-20.52-16.74-41.04-25.21-61.52c-1.03-2.49-1.08-4.61-0.04-7.13c8.07-19.57,16.02-39.18,24.03-58.78
		c0.32-0.79,0.84-1.51,1.26-2.26c6.96,0.1,8.43-1.21,4.83,7.44c-8.15,19.53-16,39.2-24.08,58.76c-1.09,2.64-1.01,4.87,0.07,7.48
		c8.36,20.26,16.6,40.57,24.86,60.86c1.93,4.75,1.69,5.13-3.27,5.14c-5.99,0.01-11.99-0.28-17.96,0.1
		C1031.65,568.36,1029.39,567.02,1028.81,562.94z"/>
	<path class="st5" d="M734.24,576.17c-1.32-7.45,0.14-14.34,4.31-20.62c1.57-2.37,3.09-4.81,5.33-6.66
		c0.51,0.13,0.97,0.43,1.07,0.93c0.57,2.95,2.49,4.18,5.3,2.9c3.99-1.82,7.4-2.1,9.92,2.25c0.42,0.72,1.31,0.61,2.02,0.76
		c3.14,0.67,6.4,0.68,9.43,2.06c2.43,1.1,3.62-1.77,5.64-2.18c4.62,1.25,6.9,5.02,9.25,8.66c3.35,5.18,4.89,10.81,3.87,17
		c-0.29,0.76-0.7,1.44-1.49,1.79c-2.51-1.4-1.33-3.62-1.36-5.57c-1,2.41-2.13,4.85-2.03,7.65c0.06,1.71-0.67,3.08-1.8,4.35
		c-1.15,1.3-2.65,2.43-3.27,4.04c-1.04,2.69-2.64,4.12-5.63,3.65c-0.36-0.06-0.8-0.03-1.08,0.2c-6.71,5.57-13.91,4.47-21.26,1.63
		c-0.29-1.88-0.41-3.51-3.12-3.94c-1.83-0.29-2.54-2.3-0.85-4.1c3.18,0.42,5.97,2.15,9.18,2.63c8,1.19,15.98-4.8,16.87-12.94
		c0.05-7.7-3.63-13.1-10.95-16.06c-7.62-3.08-13.06-2.02-18.24,3.59c-0.95,0.73-1.26,2.53-3.06,1.84c-1.37-1.9-0.06-4.44-1.49-6.58
		c-2.86,1.91-3.69,4.58-4.07,7.64C736.48,572.99,737.09,575.49,734.24,576.17z"/>
	<path class="st5" d="M840.59,409.03c-0.75-0.88-1.16-2.14-2.96-2.58c0.94,6.5,1.89,12.7,2.73,18.93c2.5,18.66,1,37.01-4.35,55.05
		c-0.27,0.9-0.28,2.02-1.27,2.59c-1.97-0.11-1.63,2.29-3.03,2.8c-1.47,0.64-3.04,0.85-4.57,0.6c-1.71-0.29-2.41,0.64-2.95,1.95
		c-0.3,0.6-0.61,1.21-0.92,1.81c-0.83,1.49-1.53,3.04-2.27,4.57c-1.44,2.24-2.5,4.75-4.39,6.67c-0.97,0.98-1.77,2.43-3.57,2.01
		c2.45-6.26,4.9-12.52,7.35-18.79c1.62-3,3.23-6.01,3.88-9.42c1.71-4.19,2.92-8.52,3.74-12.97c2.52-11.73,3.91-23.56,3.41-35.58
		c-0.03-0.74,0.11-1.51-0.48-2.11c-2.37-2.68,0.33-5.35-0.1-7.97c-1.66,1.26-1.85,4.14-4.45,4.7c-2.47-1.86-1.24-4.52-0.34-6.04
		c2.09-3.5,3.21-7.51,6-10.68c2.02-2.3,4.11-4.2,7.05-5.09c1.47,0.24,1.33,1.53,1.73,2.54c0.82,2.1,1.3,4.41,3.45,5.78
		c1.08,0.69,1.22,1.96,0.51,2.97c-0.83,1.19-1.71,0.26-2.53-0.26C841.6,410.11,841.2,409.46,840.59,409.03z"/>
	<path class="st4" d="M936.47,562.95c6.23-0.07,12.46-0.14,18.69-0.2c4.77-0.04,4.93-0.17,3.92-4.89
		c-6.05-28.08-12.13-56.15-18.21-84.22c-3.11-14.34-6.23-28.67-9.33-43.02c-0.16-0.72-0.12-1.49-0.17-2.23
		c3.44-0.56,4.75,1.07,5.46,4.38c9.35,43.7,18.8,87.39,28.35,131.05c0.78,3.58-0.23,4.35-3.59,4.25c-6.48-0.2-12.99-0.31-19.47,0.03
		C938.07,568.31,936.3,566.92,936.47,562.95z"/>
	<path class="st6" d="M738.78,373.74c1-0.5,2-1,3-1.49c2.61-0.3,4.96-1.51,7.35-2.42c9.45-3.63,19.13-5.23,29.21-3.92
		c2.96,0.38,5.81,1.3,8.69,2.03c3.68,0.93,3.85,1.55,2.74,5.06c-0.5,1.02-1.24,1.8-2.3,2.24c-2.65,0.45-4.56,2.67-7.28,3
		c-1.44,0.17-2.83,0.82-4.33,0.38c-2.25-0.72-4.9-0.31-6.64-2.42c0.71-1.76,1.16-2.93-1.76-3.06c-5.57-0.25-11.03,0.51-16.28,1.95
		c-3.65,1-8.24,4.48-7.69,9.84c0.31,3.06-0.62,5.58-3.14,7.57c-2.07,1.64-1.84,3.62-0.18,5.55c1.28,1.49,3.37,2.79,2.99,4.96
		c-0.66,3.75-0.03,7.84-2.62,11.14c-1.35,1.72-2.23,3.61-2.21,5.84c0.01,0.62-0.02,1.37,0.58,1.69c0.77,0.41,1.4-0.16,1.98-0.65
		c1.03-0.86,1.27-2.1,1.65-3.29c0.69-2.18,2.63-2.65,4.46-2.81c2.02-0.18,2.11,1.67,2.56,3.09c1.35,4.3,1.18,6.64-0.87,10.57
		c-0.53,1.01-0.66,2.15-1.05,3.19c-1.19,1.21-1.85,2.56-1.14,4.29c-0.58,1.2-1.36,2.16-2.78,2.39c-0.83-0.27-1.08-0.96-1.25-1.7
		c-0.11-0.61-0.16-1.24-0.06-1.85c0.76-4.65,1.67-9.27,2.39-13.59c-3.18,4.84-7.23,9.33-11.66,13.48c-0.83,0.77-1.85,1.36-2.95,0.29
		c-0.76-1.8,0.15-3.51,0.25-5.27c0.81-4.11,0.47-8.34,1.47-12.43c0.35-1.43,0.57-2.9,1.34-4.19c2.89-2.73,5.84-5.43,5.06-10.01
		c-0.08-0.3-0.18-0.6-0.31-0.87c-1.73-1.33-5.39,0.07-5.37-3.76c-0.05-0.52-0.05-1.04-0.01-1.56c0.03-1.28,0.66-2.31,1.35-3.32
		c-0.59-1.89-0.64-3.48,1.03-5.12c1.47-1.44,2.44-3.43,3.62-5.19c0.43-0.64,0.6-1.35-0.6-1.36c-1.9-1.78-5.19-0.43-6.75-2.99
		c-0.29-2.18,1.82-1.86,2.83-2.67C735.51,375.2,737.55,375.19,738.78,373.74z"/>
	<path class="st7" d="M689.79,496.01c-9.87-23.25-13.3-47.36-9.77-72.41c0.28-1.96-0.07-4.02,0.91-5.87
		c2.08,2.4,0.61,5.17,0.81,7.77c3.94-1.22,4.81-0.74,5.65,3.11c0.3-1.97-1.8-4.74,1.87-5.58c0.75,0.46,1.19,1.05,0.8,1.98
		c-2.07,1.96-1.14,4.49-1.11,6.73c0.18,12.85,1.56,25.56,5.01,38c1.4,5.04,3.16,9.96,4.8,14.92c0.51,1.66,1.81,3.12,1.3,5.05
		c-0.44,0.56-0.98,0.45-1.54,0.24c-0.33-0.17-0.62-0.4-0.88-0.65c-0.93-0.94-0.86-2.31-1.42-3.22c0.1,0.31-0.18-0.35-0.16-0.31
		c1.75,3.63,0.52,5.97-3.09,7.32c-0.45,0.12-0.9,0.23-1.35,0.35c0.36,1.02,0.63,2.16-0.06,3.02
		C691.01,497.17,690.36,496.31,689.79,496.01z"/>
	<path class="st8" d="M768.69,439.74c-1.35-1.18-2.12-0.2-2.89,0.77c-0.7-1.59-0.48-3.41-1.24-4.98c0.71-3.81-0.59-7.9,1.82-11.49
		c0.7-1.05-0.49-2-0.95-2.98c-1.01-2.13-1.09-4.02,1.88-4.59c-0.18,0.83-0.36,1.65-0.61,2.77c3.2-0.58,4.82-3.16,7.11-4.65
		c2.39-1.55,3.32-1.27,3.25,1.68c-0.08,3.42-0.02,6.84,0.43,10.33c2.66-2.89,3.93-6.33,5.4-9.67c0.38-0.87,0.55-2.18,1.61-2.34
		c1.29-0.19,1.85,1.04,2.38,2.03c2.88,5.36,6.5,10.34,8.18,16.31c0.45,1.27,1.04,2.5,1.43,3.79c0.82,2.69-0.36,4.1-3.13,3.58
		c-2.92-0.54-5.6-1.82-8.27-3.11c-0.83-0.4-1.79-1.35-2.69-0.5c-0.87,0.83-0.67,2-0.11,3.04c1.71,3.76,2.45,7.82,3.51,11.77
		c0.33,1.21,0.58,2.88-1.66,1.87c-5.27-2.39-10.01-5.49-13.14-10.57C770.39,441.65,769.51,440.71,768.69,439.74z"/>
	<path class="st9" d="M510.71,538.56c-1.12,0.04-2.25,0.02-3.36,0.12c-1.94,0.18-2.61-0.65-2.61-2.59
		c0.08-35.92,0.11-71.83,0.15-107.75c5.75,0.09,5.83,0.16,5.83,5.94C510.71,469.05,510.71,503.8,510.71,538.56z"/>
	<path class="st4" d="M595.72,480.67c-6.03,0.51-6.03,0.51-6.03-5.49c0-8.1,0.11-16.2-0.06-24.3c-0.06-3,0.99-3.83,3.9-3.8
		c12.34,0.13,24.68-0.04,37.01,0.12c3.52,0.05,4.66-1.41,4.63-4.63c-0.04-4.73,0.06-9.47,0.1-14.2c1.78,0.12,3.66-0.37,5.25,0.86
		c0.86,4.76,0.16,9.56,0.39,14.33c0.09,1.96-0.17,3.92,0.33,5.88c0.32,1.28-0.13,2.46-1.6,2.91c-13.33,0.04-26.66,0.16-39.99,0.05
		c-3.07-0.03-4.13,0.84-4.05,3.99C595.82,464.47,595.71,472.57,595.72,480.67z"/>
	<path class="st4" d="M482.34,562.94c16.97-0.06,33.95-0.13,50.92-0.19c4.37-0.02,8.74-0.07,13.11,0.02
		c2.55,0.06,3.6-0.98,3.59-3.54c-0.03-5.11,0.12-10.22,0.19-15.33c5.75,0.09,5.75,0.09,5.76,5.89c0,4.75-0.1,9.5,0.04,14.24
		c0.08,2.79-0.74,4.05-3.81,4.04c-21.99-0.1-43.97-0.13-65.96,0.02C481.99,568.1,482.29,565.63,482.34,562.94z"/>
	<path class="st4" d="M567.63,562.94c15.6-0.07,31.2-0.14,46.8-0.2c5.37-0.02,10.74-0.16,16.1,0.05c3.52,0.14,4.68-1.43,4.65-4.65
		c-0.04-4.74,0.05-9.48,0.09-14.22c5.37,0.01,5.77,0.38,5.82,5.65c0.04,4.37,0.03,8.74,0,13.1c-0.03,5.14-0.23,5.32-5.21,5.32
		c-20.97,0-41.94,0-62.91,0C567.81,568,567.81,568,567.63,562.94z"/>
	<path class="st4" d="M595.71,538.55c-6.02,0.32-6.02,0.32-6.02-5.51c0-7.96,0.13-15.93-0.06-23.89c-0.08-3.19,0.76-4.43,4.16-4.29
		c6.21,0.26,12.45-0.06,18.66,0.12c3.51,0.1,5.01-1.12,4.88-4.74c-0.16-4.72,0.03-9.45,0.08-14.18c5.77,0.1,5.84,0.16,5.84,5.91
		c0,4.6-0.09,9.21,0.03,13.81c0.09,3.17-1.15,4.51-4.4,4.44c-6.59-0.14-13.19,0.06-19.78-0.09c-2.59-0.06-3.51,0.8-3.47,3.41
		C595.76,521.88,595.7,530.22,595.71,538.55z"/>
	<path class="st10" d="M822.79,439.01c-9.69,18.66-23.85,32.38-43.96,39.53c5.41-5.67,10.64-11.46,15.98-17.16
		c2.87-3.19,6.87-5.18,9.31-8.82c6.81-8.07,12.75-16.72,17.92-25.93c0.93-1.66,1.53-3.72,3.62-4.51c1.44,0.97,5.06-0.56,3.89,3.4
		l0.02-0.03c-1.59,1.72-2.22,3.92-3.01,6.04l0.02-0.04C824.77,433.72,823.8,436.38,822.79,439.01z"/>
	<path class="st11" d="M727.81,464.34c4.71,4.94,9.43,9.87,13.85,14.49c-14.62-1.11-41.52-27.8-49.4-49.53
		c-0.11-1.36-1.95-2.69-0.49-4.02c1.35-1.22,3.06-0.33,4.6-0.01c0.38,0.1,0.73,0.25,1.06,0.45c0.93,0.67,1.52,1.64,2.05,2.62
		c5.28,9.79,11.81,18.71,18.95,27.21C721.37,458.7,724.85,461.25,727.81,464.34z"/>
	<path class="st4" d="M974.31,562.92c5.36-0.06,10.74-0.41,16.08-0.08c3.77,0.23,5.24-1.34,6.37-4.64
		c3.78-11.08,7.83-22.07,11.79-33.09c0.32-0.9,0.74-1.77,1.35-3.22c1.8,3.85,3.12,7.27,3.94,10.88
		c-3.7,10.16-7.56,20.27-11.03,30.51c-1.18,3.49-2.75,5.01-6.59,4.8c-5.97-0.34-11.97-0.09-17.96-0.09
		C972.86,568,972.86,568,974.31,562.92z"/>
	<path class="st4" d="M875.19,562.93c5.84-0.06,11.68-0.24,17.52-0.14c2.8,0.05,3.95-0.96,4.33-3.77c0.72-5.4,1.91-10.74,2.71-16.13
		c0.31-2.07,1.27-2.68,3.21-2.66c7.21,0.06,14.43,0.08,21.64,0c4.16-0.05,3.37,3.05,3.71,5.47c-6.12-0.02-12.24,0.09-18.35-0.13
		c-3.02-0.11-4.2,1.11-4.59,3.95c-0.67,4.93-1.75,9.82-2.34,14.76c-0.34,2.8-1.41,3.85-4.28,3.77c-6.36-0.18-12.74-0.05-19.11-0.06
		C874.32,568,874.32,568,875.19,562.93z"/>
	<path class="st12" d="M659.3,435.22c0.58,0.27,1.18,0.61,1.19,1.29c0.01,0.81-0.52,0.6-1.03,0.38c-2.72-1.2-1.78,1.11-1.31,1.7
		c2.71,3.39-1.64,6.21-0.62,9.41c0.03,0.1-0.32,0.34-0.51,0.48c-4.06,2.99-4.21,3.26-4.33,7.67c1.04,0,0.51-1.65,1.96-1.49
		c-0.28,4.74-0.57,9.52-0.86,14.4c-1.39-2.64-2.47-5.26-2.23-8.29c-0.6,2.43-1.34,4.72-0.02,7.26c0.92,1.77,0.29,2.55-1.47,3.17
		c-1.03,0.36-0.5,1.27-0.49,1.88c0.06,5.08,1.37,10.08,0.54,15.22c0.31,0,0.62-0.01,0.94-0.01c0-2.6,0.01-5.2,0-7.8
		c-0.01-1.35,0.11-2.53,1.92-2.51c1.85,0.03,1.89,1.3,1.82,2.6c-0.29,5.34,0.5,10.68-0.47,16.04c-0.32,1.75-0.41,4.15,2.26,5.19
		c2,0.78,1.43,2.89,1.07,4.29c-0.66,2.57-0.12,4.82,0.9,7.08c2.53,3.37,2.01,7.64,3.34,11.37c0.15,0.43,0.04,0.97,0.38,1.37
		c-0.01,0.26-0.02,0.51-0.03,0.77c-1.06,1.38,0.16,3.52-1.54,4.69c-6.53-11.42-10.53-23.7-11.73-36.78
		c-1.84-20.05,1.33-39.53,7.27-58.64c0.67-0.4,0.26-1.36,0.9-1.77C658.2,433.82,658.78,434.45,659.3,435.22z"/>
	<path class="st13" d="M825.76,422.46c-5.5,8.87-10.67,17.96-17.2,26.16c-1.24,1.55-2.54,3.06-3.81,4.59
		c-1.43,0.85-2.84,1.77-4.63,1.47c6.77-10.13,13.32-20.4,18.5-31.47c5.02-10.74,9.31-21.71,10.98-33.53
		c0.43-1.66,1.17-3.11,2.88-1.23c2.47,2.73,5.62,4.89,7.26,8.36c0.2,0.54,0.29,1.1,0.26,1.68c-0.06,0.59-0.3,1.09-0.73,1.5
		c-3.62,1.62-6.65,4.37-8.17,7.71c-1.91,4.22-6.15,7.83-4.59,13.28C826.93,421.8,826.33,422.13,825.76,422.46z"/>
	<path class="st14" d="M813.74,403.72c-2.41-9.91-7.73-13.38-17.19-11.21c-0.25,0.28-0.52,0.55-0.75,0.83
		c0.99,1.24,2.6,0.66,3.77,1.33l0.05-0.02c0.38,1.47-1.15,0.94-1.61,1.53c-3.46,1.03-6.92,2.07-10.38,3.1
		c-1.02,0.44-1.79,0.44-1.74-0.99c1.9-4.57,3.86-9.11,4.69-14.04c1.02-1.04-0.91-4.13,2.46-3.53c1.64,2.66,3.06,2.31,4.29-0.31
		c-0.18-1.02-2.11-0.89-1.56-2.38c0.29-0.23,0.6-0.4,0.94-0.52c1.75-0.4,3.53-0.22,5.29-0.3c9.66,1.12,14.7,6.57,15.05,16.28
		c0.12,3.5,0.02,6.97-1.58,10.21C814.9,404.16,814.32,404.21,813.74,403.72z"/>
	<path class="st15" d="M689.3,423.22c-3.03,1.92-0.56,5.14-1.83,7.47c-0.87-0.88-0.18-2.1-0.58-3.1c-0.89-2.2-2.91-2.61-4.34-0.79
		c-0.44,0.56-0.59,1.52-1.55,0.98c-0.72-0.4-0.84-1.29-0.6-1.99c0.93-2.65,0.67-5.36,0.54-8.06c0.31-2.65,0.63-5.29,0.94-7.94
		c0.17-0.95,1.13-2.19-0.85-2.35c-1.99,2.85-3.99,5.71-5.98,8.56c-0.23-0.11-0.45-0.21-0.68-0.32c-1.07-2.14-2.39-4.25-1.04-6.76
		c0.13-0.33,0.29-0.65,0.46-0.95c0.88-1.46,1.56-3.03,2.31-4.56c1.36-2.43,3.1-4.61,4.36-7.1c1.63-2.3,3.73-4.2,5.43-6.45
		c0.87-1.14,1.94-2.55,3.57-2.15c1.78,0.44,0.46,2.43,1.25,3.48c0.04,0.91,0.08,1.82,0.11,2.73c0.74,4.85,0.19,9.79,1.17,14.64
		c0.44,2.19-2.49,3.69-2.05,6.14C689.96,417.56,691.21,420.51,689.3,423.22z"/>
	<path class="st16" d="M789.69,581.22c0.37-10.71-3.41-19.34-12.68-25.2c-1.16,0.34-2.24,0.1-3.25-0.48
		c-7.08-4.05-14.94-5.51-22.83-6.87c-0.86-0.15-1.74-0.23-2.46-0.81c-0.36-0.58-0.38-1.15,0.06-1.69l-0.01,0.01
		c4.22-2.14,8.77-1.88,13.3-1.89c1.56,0,3.18,0.43,4.69-0.36c0.83,0.02,1.71-0.14,2.26,0.73c1.67,1.01,3.66,1.18,5.39,2.04
		c6.52,2.39,11.07,7.29,15.6,12.22c0,0.24,0,0.48-0.01,0.72c0.91,1.15,1.47,2.5,2.11,3.79c0.76,1.52,1.01,3.21,1.59,4.79
		c0.64,2.08,0.83,4.23,1.04,6.38c0.02,1,0.01,2-0.07,2.99c-0.59,3.07-1.37,6.08-2.56,8.98c-0.57,1.4-1.28,2.73-2.85,3.29
		c-1.03-0.04-1.33-0.78-1.56-1.61c-0.2-1.24,0.01-2.4,0.63-3.49C789.05,583.77,789.44,582.52,789.69,581.22z"/>
	<path class="st17" d="M743.95,438.17c0.77-0.75,1.53-1.51,2.3-2.26c0.36-0.83,0.79-1.62,1.44-2.27c1.34-1.3,2.29-2.94,3.63-4.23
		c1.54-1.48,2.85-1.59,3.3,0.92c0.33,1.83,0.72,3.65,1.24,5.44c0.79,3.44,2.89,6.44,3.44,9.97c0,0.36-0.13,0.67-0.38,0.93
		c-2.38,0.18-3.63-1.21-4.46-3.19c-1.37-1.14-1.25-3.03-2.22-4.37c-4.19,2.21-9.35,3.24-10.65,8.92c-0.28,1.22-1,2.24-2.05,2.97
		c-1.27,1.63-3.36,3.22-4.89,2.37c-1.49-0.82-0.22-3.3,0.15-5.02c0.65-3.01,1.19-6.05,2.04-9.01c0.92-3.2-0.41-2.91-2.49-1.85
		c-1.77,0.74-3.94,0.53-5.29,2.25l0-0.01c-1.58,0.49-3.21,0.58-4.85,0.48c-1.5-1.37-1.37-2.69,0.56-3.19c2-0.52,3.7-1.92,5.84-1.92
		c4.86-2.51,7.51-7.25,11.06-11.07c1.55-1.67,2.7-3.71,4.57-6.36c-1.1,6.96-2.05,12.97-3,18.98
		C742.85,437.45,742.49,438.23,743.95,438.17z"/>
	<path class="st18" d="M734.24,576.17c1.4-1.59,1.67-3.53,1.53-5.53c-0.21-3.09,1.72-5.28,3.16-7.66c0.54-0.89,1.55-1.24,2.62-0.91
		c1.09,0.34,0.97,1.31,0.98,2.16c0.02,1.98,0.01,3.96,0.01,5.94c0.71,0.73,0.55,1.62,0.33,2.44c-1.75,6.47,0.15,11.9,4.66,16.62
		c0.51,0.54,0.94,1.15,1.01,1.93c-1.15,5.23,3.27,3.05,5.33,4.01c0.51,1.63-1.72,2.02-1.58,3.48c-0.6,0.73-1.31,1.14-2.28,0.77
		C739.5,595.23,734.85,587.07,734.24,576.17z"/>
	<path class="st19" d="M750,599.41c0.76-0.26,1.52-0.51,2.28-0.77c2.09-0.02,3.97,0.08,5.92,1.48c1.75,1.26,4.39,0.25,6.41-0.16
		c2.68-0.54,6.46,0.81,7.72-3.47c0.37-1.26,1.86-0.62,2.97-0.32c2.12,0.56,3.6,0.16,3.78-2.53c0.15-2.35,2.63-3.31,3.89-4.94
		c1.21-1.56,1.58-2.83,1.56-4.5c-0.04-3.2,1.23-5.81,3.33-8.41c1.08,2.52-0.43,5.03,1.1,7.09c0.55,0.77,0.8,1.52-0.16,2.19
		c-0.83,0.82-0.47,1.9-0.6,2.87c-0.31,2.04-1.03,3.9-2.45,5.43c-0.17,0.27-0.34,0.54-0.49,0.83c0.12-0.12,0.25-0.29,0.39-0.54
		c1.19-1.3,1.67-3.12,3.24-4.09c3.13-3.36,3.21-7.92,4.7-11.92c0.81-0.34,1.29,0.07,1.67,0.72c0.35,1.04-0.3,1.98-0.33,2.98
		c0.04,0.26,0.09,0.53,0.13,0.79c-0.96,1.12,0.14,3.03-1.48,3.89c-0.07,3.24-2.25,5.51-3.76,8.09c-0.89,1.36-2.25,2.35-3.02,3.81
		c-2.59,3.22-5.78,5.57-9.78,6.75c-0.05-0.11-0.12-0.22-0.15-0.34c-0.3-1.46,2.61-2.42,0.91-3.82c-1.25-1.03-2.76,0.54-4.17,0.83
		c-1.05,0.51-2.28,0.37-3.3,0.96C763.36,602.59,756.41,602.88,750,599.41z"/>
	<path class="st20" d="M742.54,516.93c-2.97-2.61-4.88-5.88-6.07-9.62c-0.36-0.88-0.44-1.87-1.01-2.67
		c-1.07-1.48-1.44-0.46-1.82,0.52c-0.08,4.67-0.21,9.34,2.68,14.38c-6.08-2.18-7.74-6.56-9.52-10.86c-0.81-1.77-0.42-3.65-0.33-5.45
		c0.13-2.37,2.53-3.92,5.88-3.72c2.63,0.15,5.17,0.22,7.51-1.2c1.26-0.35,2.52-0.41,3.75,0.12c0.39,0.2,0.63,0.52,0.73,0.95
		c-1.22,4.84-0.51,9.78-0.76,14.67C743.55,515.03,744.55,516.61,742.54,516.93z"/>
	<path class="st21" d="M695.07,552.25c0.85,0.09,1.79-0.03,2.52,0.32c2.44,1.17,1.99-0.48,2.57-1.99c1.44-3.79-1.98-6.44-1.79-9.84
		c6.66,11.08,12.39,22.72,20.05,33.2c0.62,0.85,1.16,1.94,0.31,2.7c-1,0.89-1.81-0.29-2.49-0.89
		C708.31,568.71,701.31,560.82,695.07,552.25z"/>
	<path class="st22" d="M734.3,412.72c-1.5,4.05-2.08,8.27-2.27,12.55c-0.07,1.59,0.11,3.21-0.7,4.68c-1.28,2-3.17,2.06-5.12,1.4
		c-1.47-0.49-1.55-1.67-0.95-2.95c0-2.2,1.4-3.94,1.95-5.96c0.28-1.04,1.48-2.04,0.78-3.09c-0.83-1.25-2.02,0.05-3.06,0.04
		c-0.36-0.01-0.72-0.05-1.46-0.11c1.66-4.93,4.39-9.11,7.08-13.3c0.62-0.68,0.38-1.29-0.06-1.98c-0.77-1.21-0.25-2.08,0.87-2.73
		c0.33-0.1,0.67-0.13,1.01-0.11c1.35,0.41,2.69,0.37,4.03-0.04c0.78,0.42,2.37-0.92,2.4,1.11l-0.01,0.02
		C738.01,406.04,735.85,409.25,734.3,412.72z"/>
	<path class="st23" d="M785.91,550.71c-3.84-3.13-3.81-3.11-0.2-6.22c5.66-4.87,7.81-11.19,5.64-18.15
		c-1.27-4.08-0.49-6.24,2.95-8.02c0.12,0.12,0.25,0.24,0.37,0.35c0.99,1.26,0.81,3.63,3.31,3.46c0.47,0.36,0.73,0.84,0.91,1.39
		c0.85,4.19,1.76,8.38-0.05,12.55c-0.27,0.25-0.83,0.35-0.9,0.55c-0.33,0.91-0.84-2.71-1.25,0.14c-0.62,4.34-3.44,7.85-5.54,11.58
		C790.17,550.07,788.37,551.49,785.91,550.71z"/>
	<path class="st24" d="M821.24,541.62c1.53,1.79-0.33,2.87-1.29,4.23c4.37-0.13,5.07,1.11,3.58,5.57c-1.01,1.67-1.79,3.42-2.09,5.37
		l0-0.05c-1.41,1.72-3.24,3.05-4.41,4.98c-0.58,0.96-1.32,1.93-2.56,0.68c-0.92,0.96,0.38,2.36-0.67,3.29
		c-2.91,4.13-6.86,7.2-10.64,10.43c-2.76,0.58-1.53-1.25-1.45-2.4C809.23,563.64,814.66,552.28,821.24,541.62z"/>
	<path class="st25" d="M748.54,547.65c10.19,0.41,19.66,3.26,28.47,8.36c-1.99,3.03-4.31,4.32-7.7,1.84
		c-0.69-0.51-1.99-0.11-2.85-0.48c-2.72-1.16-6.37,0.7-8.31-3.65c-1.06-2.39-4.96-2.02-7.32-0.21c-2.76,2.12-5.12-0.47-7.71-0.29
		c-0.78,0.05-0.65-1.75,0.55-2.12c2.05-0.64,0.11-1.48,0.2-2.2c0.02-0.19,0.07-0.37,0.14-0.54
		C745.45,547.62,746.82,546.56,748.54,547.65z"/>
	<path class="st26" d="M717.8,456.2c-7.77-9.3-15.01-18.96-20.28-29.95c-0.35-2.74,0.85-5.17,1.59-7.69
		c6.46,13.02,13.63,25.62,21.78,37.65C719.86,456.66,718.83,456.88,717.8,456.2z"/>
	<path class="st27" d="M838.97,396.92c-2.28-2.58-4.63-5.1-6.8-7.76c-1.39-1.71-1.9-0.56-2.57,0.52c-0.4-1.93,1.2-3.55,0.44-5.92
		c6.29,3.31,9.78,8.74,13.96,13.32c6.36,6.99,11.8,14.73,16.08,23.23c0.79,1.57,1.57,3.08,1.64,4.87c-0.06,0.37-0.28,0.59-0.64,0.67
		c-3.16-1.24-4.07-4.21-5.33-6.9c-0.26-0.32-0.52-0.65-0.78-0.97c-4.2-3.13-5.91-8.13-9.05-12.05c-0.63-1.6-2.12-2.61-2.87-4.13
		C841.95,399.94,840.6,398.31,838.97,396.92z"/>
	<path class="st28" d="M690.71,391.18c-0.39-0.99-0.78-1.98-1.28-3.26c-3.42,2.55-5.45,6.05-8.35,8.7
		c-1.84,1.72-2.95,4.02-4.63,5.86c-1.16,1.57-2.35,3.11-3.47,4.71c-0.18,0.26-0.39,0.51-0.61,0.75c-0.67,0.7-1.14,1.54-1.65,2.35
		c-0.92,1.4-1.86,2.79-3.12,3.93c-0.12,0.16-0.16,0.34-0.13,0.54c-1.18,0.75-1.09,2.48-2.4,3.13c-0.73,0.97-1.72,1.85-2.13,2.94
		c-0.98,2.57-3.11,3.84-5.23,5.19c-0.24,0.62-0.47,1.25-1.33,1.14c2.42-4.38,4.69-8.86,7.3-13.12c6.11-9.95,13.61-18.83,21.82-27.1
		c1.05-1.06,1.97-3.23,3.77-2.34c1.38,0.68,1.18,2.81,1.47,4.35C690.89,389.67,690.73,390.44,690.71,391.18z"/>
	<path class="st29" d="M767.3,416.48c-1.64,1.52-3.21,3.02-0.27,4.82c0.97,0.59,1.44,1.89,0.82,2.56c-2.99,3.24-1.8,7.17-2.14,10.86
		c-0.04,0.43-0.44,0.83-0.68,1.25c-1.02-0.85-1.05-2.17-1.58-3.25c-2.57-6.22-1.86-12.73-1.43-19.15c0.22-3.17,2.08-5.81,4.14-8.2
		c2.01-1.83,3.09-4.61,5.78-5.75c0.86-0.13,1.54-0.48,1.65-1.47c0.31-0.84,0.87-1.4,1.78-1.56c2.23,0.31,1.94,1.85,1.64,3.39
		c-0.25,0.51-0.5,1.01-0.75,1.52c-3.89,2.75-5.89,6.64-6.74,11.22C768.45,413.76,768.63,415.57,767.3,416.48z"/>
	<path class="st19" d="M699.11,418.56c0.88,2.85-0.46,5.25-1.59,7.69c-0.24-0.01-0.49-0.02-0.73-0.03
		c-3.02-3.67-6.36-7.14-7.5-11.98c-0.07-0.59-0.43-1.45-0.17-1.72c3.04-3.16,1.58-6.73,1.05-10.21c-0.43-2.86,0.67-5.58,0.64-8.4
		C693.23,402.25,695.84,410.52,699.11,418.56z"/>
	<path class="st30" d="M813.03,503.44c3.67-2.02,4.86-6.1,7.47-9c1.16-1.54,2.24-1.47,2.94,0.31c0.64,1.62,0.66,3.35,0.17,5.05
		l0.04-0.05c-2.6,1.19-2.59,4.04-3.83,6.09c-2.24,4.54-5.51,8.34-8.63,12.43c-2.74-3.07-3.33-5.94-1.05-9.25
		C811.32,507.3,812.08,505.3,813.03,503.44z"/>
	<path class="st4" d="M1012.06,458.76c-0.63,1.57-0.65,3.42-2.61,5.1c-4.09-12.04-8.07-23.75-12.05-35.47
		c3.22-0.57,4.32,1.44,5.23,4.02C1005.72,441.22,1008.91,449.99,1012.06,458.76z"/>
	<path class="st31" d="M706.67,502.64c1.5,2.98,3.06,5.94,4.47,8.96c1.2,2.56-0.54,4.4-1.78,6.78c-4.62-5.79-8.55-11.56-11.93-17.73
		c1.08-2.5,0.1-5.59,2.23-7.8c1.18-0.28,1.58,0.62,2.07,1.38C702.66,497.45,704.77,499.98,706.67,502.64z"/>
	<path class="st32" d="M698.17,485.52c-6.47-16.19-10.28-32.9-9.77-50.45c0.08-2.74,0.14-5.47,0.24-8.21
		c0.03-0.94-0.24-2.14,1.37-2.06c0.42,0.41,0.49,0.87,0.17,1.37c-1.74,1.95-0.97,4.33-0.79,6.43c0.71,8.64,2.08,17.19,3.86,25.69
		c0.97,4.63,2.66,9.04,3.53,13.67c-1.07,1.67,0.21,3.09,0.65,4.51c0.73,2.34,1.47,4.67,1.92,7.08
		C699.52,484.49,699.85,485.64,698.17,485.52z"/>
	<path class="st33" d="M815.16,403.67c0.94-3.65,1.04-7.36,0.74-11.1c-0.72-8.92-5.05-13.38-14.01-14.43
		c-2.05-0.42-4.09-0.55-6.13,0.08l-0.01,0c-1.39,1.47-3.21,2.06-5.13,2.44c-0.24-3.07,1.82-4.49,4.2-5.43
		c8.46-3.34,21.22,3.18,22.99,12.06c1.23,6.14,1.04,12.35-2.6,17.92C814.79,404.71,814.82,404.19,815.16,403.67z"/>
	<path class="st34" d="M716.96,535.08c-2.1-7.26-0.25-13.89,3.33-20.2c0.86-1.52,1.78-2.02,2.76,0.08c0.83,1.77,1.98,3.39,2.99,5.07
		c1.9,1.73,2.01,3.45,0.28,5.46c-1.89,2.2-3.24,4.64-3.25,7.75c0,1.69-0.83,3.22-3.1,2.61c-0.57-0.56-0.74-1.28-0.83-2.04
		c-0.21-1.15,0.28-2.38-0.47-3.63c-1,0.88-0.52,2.03-0.74,2.98C717.82,533.92,717.64,534.63,716.96,535.08z"/>
	<path class="st35" d="M639.65,452.35c0.75-0.88,1.1-1.89,1.08-3.07c-0.08-6.68-0.14-13.37-0.2-20.05c1.6,2.26,0.64,4.81,0.75,7.22
		c0.17,3.81,0.05,7.64,0.65,11.6c1.4-3.74,2.83-7.47,4.19-11.23c2.23-6.18,5.03-12.08,8.48-17.67c0.41-0.67,0.58-1.93,1.78-1.26
		c0.8,0.44,0.41,1.29,0.13,2.01c-0.54,1.37-0.63,2.92-1.65,4.09c-1.44,1.1-1.3,2.78-1.6,4.31c-2.98,7.17-6.1,14.29-8.27,21.77
		c-0.74,1.45-1.28,2.98-1.57,4.59c-0.84,1.81-1,3.94-2.56,5.41c-0.37,0.2-0.71,0.16-1.03-0.1
		C640.22,457.42,641,454.86,639.65,452.35z"/>
	<path class="st36" d="M781.59,508.85c-1.11,3.13-2.59,6.01-5.33,8.07c-0.9,0.23-1.03-0.37-1.08-1.01
		c-0.38-5.26,0.44-10.53-0.24-15.82c-0.2-1.55,1.83-1.64,3.21-1.66c0.6,0.12,1.14,0.39,1.65,0.73c2.55,2.04,5.79,0.3,8.49,1.54
		c2.86,1.7,2.74,4.58,2.44,7.2c-0.2,1.78-0.23,3.65-0.86,5.39l0.03-0.05c-1.78,1.83-2.79,1-3.22-1.05c-0.38-1.8-0.16-3.67-0.17-5.49
		c-0.07-1.1,0.26-2.17,0.33-3.28c0.45-0.14-0.62-0.46-0.2-0.19c0.27,0.17,0.22,0.26-0.11,0.36c-1.19,0.35-2.38,0.4-3.59,0.12
		c-2.24-0.52-3.06,0.63-3.3,2.19c-0.16-0.58,0.34-1.32,1.12-1.88c0.65-0.47,1.39-0.53,2.07-0.06c0.78,0.55,0.67,1.32,0.16,1.92
		C782.25,506.77,781.9,507.79,781.59,508.85z"/>
	<path class="st37" d="M798.03,522.93c-0.24-0.27-0.49-0.55-0.73-0.82c-1.01-0.74-1.5-1.73-1.43-2.98c0.68-1.72-0.66-4.68,1.72-5.1
		c2.18-0.39,2.44,2.65,3.64,4.09c0.39,0.46,0.78,0.96,0.9,1.59c2.06,6.28,2.75,12.6,0.39,18.97c-0.25,0.75-0.5,1.5-0.76,2.24
		c-0.99,1.05-1.12,2.44-1.49,3.74c-0.5,0.5-1,1-1.51,1.5c-1.32,0.88-1.84,0.02-2.03-1.06c-0.2-1.21-0.02-2.46-0.05-3.69
		c0.06-0.37,0.17-0.72,0.34-1.05c3.58-4.51,2.32-9.64,1.76-14.63C798.69,524.86,798.71,523.74,798.03,522.93z"/>
	<path class="st38" d="M859.39,492.22c1.58,3.43,1.19,7.18,1.52,10.76c0.46,5.12,0.09,10.32,0.5,15.45
		c0.06,0.75-1.22,4.91,2.74,3.03c-0.17,1.36-0.46,2.68-1.66,3.56c-1.06-0.77-2.26-2.25-2.39,0.66c-0.06,1.33-0.57,2.56-2.36,3.75
		c1.57-0.35,1.91-2.57,3.31-1.26c-0.7,4.68-4.61,7.72-6.09,12c-0.48,0.69-0.93,1.79-1.84,1.49c-1.31-0.42-0.63-1.6-0.46-2.52
		c1.97-6.62,4.83-12.93,6.08-19.82C860.38,510.29,859.33,501.26,859.39,492.22z"/>
	<path class="st39" d="M644.21,450.03c1.41-6.21,3.75-12.08,6.49-17.8c0.7-1.45,1.26-2.96,1.88-4.45c2.08-0.25,0.29,2.01,1.51,2.33
		c0.85-0.92,2.01-1.59,2.3-2.94c0.44-0.38,0.89-0.76,1.33-1.14c-0.27,0.91-0.37,1.92-0.83,2.72c-1.1,1.88-0.5,3.4,1.12,4.3
		c1.04,0.58,1.41,1.11,1.29,2.17c-0.73-0.25-1.46-0.49-2.19-0.74c-0.67-0.34-1.05-1.14-1.9-1.21c-0.92,0.22-1.85,0.39-2.78,0.59
		c1.08,0.23,2.06-0.58,3.14-0.29c0.21,0.31,0.22,0.62-0.03,0.92c-4.67,6.49-8.05,13.68-11.3,20.94c-0.74,0.1-1.04-0.28-1.05-0.97
		C642.97,452.86,643.94,451.52,644.21,450.03z"/>
	<path class="st40" d="M740.28,498.93c-1.71,0.88-3.09,2.3-5.4,1.91c-6.97-1.16-9.06,0.32-8.07,7.84
		c-2.52-6.52,0.49-11.2,7.21-11.25c1.23-0.01,2.76,0.27,3.65-0.33c4.09-2.77,8.08-0.82,12.12-0.14c2.31,0.39,3.4,1.85,3.79,3.96
		c0.65,3.62,0.9,7.24-0.6,10.75c-1.07-1.06-0.85-2.44-0.92-3.74c0.15-2.6-0.32-4.95-2.57-6.62c-0.3-0.14-0.59-0.29-0.9-0.42
		c-1.56-0.55-3.45-0.34-4.56-1.94l-0.01-0.01C742.77,498.31,741.53,498.35,740.28,498.93z"/>
	<path class="st41" d="M720.05,535.68c1.48-0.12,2.46-0.99,2.18-2.39c-0.74-3.63,1.4-6.18,3.41-8.47c1.57-1.79,1.14-3.12,0.4-4.78
		c1.02,0.71,2.04,1.42,3.05,2.12c0.9,1.2-0.05,2.26-0.27,3.38c-3.15,5.84-1.62,11.65,0.1,17.47c-0.09,2.32-1.87,2.86-3.62,3.43
		C721.71,543.75,719.53,540.37,720.05,535.68z"/>
	<path class="st42" d="M728.29,543.17c-2.58-6.01-3.72-12.05-0.25-18.14c0.97-0.46,1.3,0.33,1.75,0.9c-0.07,5.69-0.67,11.48,3,16.49
		c1.21,1.79,2.71,3.29,4.5,4.5c0,0.25,0,0.5,0,0.75c-0.95,0.55-1.75,1.44-2.97,1.44C730.89,548.56,729.31,546.15,728.29,543.17z"/>
	<path class="st43" d="M846.66,405.25c2.77,4.24,5.54,8.48,8.31,12.72c-1.72,0.38-4.74,0.44-4.93,1.21
		c-0.75,3.05-1.13,6.41-0.62,9.48c0.25,1.51-0.36,2.43-0.47,3.62c-0.73-3.53-1.46-7.05-2.2-10.58c-0.77-3.04-1.58-6.02-0.36-9.2
		c0.57-1.49,0.11-3.15-1.18-4.37c-0.25-0.31-0.41-0.66-0.51-1.05C844.74,405.81,844.67,404.43,846.66,405.25z"/>
	<path class="st43" d="M851.26,463.7c-0.04,2.24,0.06,4.48-0.17,6.7c-0.11,1.08-0.82,1.68-1.16-0.3c0.44-1.34-0.01-2.8,0.12-3.33
		c-0.08,0.62,0.32,2.21-0.12,3.33c-1.56,3.49-0.8,7.09-2.34,10.21c-0.58,1.18-0.54,2.64-1.58,3.63c2.39-11.92,4.28-23.9,3.79-36.12
		c-0.2-5.2-0.58-10.38-0.88-15.58c2.2,2.73,1.2,6.01,1.67,9.04c0.19,1.24-1.91,4.05,1.83,3.7c0.05,0,0.3,1.3,0.31,1.99
		c0.03,3.58,0.02,7.15,0.02,10.73c-0.03,0.82,0.13,1.71-0.75,2.25c-1.04-1.14-0.83-2.52-0.9-3.78
		C850.69,458.61,852.25,461.16,851.26,463.7z"/>
	<path class="st6" d="M768.84,378.21c-3.32,0.01-6.65,0.04-9.97,0.02c-1.64-0.01-3.2,0.13-4.34,1.52c0.54,1.1-2.88-0.42-1.01,1.55
		c3.38,2.04,6.2,4.82,9.45,7.02c0.41,0.37,0.71,0.8,0.81,1.36c-0.31,1.27-0.88,2.38-1.94,3.19c-3.27,0.19-4-3.16-6.1-4.63
		c-2.23-1.56-4.05-3.93-6.13-5.87c-2.59-2.42-1.93-3.86,1.26-5.41c4.42-2.14,9.09-2.31,13.79-2.57c1.31-0.07,2.82-0.33,3.54,1.33
		c-0.55,0.94-1.22,1.04-2.07,0.27C766.6,377.31,769.02,376.19,768.84,378.21z"/>
	<path class="st44" d="M720.05,535.68c0.91,3.91,2.76,7.36,5.25,10.49c2.45,1.78,5.67,2.88,5.94,6.62
		c-0.76,1.25-1.63,2.48-3.17,1.03c-5.49-5.17-10.2-10.83-11.1-18.73c0.04-0.8,0.08-1.6,0.12-2.4c0.48-0.66,0.75-1.7,1.78-1.57
		c1.38,0.17,0.35,1.75,1.18,2.31C720.04,534.18,720.04,534.93,720.05,535.68z"/>
	<path class="st45" d="M779.27,499.65c-0.26-0.24-0.52-0.47-0.78-0.71c-2.97-1.03-5.05,2.21-7.91,1.67
		c-1.63-0.15-3.27-0.2-4.79-0.92c0.2-0.44,0.31-1.19,0.61-1.27c4.96-1.36,9.71-4.66,15.16-1.5c2.1,1.22,4.6,0.34,6.91,1.1
		c4.32,1.42,6.05,4.79,4.22,9.14c-1.35-2.04-1.52-4.88-4.14-6.05C785.55,500.02,782.07,501.98,779.27,499.65z"/>
	<path class="st46" d="M662.27,525.92c-1.91-4.05-2.32-8.54-3.72-12.74c-0.1-4.76,0.4-9.54-0.75-14.24c0.61-1.25,0.61-2.5,0-3.75
		c0.7-4.45,2.11-8.81,1.36-13.56c1.46,0.51,0.34,1.87,1.67,2.39c0-1.68-0.15-3.25,0.04-4.78c0.21-1.65,0.93-2.47,2.2-0.57
		c-0.05,0.17-0.09,0.33-0.13,0.5c-0.65,1.03-0.96,2.18-1.3,3.33c-0.51,7.45-1.08,14.91-1.5,22.37c-0.33,6.01,0.37,11.94,1.94,17.76
		C662.37,523.7,662.65,524.79,662.27,525.92z"/>
	<path class="st47" d="M867.77,423.21c2.06,3.85,4.95,7.27,4.75,12.13c-0.07,1.76,2.53,2.6,3.29,4.56c1.4,3.61,1.81,7.47,3.19,11.06
		c-0.8,0.62,0.29,2.48-1.57,2.41c-1.33-0.67-1.56-2.02-2.02-3.24c-1.98-5.82-3.58-11.78-6.71-17.14c-0.44-0.57-0.79-1.2-0.93-1.92
		c0.08-0.92-0.42-1.69-0.7-2.52c-0.1-0.91-0.73-1.66-0.74-2.59C866.28,424.78,866.44,423.69,867.77,423.21z"/>
	<path class="st48" d="M869.24,432.3c3.49,5.48,5.32,11.6,6.88,17.82c-0.03,0.16-0.05,0.33-0.08,0.49c-0.34,0.94,0.5,2.55-1.45,2.59
		c-2.31-4.68-4.61-9.35-6.92-14.03c-0.23-0.48-0.3-0.98-0.24-1.51c0.17-0.72,1.59-0.76,0.88-2.06
		C867.66,434.41,868.27,433.22,869.24,432.3z"/>
	<path class="st49" d="M822.77,489.94c0.01-0.62,0.14-1.18,0.75-1.51c2.54,1.5,4.8,1.89,6.25-1.46c0.35-0.81,1.36-0.99,1.99-1.54
		c-0.04-1.34,0.94-2.18,1.67-3.05c0.8-0.96,1.11-0.09,1.31,0.64c-1.99,6.38-3.86,12.81-6.79,18.86c-1.91-0.6-0.96-1.89-0.72-3
		c0.25-1.23,0.5-2.46,0.75-3.69c1.07-2.82-1.06-1.38-2.02-1.5C823.61,493.54,822.69,492.17,822.77,489.94z"/>
	<path class="st50" d="M789.77,372.99c0.64-4.04-2.26-4.51-5.12-5.24c-13.97-3.55-27.26-1.14-40.26,4.31
		c-0.81,0.34-1.66,1.43-2.61,0.19c10.07-4.5,20.44-7.81,31.63-7.48c5.12,0.15,10.09,1.44,14.88,3.08
		C792.5,369.28,792.4,369.58,789.77,372.99z"/>
	<path class="st51" d="M670.42,549.25c-3.61-5.55-7.06-11.2-9.55-17.36c0.44-1.38,0.39-3.05,2.16-3.64
		c2.88,5.08,4.26,10.79,6.67,16.07c0.51,1.11,1.01,2.19,1.68,3.2C671.75,548.48,671.85,549.29,670.42,549.25z"/>
	<path class="st52" d="M830.29,424.01c0.83,0.1,1.42,0.48,1.44,1.38c0.27,12.62,0.29,25.22-2.97,37.56
		c-0.69,0.73-0.92,2.25-2.5,1.45c2.3-11.81,5.46-23.51,4.79-35.71c-0.07-1.31,0.43-2.77-0.72-3.89c-0.22-0.16-0.3-0.34-0.24-0.52
		C830.16,424.1,830.22,424.01,830.29,424.01z"/>
	<path class="st53" d="M774.03,606.03c-0.92,0.32-1.85,0.63-2.77,0.95c-1.22,0.74-2.79-0.31-3.95,0.76l0.05-0.04
		c-4.1,0.51-8.21,0.47-12.32,0.03c-2.31-0.04-4.56-0.32-6.59-1.54c0.35-0.71,0.79-1.25,1.69-0.85c2.62,0.24,5.23,0.48,7.85,0.72
		c1.29-0.6,2.76,0.1,4.03-0.58c3.12-0.39,6.14-1.08,8.77-2.94c0.46-0.57,1.07-0.76,1.78-0.7
		C774.66,602.67,775.28,604.02,774.03,606.03z"/>
	<path class="st54" d="M771.03,507.08c-1.21,3.16-1.39,6.49-1.61,10.09c-2.53-1.16-2.64-3.59-3.57-5.47
		c-0.83-1.4-0.32-2.92-0.37-4.39c0.31-2.01,1.04-3.86,2.21-5.5c1.12-1.56,2.8-1.49,4.43-1.23c1.12,0.18,1.87,0.78,1.14,2.08
		l-0.01,0.02C772.22,504,771.71,505.58,771.03,507.08z"/>
	<path class="st55" d="M725.26,428.41c1,4.51,3.84,1.82,6.07,1.55c-0.24,1.72-0.47,3.43-0.71,5.15c-1.83,1.16-3.21,3.12-5.88,2.68
		c-1.18-0.19-0.83,1.17-0.95,1.93c-2.56,0.58-1.87-0.99-1.54-2.32C722.78,434.24,723.74,431.23,725.26,428.41z"/>
	<path class="st56" d="M754.47,443.48c1.17,1.53,2.79,2.38,4.56,2.98c1.24,1.31,2.42,2.15,3.53-0.17c0.33-0.69,0.6-1.7,1.79-1.32
		c-0.17,3.54-1.75,6.68-2.87,9.94c-0.26,0.77-0.58,1.78-1.68,1.71c-0.89-0.05-1.06-0.97-1.36-1.6
		C756.7,451.32,755.21,447.53,754.47,443.48z"/>
	<path class="st57" d="M753.05,507.19c-0.03,1.49-0.05,2.99-0.08,4.48c-0.66,1.15-1.34,2.29-1.97,3.46
		c-0.45,0.84-0.84,2.16-1.97,1.56c-1.21-0.64,0.35-1.67,0.16-2.57c-0.66-1.24,0.18-2.72-0.62-3.94c-0.74-0.85-0.97-1.84-0.81-2.94
		c-0.5-1.46,0.05-2.94-1.15-4.56c-1.08-1.45,0.35-3.15,2.72-2.28l-0.01-0.02C750.95,502.44,752.7,504.43,753.05,507.19z"/>
	<path class="st58" d="M876.13,450.12c0.47,1.03,0.93,2.05,1.4,3.08c2.69,3.34,2.01,7.75,3.63,11.44c0.31,2.39,0.61,4.78,0.92,7.17
		c0.12,1.38,1.23,2.96-0.83,3.88c-1.82-7.26-3.64-14.52-6.19-21.57c0.82-1.13,0.37-2.53,0.8-3.74
		C875.86,450.36,876.13,450.12,876.13,450.12z"/>
	<path class="st59" d="M739.55,451.01c1.04-1.98,1.48-4.17,2.49-6.2c1.25-2.49,2.97-4.26,5.58-4.19c1.92,0.05,2.43-3.29,4.64-1.51
		c-3.76,3.31-6.06,8.05-10.44,10.77C741.08,450.33,740.47,450.97,739.55,451.01z"/>
	<path class="st60" d="M690.19,426.17c-0.06-0.46-0.12-0.91-0.17-1.37c-0.24-0.53-0.48-1.05-0.71-1.58c0-2.99-0.01-5.99-0.01-8.98
		c2.17,4.2,5.85,7.45,7.5,11.98c-0.37-0.02-0.79,0.08-1.1-0.06c-3.67-1.68-4.12,0.11-3.43,3.15
		C691.57,428.26,690.88,427.22,690.19,426.17z"/>
	<path class="st17" d="M764.35,444.97c-0.93,0.46-0.8,1.49-1.19,2.23c-0.55,1.04-1.2,1.99-2.53,1.79c-1.4-0.21-1.69-1.29-1.6-2.53
		c0,0,0.05-0.06,0.05-0.06c1.85-2.79,2.43-5.99,2.95-9.22c0.72-1.42-0.15-3.68,2.22-4.22c1.13,0.78,0.67,1.96,0.78,3
		c1.94,1.23,0.59,3.02,0.77,4.55C765.7,442.12,765.33,443.64,764.35,444.97z"/>
	<path class="st61" d="M785.91,550.71c2.46-0.85,4.42-2.11,5.57-4.69c1.67-3.75,4.13-7.13,5.18-11.3c0.52,0.65,0.95,1.18,1.38,1.71
		c1.43,1.8-0.49,3-0.79,4.49l0.01-0.02c-0.8,4.51-3.54,7.87-6.62,10.98c-0.74,0.75-1.58,2.23-3.07,0.9
		C787.02,552.09,786.46,551.4,785.91,550.71z"/>
	<path class="st62" d="M825.86,555.91c1.69-0.16,3.67,0.62,4.52-1.94c0.23-0.71,1.17,1.59,2.24,0.49
		c-1.61,4.57-4.72,8.19-7.63,11.93c-1.74,0.06-2.08-0.81-1.52-2.28l-0.01,0.02c1.26-1.9,1.47-4.17,2.2-6.26
		C825.73,557.23,825.8,556.57,825.86,555.91z"/>
	<path class="st63" d="M839.27,399.98c0.03-0.54,0.06-1.09,0.09-1.63c2.28,0.07,2.32,2.34,3.47,3.52c1.36,1.63,1.64,3.73,2.44,5.6
		l0,0c2.59,3.81,2.57,4.91-0.16,8.89c-1.5-2.45-3.01-4.9-4.51-7.34c1.19,0.55,2.38,1.1,3.57,1.65
		C842.4,407.13,839.7,404.09,839.27,399.98z"/>
	<path class="st46" d="M663.07,478.67c2.07-1.08,2.48,0.18,2.2,1.77c-1.13,6.39,1.27,12.47,1.56,18.73
		c0.18,3.82,3.43,7.06,2.16,11.17c-3.63-9.43-4.23-19.49-6-29.3c-0.57-0.72-0.6-1.45-0.07-2.2L663.07,478.67z"/>
	<path class="st64" d="M643.55,454.7c0.23,0.24,0.47,0.49,0.7,0.73c-2.57,7.33-3.98,14.97-5.96,22.45c-2.03-0.54-0.94-1.91-0.8-3.02
		c0-0.23,0.04-0.44,0.13-0.65c0.74-1.25-0.01-2.71,0.57-3.99c0.33-2.13,0.65-4.25,0.98-6.38c0.45-1.3,0.76-2.66,1.43-3.88
		c0.66-1.79,1.33-3.57,1.99-5.36C642.93,454.27,643.26,454.3,643.55,454.7z"/>
	<path class="st65" d="M732.09,401.44c-1.1,0.59-1.93,1.28-0.86,2.58c0.86,1.04,0.19,1.52-0.67,1.96c-0.05-0.8-0.35-1.54-1.18-1.69
		c-3.78-0.67-2.85-2.59-1.55-4.94c1.13-2.04,2.9-3.72,3.49-6.07c0.26-0.28,0.56-0.32,0.89-0.12c0.99,1.07,0.29,2.71,1.26,3.79
		c0.01,0.48,0.03,0.97,0.04,1.45C732.86,399.33,733.23,400.74,732.09,401.44z"/>
	<path class="st66" d="M761.11,512.09c-0.37,0.77,1.45,2.43-0.26,3.53c-0.98,0.63-2.23,0.25-3.28-0.07
		c-1.38-0.42-0.79-1.62-0.71-2.54c0.16-1.73,0.46-3.44,0.61-5.17c0.1-1.17,0.54-1.9,1.79-1.91c1.25-0.01,1.81,0.72,1.85,1.87
		C761.15,509.03,761.11,510.28,761.11,512.09z"/>
	<path class="st67" d="M781.59,508.85c-0.06-0.87-0.09-1.72,0.45-2.49c0.39-0.56,1.17-1.13,0.35-1.87c-0.21-0.19-0.73-0.21-1.04-0.1
		c-0.75,0.26-1.24,0.83-1.24,1.66c0,0.93,0.68,1.94-0.34,2.74c-1.07-2.52-0.56-5.21,1.31-5.75c2.02-0.58,4.23,0.88,6.43-0.55
		c0,1.22,0,2.21,0,3.19c-1.56,3.9-0.14,8.13-1.37,12.06c-0.61,0.83-1.38,1.36-3.1,1.46c2.13-4.79,2.77-9.51,1.97-15.21
		C783.6,506.02,782.59,507.44,781.59,508.85z"/>
	<path class="st68" d="M749.33,500.41c-2.38,0.8-2.67,1.34-1.12,2.5c2.45,1.83-0.53,2.88-0.45,4.34c-1.26-1.26-1.01-3.57-3.23-4.53
		c-0.92,4.34-0.35,8.6-0.56,12.81c-0.04,0.78,0.52,2.44-1.42,1.4c1.57-3.55,1.04-7.39,0.5-10.89c-0.41-2.71,0.15-4.8,0.98-7.09
		C745.79,499.44,747.56,499.92,749.33,500.41z"/>
	<path class="st69" d="M773.27,502.66c-1.73-2.63-3.53-2.07-5.09,0.08c-0.98,1.35-1.62,2.96-2.41,4.45
		c-0.65-4.95,0.38-6.57,4.71-7.41c1.69,0.23,3.14-0.61,4.66-1.09c1.15-0.37,2.33-1.12,3.34,0.26c-1.99,0.14-2.9,1.14-2.74,3.2
		c0.37,4.92-1.26,9.91,0.52,14.78c-1.9,1.24-1.51-0.44-1.51-1.28c-0.02-3.93,0.03-7.86,0.07-11.79
		C774.83,502.71,774.78,501.75,773.27,502.66z"/>
	<path class="st70" d="M731.23,552.78c-1.98-2.21-3.96-4.41-5.94-6.62c0.29-1.71,3-1,3-2.99c1.77,1.94,3.15,4.29,5.74,5.36
		c0.77,0.34,0.66,0.83,0.24,1.38C733.26,550.87,732.24,551.82,731.23,552.78z"/>
	<path class="st71" d="M762.67,388.84c-3.67-1.65-6.19-4.9-9.62-6.87c-0.2-1.22,0.29-1.75,1.53-1.52l-0.03,0.01
		c1.7,0.71,3.53,0.96,5.28,1.51c2.43,1.41,3.08,4.28,5.02,6.09C764.3,388.79,763.45,388.71,762.67,388.84z"/>
	<path class="st72" d="M863.97,439.01c-2.7-1.45-5.1-2.89-3.19-6.72c0.76-1.53-0.76-3.55,0.23-5.31c-0.46-0.86,0.21-1.07,0.78-1.35
		c-0.04-0.15-0.06-0.3-0.06-0.45c1.12,1.08,2.13,2.22,2.38,3.83c0.78,1.47,0.41,3,0.23,4.52c-0.16,1.68,0.16,3.36-0.02,5.04
		C864.2,438.72,864.08,438.86,863.97,439.01z"/>
	<path class="st73" d="M787.57,552.77c3.71-1.72,5.58-5.12,7.63-8.35c0.73-1.15,1.37-2.35,2.06-3.53c1.69,1.41-1.5,4.23,1.52,5.26
		c-0.46,1.01-1.2,1.74-2.18,2.24c-0.74,1.09-1.68,1.96-2.76,2.69c-1.26,1.56-2.93,2.53-4.73,3.3
		C788.28,554.14,787.75,553.62,787.57,552.77z"/>
	<path class="st74" d="M732.15,590.34c3.28,5.2,7.42,9.55,12.61,12.89c-0.02,0.69-0.18,1.2-1.04,0.81
		c-5.53-2.62-9.68-6.64-12.45-12.1C730.78,590.98,730.77,590.28,732.15,590.34z"/>
	<path class="st75" d="M698.17,485.52c1.34-3-0.45-5.61-1-8.39c-0.34-1.69-2.13-3.31-0.39-5.17c1.35,5.64,3.12,11.14,5.13,16.57
		c0.71,1.93,1.8,3.84,1.54,6.04c-1.25,0.23-1.79-0.71-2.43-1.47c-0.57-0.99-1.35-1.91-1.23-3.17
		C699.25,488.47,698.71,486.99,698.17,485.52z"/>
	<path class="st76" d="M732.15,590.34c-0.7,0.32-0.84,0.93-0.88,1.61c-4.1-6.89-4.86-14.24-3.05-21.95
		c0.85,0.61,0.02,1.84,0.89,2.44C728.6,578.66,729.44,584.66,732.15,590.34z"/>
	<path class="st77" d="M830.29,424.01c0.02,0.26,0.03,0.53,0.05,0.79c-0.26,0.24-0.52,0.48-0.79,0.71c0.32-2.98-2.78-1.72-3.79-3.05
		c0.25-0.5,0.5-1,0.75-1.49c1.58-2.19,3.16-4.38,5.26-7.29C831.95,417.81,831.3,420.94,830.29,424.01z"/>
	<path class="st78" d="M690.79,555.92c1.11,4.06,2.49,7.96,6.22,10.47c0.67,1.05,1.33,2.11,2,3.16c0.31,0.38,0.52,0.82,0.07,1.2
		c-0.79,0.66-1.21-0.34-1.82-0.48c-3.53-4.79-6.94-9.66-9.42-15.1C689.3,553.59,690.19,554.18,690.79,555.92z"/>
	<path class="st79" d="M782.28,439.72c-1.06-1.05-1.15-2.34-0.21-3.32c0.92-0.95,2.07-0.14,3.11,0.26c2.31,0.88,4.42,2.2,6.88,2.72
		c3.82,0.81,4.63,0.05,3.58-3.57c-0.27-0.94-0.4-1.93-0.6-2.89c1.13,1.07,1.73,2.48,2.09,3.9c0.32,1.27,1.92,2.58,0.85,3.76
		c-1.17,1.29-3.1,0.78-4.63,0.39c-2.9-0.73-5.75-1.7-8.33-3.27C782.42,436.13,782.08,437.52,782.28,439.72z"/>
	<path class="st80" d="M774.03,606.03c0.01-1.42,0.2-2.92-1.5-3.63c-0.48-0.87,0.65-0.94,0.76-1.51c0.52-0.28,1.01-0.65,1.56-0.82
		c1.46-0.47,2.96-2.18,4.41,0.07c1.51,2.35-1.06,2.72-1.87,3.94c-0.13,0.2-0.23,0.42-0.35,0.64
		C776.1,605.31,775.32,606.27,774.03,606.03z"/>
	<path class="st81" d="M769.53,412.7c-1.48-4.57,2.11-7.24,4-10.53c0.61-1.06,1.8-0.57,2.74-0.68
		C774.73,405.65,772.37,409.32,769.53,412.7z"/>
	<path class="st82" d="M692.98,493.1c2.68-2.25,4.35-4.8,2.93-8.63c0.8,1.58,1.59,3.15,2.39,4.73c0.22,1.6,0.41,3.18,0.14,4.81
		c-0.31,1.86-1.19,2.96-3.23,2.75C694.12,495.74,693.5,494.45,692.98,493.1z"/>
	<path class="st83" d="M789.2,501.12c3.7,0.55,3.18,3.53,3.49,6.04c-1.12,1.96-0.79,4.58-2.81,6.12c-1.71-2.54,0.24-5.1-0.01-7.69
		c-0.16-1.68-0.54-3.09-1.61-4.34C788.51,500.87,788.83,500.82,789.2,501.12z"/>
	<path class="st84" d="M826.27,464.41c0.83-0.48,1.67-0.97,2.5-1.45c-0.68,4.41-1.8,8.7-3.75,12.74c-0.83,0.39-1.23-0.08-1.53-0.76
		C824.41,471.43,825.34,467.92,826.27,464.41z"/>
	<path class="st85" d="M732.02,393.19c-0.24,0.03-0.47,0.06-0.71,0.09c1.21-3.42,3.6-6.11,5.62-9.02c0.5-0.72,1.11-1.33,1.11-2.27
		c0.46-0.66,0.93-1.31,1.86-2.64c0.39,4.65-2.58,6.97-4.21,9.86c-0.61,1.08-2.95,1.97-0.12,3.25c0.46,0.21,0.04,1.12-0.51,1.53
		C734.07,393.61,733.05,393.38,732.02,393.19z"/>
	<path class="st86" d="M822.77,489.94c1.02,1.29,1.28,3.51,3.74,3c0.45,0.54,0.42,1.1,0.09,1.68c-0.73,1.88-1.67,3.63-2.98,5.18
		c-0.28-1.39-0.74-2.77-0.81-4.17c-0.1-1.94-0.98-1.86-2.3-1.19C820.85,492.73,821.52,491.19,822.77,489.94z"/>
	<path class="st87" d="M789.78,558.92c-2.79,0-3.45-2.37-4.7-4.15c-2.75-3.9-7.52-5-11.05-7.85c0.18-0.3,0.43-0.55,0.73-0.74
		C780.76,549.25,786.39,552.76,789.78,558.92z"/>
	<path class="st88" d="M863.31,433.83c0.27-1.61,0.53-3.21,0.8-4.82c0.96,0.31,1.19,2.51,2.81,1.08c-0.23-0.75-0.67-1.62,0.76-1.56
		c0.36,0.7,0.98,1.3,0.83,2.19c-1.35,2.12,0.42,4.59-0.74,6.74c-0.03,0.57-0.06,1.15-0.09,1.72c-0.68-0.84-1.37-1.69-2.05-2.53
		C864.34,436.13,864.04,434.8,863.31,433.83z"/>
	<path class="st89" d="M762.67,388.84c0.51-0.87,1.33-0.85,2.18-0.79c1.11,0.88,2.32,1.48,3.77,1.51c0.79,0.51,1.75,0.17,2.58,0.48
		c0.75,0.62,2.45,0.18,2.17,1.95c-0.73,1.12-1.88,1.34-3.08,1.45c-1.36,0.07-2.71,0.06-4.06-0.12c-0.92-0.17-1.76-0.5-2.5-1.09
		c-1.19-0.75,0.54-1.9-0.36-2.69C763.14,389.31,762.91,389.07,762.67,388.84z"/>
	<path class="st62" d="M832.62,554.49c-1.17-1.97-1.37-3.75,1.05-4.93c0.4-0.2,0.92-0.02,0.69-0.83c-0.72-2.62,0.2-3.63,3.49-3.98
		C836.45,548.19,835,551.59,832.62,554.49z"/>
	<path class="st90" d="M773.22,391.71c-0.77-0.47-1.55-0.94-2.32-1.41c0.52-0.5,1.06-0.5,1.62-0.09c3.39,0.13,5.59-2.18,8.06-3.93
		c0.56-0.4,1-1.26,1.84-0.58c0.56,0.45,0.39,1.07,0.18,1.68c-0.58,1.71-0.48,3.66-1.83,5.1c-0.6-0.32-0.87-0.89-1.17-1.44
		c-2.16-1.52-3.17,1.49-4.99,1.27C774.06,392.31,773.58,392.16,773.22,391.71z"/>
	<path class="st91" d="M852.66,539.14c-0.14,2.38,0.84,2.25,2.3,1.03c-1.37,3.82-3.82,6.92-6.55,9.84c-0.32,0.24-0.6,0.22-0.85-0.11
		C848.47,545.94,850.93,542.71,852.66,539.14z"/>
	<path class="st92" d="M770.57,386.46c-1.29,0.13-2.38-0.12-3.3-0.81c-0.71-0.52-1.4-1.27-0.86-2.18c0.52-0.88,1.49-0.89,2.27-0.3
		c1.29,0.98,2.55,1.51,4.04,0.44c0.69-0.49,1.56-1.34,2.25-0.46c0.88,1.13-0.56,1.65-1.12,2.33
		C772.97,386.57,771.7,386.56,770.57,386.46z"/>
	<path class="st93" d="M849.01,516.89c-1.01-5.25,2.25-9.85,2.26-14.95c1.4,0.15,0.78,1.7,1.56,2.28
		C851.95,508.57,851.39,513,849.01,516.89z"/>
	<path class="st94" d="M776.28,378.33c3.48-1.02,7.11-1.64,10.16-3.84c0.81-0.59,0.99,0.05,1.04,0.73
		c-3.12,3.08-6.46,5.51-11.2,3.79c-0.26-0.15-0.35-0.31-0.26-0.46C776.1,378.41,776.19,378.33,776.28,378.33z"/>
	<path class="st83" d="M786.15,517.75c-0.72-4.15-0.8-8.24,1.37-12.06c0,2.09,0.05,4.18,0,6.27c-0.05,2.08,1.09,1.78,2.38,1.29
		C789.26,515.25,787.89,516.65,786.15,517.75z"/>
	<path class="st95" d="M695.21,496.75c2.03-0.82,2.56-2.37,2.37-4.43c-0.1-1.06-0.35-2.28,0.72-3.13c0,0,0,0,0,0
		c0.4,1.29,2.73,1.8,1.5,3.74c-1.57,2.33,0.8,5.87-2.36,7.71c-0.21-0.33-0.42-0.66-0.62-1c-0.59-0.94-0.6-2.2-1.6-2.93
		L695.21,496.75z"/>
	<path class="st96" d="M802.53,538.68c1.17-6.56,1.07-13.06-0.76-19.5c0.25-0.3,0.5-0.3,0.75,0c1.68,6.04,3.58,12.07,0.77,18.29
		C803.09,537.9,802.78,538.28,802.53,538.68z"/>
	<path class="st72" d="M867.82,452.44c-1.93-2.11-1.97-5.18-3.83-7.38c-1.59-1.87,0.06-4.03-0.02-6.06c0,0,0.21-0.2,0.21-0.2
		c0.25-0.14,0.45-0.08,0.59,0.16C865.49,443.53,867.78,447.73,867.82,452.44z"/>
	<path class="st97" d="M800.12,454.68c1.39-0.98,3.01-1.24,4.63-1.47c-2.58,3.61-6.17,6-9.94,8.17
		C796.32,458.94,798.11,456.72,800.12,454.68z"/>
	<path class="st98" d="M690.79,555.92c-0.78-1.05-1.81-1.11-2.95-0.76c-1.93-2.78-3.57-5.72-4.72-8.92c2.83,0.4,2.39,3.9,4.77,4.97
		c0.95,0.43,0.93,2.2,2.96,2.36C693.02,553.73,690.08,555.06,690.79,555.92z"/>
	<path class="st99" d="M717.8,456.2c1.03-0.08,2.06-0.68,3.09,0.01c2.82,2.27,4.98,5.11,6.92,8.12
		C724.01,462.21,720.84,459.29,717.8,456.2z"/>
	<path class="st100" d="M802.52,519.18c-0.25,0-0.5,0-0.75,0c-2.21-0.88-1.73-4.3-4.63-4.89c-0.26,1.73,0.57,3.51-0.63,4.93
		c-0.92,0.51-1.58-0.11-2.29-0.53c0.04-0.12,0.07-0.25,0.1-0.38c0.57-2.18,1.17-4.94,3.35-5.4c2.58-0.54,2.23,3.05,3.82,4.31
		C802,517.66,802.18,518.52,802.52,519.18z"/>
	<path class="st2" d="M861.06,528.17c-1.72-0.07-1.72,1.87-2.91,2.66c-0.75-1.11-1.79-1.85,0.29-2.69c0.62-0.25,0.86-1.92,0.9-2.96
		c0.04-0.97-1.16-2.24,0.71-2.6c1.86-0.36,2.22,1.03,2.44,2.43C862.02,526.08,861.54,527.13,861.06,528.17z"/>
	<path class="st101" d="M881.16,464.64c-2.14-3.52-2.76-7.52-3.63-11.44c0.49-0.74,0.98-1.49,1.47-2.23
		C880.12,455.46,880.87,460.02,881.16,464.64z"/>
	<path class="st102" d="M701.4,492.75c0.69,0.61,1.37,1.22,2.06,1.83c1.07,2.69,2.14,5.37,3.21,8.06c-2.8-2.07-5.16-4.43-5.38-8.19
		C700.85,493.85,700.81,493.28,701.4,492.75z"/>
	<path class="st103" d="M841.42,498.73c0.12,1.27,0.25,2.25-0.44,3.73c-1.16,2.47-0.85,5.62-1.18,8.7c-0.76-1.07-0.66-2.69-2.34-2.6
		C838.53,505.18,839.72,501.85,841.42,498.73z"/>
	<path class="st104" d="M813.78,565.68c-0.55-1.99-1.44-4.07,1.64-5.13c-0.13,0.73-0.23,1.31-0.45,2.56
		c2.48-2.5,3.76-5.19,6.44-6.38C819.4,560.16,816.77,563.08,813.78,565.68z"/>
	<path class="st105" d="M770.48,499.77c-3.52,1.23-4.63,3.99-4.71,7.41c0.03,1.51,0.05,3.01,0.08,4.52c-1.72-3.99-0.86-8-0.07-12.01
		C767.37,498.49,768.91,499.93,770.48,499.77z"/>
	<path class="st106" d="M823.49,474.94c0.51,0.25,1.02,0.51,1.53,0.76c-0.49,3.53-2.13,6.46-4.63,8.95
		C821.1,481.31,822.16,478.08,823.49,474.94z"/>
	<path class="st62" d="M840.77,537.94c-1.39-2.08-0.19-4.15,0.21-6.13c0.4-2.02,2.14,0.52,3.01-0.56
		C843.26,533.64,842.73,536.13,840.77,537.94z"/>
	<path class="st107" d="M823.48,564.12c0.07,1.05,0.49,1.87,1.52,2.28c-0.32,1.95-1.74,3.17-3.01,4.5c-0.3,0.54-0.76,1.04-1.36,0.7
		c-0.58-0.32-0.55-0.95-0.13-1.49C821.49,568.12,822.48,566.12,823.48,564.12z"/>
	<path class="st108" d="M766.52,543.92c-0.5,0.67-1.22,0.77-1.98,0.74c-5.41-0.26-10.76,0.11-16.02,1.51
		c2.29-2.05,5.08-2.28,7.96-2.26C759.83,543.95,763.18,543.92,766.52,543.92z"/>
	<path class="st109" d="M776.28,378.33c0,0.23,0,0.45-0.01,0.68c-2.48-0.27-4.96-0.53-7.43-0.8c-1.07-0.54-2.14-1.07-3.27-1.65
		c0.76-1,1.69-0.42,2.44-0.63c0.53-0.41,1.03-0.4,1.49,0.11C771.75,376.81,774.02,377.57,776.28,378.33z"/>
	<path class="st110" d="M867.77,423.21c-0.51,0.92-0.87,1.87-0.75,2.94c-0.41,0.52-0.89,0.52-1.42,0.21
		c-0.53-2.3-1.06-4.59-1.58-6.89c1.41-0.51,1.55,0.95,2.28,1.48C867.26,421.41,867.75,422.16,867.77,423.21z"/>
	<path class="st111" d="M845.11,416.37c2.14-2.93,1.57-5.9,0.16-8.89c2.86,0.85,2.84,3.46,2.09,5.18c-1.35,3.08-0.54,6.04-0.6,9.05
		C845.8,420.05,845.46,418.21,845.11,416.37z"/>
	<path class="st104" d="M821.42,556.78c-1.04-0.61,0.73-2.24-1.14-2.81c-0.75-0.23,0.03-1.5,0.79-1.32
		c1.32,0.31,1.68-0.76,2.44-1.24c0.39,0.69,1.08,0.75,1.75,0.85C824.28,554.02,823.03,555.56,821.42,556.78z"/>
	<path class="st112" d="M793.65,574.64c-0.32-2.21-0.64-4.42-0.96-6.63c-0.1-0.93-1.03-2.17,0.86-2.37
		c1.17,2.33,1.76,4.79,1.58,7.41c-0.03,0.16-0.07,0.33-0.1,0.49C794.8,574.2,794.54,574.81,793.65,574.64z"/>
	<path class="st113" d="M790.62,380.66c1.67-0.9,2.93-2.66,5.13-2.44c0.65,1.19,2.42,0.25,2.99,1.57c-1.8,1.07-3.73,1.64-5.83,1.58
		c-2.67-0.57-0.86,2.48-2.33,2.88C790.59,383.06,790.61,381.86,790.62,380.66z"/>
	<path class="st62" d="M825.77,551.98c-0.23-3.12,1.86-2.24,4.67-2.35c-2.78,1.64-1.05,4.99-4.18,5.46
		C826.39,554.01,827.07,552.84,825.77,551.98z"/>
	<path class="st62" d="M837.83,544.74c-0.64-1.73-2.38-3.18-1.29-5.35c0.99,0.49-0.02,2.35,1.63,2.42c0.9-1.14-1.03-2.29,0.01-3.46
		c1.46-0.28,0.86,1.57,1.81,1.81C839.7,541.89,838.96,543.41,837.83,544.74z"/>
	<path class="st81" d="M777.02,399.96c-0.7-0.91,0.15-2.64-1.58-3.01c0.1-2.2,0.92-3.78,3.37-4.01c1.09,0.66,1.06,1.53,0.44,2.49
		C778.03,396.71,778.77,398.95,777.02,399.96z"/>
	<path class="st114" d="M738.78,373.74c2.12,0.89-0.03,1.09-0.28,1.2c-2.56,1.09-5.38,1.69-7.21,4.06
		c-1.01-0.56-1.81-1.31-0.26-2.03C733.56,375.78,736.19,374.8,738.78,373.74z"/>
	<path class="st115" d="M689.79,496.01c2.78,0.7,1.38-1.6,1.84-2.57c1.03,2.19,0.97,4.61,1.48,6.91c0.33,0.84,0.63,1.66-0.82,1.59
		C691.45,499.97,690.62,497.99,689.79,496.01z"/>
	<path class="st116" d="M729.1,572.43c-0.98-0.56-0.76-1.56-0.89-2.44c0.04-2.42,0.99-4.47,2.77-7.22
		C731.59,566.87,728.78,569.36,729.1,572.43z"/>
	<path class="st117" d="M654.09,430.1c-0.11,0.69-0.36,1.28-0.72,0.17c-0.27-0.82,0.33-1.92-0.78-2.5
		c-0.23-1.54,0.43-2.93,1.05-4.21c0.58-1.19,1.04-0.41,1.22,0.43C654.6,426.03,654.35,428.07,654.09,430.1z"/>
	<path class="st118" d="M881.25,475.68c1.31-1.07,0.48-2.6,0.83-3.87c1.11,1.02-0.05,2.86,1.37,3.78c-0.01,1.04-0.02,2.09-0.03,3.13
		c-0.92,0.79,0.72,2.64-1.25,2.99C881.85,479.69,881.55,477.68,881.25,475.68z"/>
	<path class="st72" d="M869.3,459.97c-0.18-0.17-0.4-0.31-0.53-0.51c-1.52-2.18-3.32-4.34-0.97-7.05
		C868.83,454.83,869.28,457.36,869.3,459.97z"/>
	<path class="st78" d="M696.82,564.93c-2.76-2.72-3.16-6.17-3.02-9.79C694.81,558.4,695.82,561.66,696.82,564.93z"/>
	<path class="st119" d="M722.25,437.39c0.06,1.07-0.04,2.25,1.54,2.32c1.76,0.01,3.52,0.02,5.27,0.02c-1.18,1.1-2.77,1.09-4.18,1.34
		C721.65,441.65,721.11,440.8,722.25,437.39z"/>
	<path class="st120" d="M820.5,570.11c0.02,1.18,0.59,1.3,1.49,0.78c-0.38,2.18-2.13,3.29-3.59,4.63c-0.34,0.2-0.64,0.17-0.91-0.13
		C818.26,573.5,819.2,571.7,820.5,570.11z"/>
	<path class="st121" d="M743.72,604.04c0.35-0.27,0.69-0.54,1.04-0.81c1.9,0.43,3.7,1.09,5.37,2.1c-0.56,0.28-1.13,0.57-1.69,0.85
		C746.66,605.92,745.05,605.28,743.72,604.04z"/>
	<path class="st93" d="M845.36,527.67c0.15-1.22-1.6-1.88-0.94-3.27c0.28-0.6-0.14-1.69,0.78-1.75c0.53-0.03,1.1,0.73,1.65,1.13
		C846.9,525.28,846.29,526.53,845.36,527.67z"/>
	<path class="st77" d="M822.79,439.01c0.25-3.02,1.19-5.69,3.79-7.52C825.71,434.2,824.53,436.74,822.79,439.01z"/>
	<path class="st122" d="M789.1,554.39c0.95-1.86,2.92-2.51,4.41-3.73c0.82-0.19,1.06,0.18,0.89,0.93
		C792.94,553.1,791.75,555.12,789.1,554.39z"/>
	<path class="st123" d="M755.03,607.73c4.11-0.01,8.21-0.02,12.32-0.03C763.25,608.89,759.14,608.89,755.03,607.73z"/>
	<path class="st124" d="M697.26,570.26c0.65-0.07,1.71,0.84,1.75-0.72c1.34,0.84,1.5,2.42,2.27,3.61c0.54,0.92,0.52,1.55-0.78,1.52
		C699.42,573.2,698.34,571.73,697.26,570.26z"/>
	<path class="st86" d="M819.83,505.84c0.65-2.42-0.01-5.67,3.83-6.09C822.69,501.97,821.46,504.03,819.83,505.84z"/>
	<path class="st119" d="M729.06,439.75c0.45-3.84,3.28-2.08,5.29-2.25C732.81,438.78,731.13,439.71,729.06,439.75z"/>
	<path class="st125" d="M857.2,482.37c-0.08-0.6-0.28-1.39,0.38-1.63c0.87-0.3,0.92,0.63,0.94,1.12c0.14,2.69,0.2,5.39,0.28,8.09
		C856.8,487.74,859.17,484.6,857.2,482.37z"/>
	<path class="st112" d="M794.92,581.37c-1.27-1,0.38-1.98,0.02-2.98c-0.97-1.7-0.65-3.4-0.02-5.1c0,0,0.2-0.24,0.2-0.24
		C795.75,575.84,796.32,578.63,794.92,581.37z"/>
	<path class="st126" d="M793.55,565.64c-0.95,0.55-0.67,1.55-0.86,2.37c-0.48-1.52-0.96-3.04-1.45-4.56
		c-0.41-0.77-0.63-1.46,0.67-1.44C792.56,563.18,793.45,564.23,793.55,565.64z"/>
	<path class="st127" d="M754.58,380.44c-0.51,0.51-1.02,1.02-1.53,1.52c-1.05-0.64-2.67-0.66-2.73-2.63
		c1.45,0.14,2.83,0.28,4.21,0.42C754.55,379.98,754.57,380.21,754.58,380.44z"/>
	<path class="st93" d="M846.83,523.76c1.16-1.31-2.79-4.28,1.49-4.57C848.41,520.9,847.95,522.44,846.83,523.76z"/>
	<path class="st108" d="M774.76,546.18c-0.24,0.25-0.49,0.49-0.73,0.74c-1.94-0.52-3.89-1.05-5.83-1.58
		c-0.08-0.02-0.13-0.14-0.19-0.21c0.26-0.16,0.52-0.32,0.77-0.48C770.77,545.17,772.76,545.67,774.76,546.18z"/>
	<path class="st128" d="M637.62,481.03c-0.21,1.33,0.31,2.8-0.86,4.54c-0.84-1.93-1.13-3.27,0.07-4.62
		C637.12,480.7,637.38,480.73,637.62,481.03z"/>
	<path class="st129" d="M864.76,438.98c-0.2-0.04-0.4-0.09-0.59-0.16c-0.14-1.69-1.35-3.19-0.86-4.98c1.29,0.51,2.04,1.46,2.32,2.81
		C864.64,437.16,864.86,438.13,864.76,438.98z"/>
	<path class="st130" d="M799.58,394.67c-1.47,0.02-2.95,0.05-4.42,0.04c-0.78-0.01-1.51-0.23-1.46-1.22
		c0.04-0.78,0.69-0.91,1.31-1.01c0.75,1.03,2.05,0.95,3.04,1.49C798.55,394.2,799.06,394.43,799.58,394.67z"/>
	<path class="st131" d="M663.03,528.25c-0.72,1.21-1.44,2.43-2.16,3.64c-0.17-0.14-0.22-0.31-0.16-0.51
		c0.35-1.62-0.56-3.65,1.54-4.69C662.51,527.21,662.77,527.73,663.03,528.25z"/>
	<path class="st77" d="M826.56,431.53c0.19-2.42,0.48-4.78,3.01-6.04C828.78,427.61,827.9,429.68,826.56,431.53z"/>
	<path class="st132" d="M637.62,481.03c-0.26-0.03-0.53-0.05-0.79-0.08c-0.02-2.05-0.53-4.16,0.66-6.09
		c0.36,0.98-0.37,2.26,0.8,3.02C638.31,478.99,638.52,480.12,637.62,481.03z"/>
	<path class="st107" d="M825.66,557.88c-0.21,2.27,0.03,4.7-2.2,6.26C823.87,561.94,824.36,559.77,825.66,557.88z"/>
	<path class="st133" d="M841.57,559.65c0.95-1.55,1.89-3.09,2.84-4.64c0.48,0.11,0.76,0.41,0.85,0.9c-0.66,1.52-1.39,2.98-2.93,3.82
		C842.05,559.96,841.8,559.94,841.57,559.65z"/>
	<path class="st134" d="M847.57,549.9c0.28,0.04,0.56,0.07,0.85,0.11c-0.09,1.42-0.5,2.71-1.59,3.7c-0.84,0.11-1.22-0.19-0.98-1.06
		C846.22,551.6,846.59,550.56,847.57,549.9z"/>
	<path class="st135" d="M737.29,546.92c-2.37-0.63-3.88-2.13-4.5-4.5C734.58,543.63,736.09,545.11,737.29,546.92z"/>
	<path class="st136" d="M672.72,522.2c1.77,1.64,2.12,3.82,2.28,6.07C673.68,526.46,673.08,524.38,672.72,522.2z"/>
	<path class="st137" d="M729.78,525.92c-0.58-0.3-1.16-0.6-1.75-0.9c0.35-0.96,0.7-1.91,1.05-2.87
		C731.99,522.92,729.43,524.69,729.78,525.92z"/>
	<path class="st138" d="M866.3,420.96c-0.76-0.49-1.52-0.99-2.28-1.48c-0.23-0.77-1.09-1.42-0.32-2.62
		C864.91,418.08,865.94,419.28,866.3,420.96z"/>
	<path class="st139" d="M733.64,505.16c-0.1-0.77-0.1-1.6,0.73-1.9c0.98-0.36,1.18,0.6,1.54,1.2c0.53,0.88,0.73,1.83,0.56,2.85
		C735.29,506.92,736.18,503.79,733.64,505.16z"/>
	<path class="st140" d="M882.15,481.7c0.42-1,0.84-1.99,1.25-2.99c0,1.95,0,3.89,0,6.42c-0.57-1.17-0.92-1.9-1.28-2.63
		C882.14,482.23,882.15,481.96,882.15,481.7z"/>
	<path class="st141" d="M817.49,575.39c0.3,0.04,0.6,0.09,0.91,0.13c-0.34,1.49-0.89,2.84-2.38,3.56c-0.34-0.11-0.54-0.33-0.59-0.69
		C816.12,577.4,816.8,576.39,817.49,575.39z"/>
	<path class="st142" d="M800.28,544.66c-0.52-1.65-0.62-3.14,1.49-3.74C801.82,542.39,801.46,543.69,800.28,544.66z"/>
	<path class="st143" d="M670.42,549.25c0.74-0.35,0.85-1.04,0.96-1.74c0.86,0.8,1.24,1.86,1.57,2.94c0.28,0.93-0.15,1.17-0.98,1.01
		C671.44,550.73,670.93,549.99,670.42,549.25z"/>
	<path class="st108" d="M748.54,547.65c-1.51,0.23-3.01,0.47-4.52,0.7c1.01-1.74,2.9-1.69,4.52-2.19
		C748.53,546.66,748.54,547.16,748.54,547.65z"/>
	<path class="st144" d="M827.23,498.89c0.27,0.99-0.34,2.2,0.72,3c0.16,0.88-0.4,1.51-0.77,2.21c-1.45,0.1-0.97-0.79-0.77-1.52
		C826.62,501.34,826.28,499.97,827.23,498.89z"/>
	<path class="st145" d="M779.24,395.43c0.01-0.82,0.15-1.68-0.73-2.21c-0.37-1.34,0.44-1.87,1.52-2.22
		c0.61,0.31,0.72,0.87,0.74,1.48C780.07,393.37,780.33,394.75,779.24,395.43z"/>
	<path class="st146" d="M865.6,426.37c0.47-0.07,0.94-0.14,1.42-0.21c0.22,0.79,0.44,1.58,0.66,2.37c-0.25,0.52-0.51,1.04-0.76,1.56
		C866.48,428.85,866.04,427.61,865.6,426.37z"/>
	<path class="st127" d="M759.83,381.96c-1.93,0.09-3.77-0.15-5.28-1.51C756.45,380.45,758.26,380.77,759.83,381.96z"/>
	<path class="st147" d="M662.91,478.84c0.02,0.73,0.04,1.47,0.07,2.2c-0.45,0.48-0.9,0.97-1.34,1.45
		C661.77,481.17,660.54,479.38,662.91,478.84z"/>
	<path class="st148" d="M700.51,574.67c0.69-0.29,0.73-0.91,0.78-1.52c0.9,0.76,1.29,1.82,1.68,2.88c0.14,0.76-0.2,1-0.91,0.86
		C701.54,576.15,701.02,575.41,700.51,574.67z"/>
	<path class="st69" d="M771.03,507.08c0.03-1.82,0.56-3.4,2.22-4.39C772.85,504.32,772.15,505.8,771.03,507.08z"/>
	<path class="st149" d="M845.85,552.64c0.33,0.35,0.65,0.71,0.98,1.06c-0.53,0.73-1.05,1.47-1.58,2.2c-0.28-0.3-0.56-0.6-0.84-0.9
		C844.89,554.22,845.37,553.43,845.85,552.64z"/>
	<path class="st150" d="M801.69,573.72c0.16,0.99-0.15,2.27,1.45,2.4c-0.3,0.87-1.13,1.75-1.75,1.1
		C800.44,576.22,800.66,574.81,801.69,573.72z"/>
	<path class="st151" d="M786.79,597.95c0.13-1.96,1.59-2.88,3.02-3.81C789.46,595.92,788.17,596.97,786.79,597.95z"/>
	<path class="st152" d="M841.57,559.65c0.25,0.03,0.51,0.05,0.76,0.08c-0.19,1.15-0.71,2.06-1.95,2.64
		C839.99,561.05,840.78,560.35,841.57,559.65z"/>
	<path class="st130" d="M798.02,396.19c0.54-0.51,1.07-1.02,1.61-1.53c0.59-0.07,1.32-0.17,1.54,0.47c0.28,0.81-0.53,0.89-1.05,0.97
		C799.42,396.2,798.71,396.16,798.02,396.19z"/>
	<path class="st153" d="M794.4,551.59c-0.3-0.31-0.59-0.62-0.89-0.93c1.03-0.75,2.05-1.51,3.08-2.26
		C796.57,549.95,795.49,550.77,794.4,551.59z"/>
	<path class="st135" d="M734.27,549.91c-0.08-0.46-0.16-0.92-0.24-1.38c1.09-0.29,2.17-0.58,3.26-0.86
		C736.62,548.87,735.8,549.87,734.27,549.91z"/>
	<path class="st136" d="M675.52,529.76c1.69,0.73,2.33,1.95,1.74,3.74C676.2,532.48,675.9,531.1,675.52,529.76z"/>
	<path class="st154" d="M785.89,398.3c0.34,0.75,1.03,0.89,1.74,0.99c-0.75,0.63-1.71,1.64-2.51,1.02
		C784.17,399.58,785.34,398.89,785.89,398.3z"/>
	<path class="st155" d="M702.06,576.89c0.3-0.29,0.61-0.57,0.91-0.86c0.75,0.74,1.69,1.4,1.07,2.71
		C702.95,578.54,702.49,577.73,702.06,576.89z"/>
	<path class="st112" d="M793.57,586.05c1.3-0.99-0.52-3.17,1.48-3.89C794.99,583.62,795.52,585.31,793.57,586.05z"/>
	<path class="st156" d="M692.29,501.94c0.65-0.34,0.68-0.99,0.82-1.59c0.86,0.84,0.64,1.97,0.82,2.99c0.18,0.78-0.15,1.02-0.88,0.83
		C692.8,503.43,692.54,502.69,692.29,501.94z"/>
	<path class="st157" d="M773.28,600.88c0.78,1.02-0.86,0.83-0.76,1.51c-0.58,0.05-1.16,0.1-1.74,0.15c-0.2,0.02-0.36-0.05-0.47-0.21
		C770.88,601,772.04,600.86,773.28,600.88z"/>
	<path class="st158" d="M673.72,551.89c0.66,0.69,1.29,1.4,1.42,2.4c0.3,0.84-0.12,1-0.84,0.88c-0.5-0.75-1-1.5-1.5-2.25
		C672.89,552.38,673.18,552.03,673.72,551.89z"/>
	<path class="st159" d="M733.59,559.76c-0.53,1.46-0.62,2.76-1.59,2.52c-1.1-0.27-0.26-1.12,0.16-1.62
		C732.38,560.41,732.74,560.28,733.59,559.76z"/>
	<path class="st160" d="M791.91,562.01c-0.22,0.48-0.45,0.96-0.67,1.44c-0.9-1.12-1.25-2.44-1.47-3.82
		C790.88,560.07,791.59,560.87,791.91,562.01z"/>
	<path class="st161" d="M798.03,393.96c-1.19-0.15-2.81,0.61-3.04-1.49c0.52,0.01,1.04,0.03,1.56,0.04
		C797.05,393,797.54,393.48,798.03,393.96z"/>
	<path class="st82" d="M826.6,494.62c-0.03-0.56-0.06-1.12-0.09-1.68c1.54,0.07,3.18,0.07,1.47,2.26
		C827.89,494.12,827.39,494.02,826.6,494.62z"/>
	<path class="st162" d="M674.3,555.17c0.28-0.29,0.56-0.58,0.84-0.88c0.48,0.78,0.95,1.56,1.43,2.34c0.33,0.79-0.06,0.91-0.72,0.76
		C675.33,556.65,674.81,555.91,674.3,555.17z"/>
	<path class="st163" d="M655.55,434.5c-0.03-0.26-0.06-0.51-0.09-0.77c-0.19-0.28-0.15-0.51,0.16-0.68c1.01-0.06,1.42,0.5,1.48,1.43
		c-0.11,0.6-0.23,1.2-0.87,1.49C656.01,435.48,655.78,434.99,655.55,434.5z"/>
	<path class="st164" d="M875.86,450.36c0.04,1.31,0.62,2.74-0.8,3.74c-0.15-0.3-0.31-0.6-0.46-0.9
		C875.02,452.26,875.44,451.31,875.86,450.36z"/>
	<path class="st165" d="M640.58,459.96c0.07,1.49-0.5,2.76-1.43,3.88c-0.42-1.4,0.57-2.56,0.66-3.88
		C640.07,459.97,640.33,459.97,640.58,459.96z"/>
	<path class="st166" d="M826.41,502.58c0.26,0.51,0.51,1.02,0.77,1.52c-0.29,0.61-0.57,1.23-0.98,2.1
		C825.38,504.65,825.74,503.6,826.41,502.58z"/>
	<path class="st167" d="M693.05,504.18c0.29-0.28,0.58-0.55,0.88-0.83c0.6,0.82,1.24,1.9,0.13,2.46
		C693.42,506.14,693.13,504.93,693.05,504.18z"/>
	<path class="st168" d="M815.43,578.4c0.2,0.23,0.39,0.46,0.59,0.69c-0.42,0.8-0.7,1.76-1.92,1.74
		C813.92,579.63,815.03,579.21,815.43,578.4z"/>
	<path class="st169" d="M675.84,557.4c0.24-0.25,0.48-0.51,0.72-0.76c0.51,0.74,1.03,1.49,1.54,2.23c0.24,0.79-0.11,0.96-0.81,0.78
		C676.82,558.9,676.33,558.15,675.84,557.4z"/>
	<path class="st170" d="M677.3,559.66c0.27-0.26,0.54-0.52,0.81-0.78c0.47,0.78,0.95,1.55,1.54,2.54
		C678.08,561.39,677.79,560.41,677.3,559.66z"/>
	<path class="st171" d="M768.69,439.74c1.33,0.59,2.3,1.45,2.31,3.04C769.84,442.06,768.92,441.17,768.69,439.74z"/>
	<path class="st125" d="M856.46,486.96c-0.03-1.57-0.22-3.16,0.75-4.57C857.14,483.95,857.85,485.63,856.46,486.96z"/>
	<path class="st172" d="M772.53,390.21c-0.54,0.03-1.08,0.06-1.62,0.09c-0.83-0.03-1.68-0.02-2.28-0.75
		C769.95,389.63,771.39,388.99,772.53,390.21z"/>
	<path class="st173" d="M638.18,470.22c0.03,1.36,0.57,2.79-0.57,3.99C637.55,472.85,637.27,471.45,638.18,470.22z"/>
	<path class="st174" d="M673.72,551.89c-0.31,0.34-0.62,0.68-0.93,1.02c-0.28-0.48-0.56-0.97-0.84-1.45
		c0.33-0.34,0.65-0.67,0.98-1.01C673.2,550.94,673.46,551.42,673.72,551.89z"/>
	<path class="st82" d="M695.21,496.72c1.46,0.47,1.65,1.63,1.6,2.93C695.96,498.85,695.43,497.87,695.21,496.72z"/>
	<path class="st175" d="M681.03,407.45c0.23-0.46,0.71-0.87,1.06-0.47c0.81,0.92,0.47,1.91-0.2,2.81
		C681.62,409.01,681.97,407.99,681.03,407.45z"/>
	<path class="st176" d="M748.57,510.18c1.18,1.16,0.66,2.59,0.62,3.94C748.4,512.9,748.47,511.54,748.57,510.18z"/>
	<path class="st177" d="M706.43,580.73c-0.37,0.14-0.78,0.39-0.88,0.3c-0.22-0.19-0.39-0.56-0.39-0.87
		c-0.01-0.36,0.3-0.66,0.67-0.39C706.07,579.95,706.18,580.31,706.43,580.73z"/>
	<path class="st178" d="M815.16,403.67c0.02,0.51,0.03,1.03,0.05,1.54c-1.92,0.92-1.47-0.5-1.47-1.48
		C814.21,403.7,814.69,403.69,815.16,403.67z"/>
	<path class="st123" d="M762.01,605.48c-1.2,1.15-2.66,0.53-4.03,0.58C759.25,605.39,760.64,605.47,762.01,605.48z"/>
	<path class="st123" d="M767.3,607.74c1.09-1.43,2.6-0.67,3.95-0.76C770.05,607.85,768.67,607.75,767.3,607.74z"/>
	<path class="st4" d="M910.6,518.38c-7.44,0.16-6.94,1.26-5.62-6.61c2.61-15.59,5.13-31.2,7.69-46.8c0.1-0.59,0-1.26,1.16-1.94
		c1.66,6.15,2.43,12.3,3.3,18.42c-0.4,11.68-3.3,23-5,34.49C911.98,516.96,911.46,517.78,910.6,518.38z"/>
	<path class="st179" d="M910.6,518.38c1.93-11.5,3.86-23,5.78-34.5c0.14-0.85,0.09-1.75,0.75-2.44c2.03,11.46,4.03,22.93,6.11,34.39
		c0.42,2.29-0.54,2.82-2.59,2.73C917.3,518.42,913.95,518.43,910.6,518.38z"/>
	<path class="st180" d="M667.61,414.23c0.12-2.02,1.73-3.13,2.81-4.56c0.91-0.46,1.06-1.48,1.62-2.2l0,0
		c0.92-0.16,1.04-1.86,2.15-1.35c0.92,0.42,0.49,1.39,0.17,2.16l0,0c-1.8,1.35-0.73,3.56-1.56,5.21c-2.92-0.93-0.51,2.46-2.42,2.57
		C669.65,415.48,669.3,413.74,667.61,414.23z"/>
	<path class="st21" d="M696.74,543.15c1.88,2.31,1.66,3.9,1.01,6.63C696.46,547.24,696.92,545.6,696.74,543.15z"/>
	<path class="st181" d="M672.8,413.48c0.31-1.8-0.93-4.07,1.56-5.21c-1.25,2.47-0.71,4.95,0.01,7.42
		C673.4,415.26,673.26,414.26,672.8,413.48z"/>
	<path class="st180" d="M665.08,417.89c0.48-1.29,0.82-2.69,2.4-3.13C666.79,415.89,667.31,417.95,665.08,417.89z"/>
	<path class="st12" d="M657.8,495.19c1.11,1.25,1.11,2.5,0,3.75C657.8,497.69,657.8,496.44,657.8,495.19z"/>
	<path class="st43" d="M861.78,425.63c-0.26,0.45-0.52,0.9-0.78,1.35c-1.11-0.03-1.78-0.62-2.29-1.58c-0.51-0.97-0.68-2.57-2.4-0.69
		c-1.34,1.45-1.47-0.94-2.27-1.4c-0.67-0.39-1.43-1.1-0.88-2.14c0.1-0.18,0.38-0.34,0.59-0.36c1.93-0.21,1.94-0.2,2-1.85
		C858.08,420.88,858.24,424.79,861.78,425.63z"/>
	<path class="st2" d="M851.26,463.7c0.1-2.69-1.4-5.26-0.55-8.14c1.34,1.24,1.29,2.82,1.3,4.39
		C851.83,461.22,852.51,462.65,851.26,463.7z"/>
	<path class="st10" d="M744.77,567.89c1.89-4.58,9.51-6.81,13.67-5.87c7.4,1.66,13.75,4.86,16.47,12.78c0.68,1.98,0.5,3.9,0.61,5.86
		c-1.85,4.23-5,7.42-8.58,10.12c-3.38,2.55-8.96,1.37-11.12-2.11c-0.46-0.74-0.87-1.18-1.74-0.97c-2.74,0.66-4.79-0.98-6.95-2.15
		c-1.12-0.6-2.2-1.54-2.25-2.84C744.68,577.77,743.69,572.84,744.77,567.89z"/>
	<path class="st182" d="M744.77,567.89c0.77,4.28,0.78,8.61,0.78,12.95c0,3.58,5.19,6.93,8.49,5.52c1.71-0.73,2.71-0.42,2.7,1.54
		c0,2.98,1.54,2.61,4.01,3c6.55,1.05,8.51-4.06,11.89-7.38c0.96-0.95,1.91-1.91,2.86-2.87c-0.6,8.79-9.73,15.49-18.44,13.76
		c-3.08-0.61-6.03-1.3-8.55-3.25c-7.18-5.52-8.8-12.62-5.99-20.99C743.28,569.41,744.03,568.65,744.77,567.89z"/>
	<path class="st183" d="M788.78,585.09c0.05-0.73,0.11-1.46,0.16-2.19c0.25-0.56,0.5-1.12,0.75-1.68
		C789.58,582.55,790.47,584.12,788.78,585.09z"/>
	<path class="st82" d="M831.76,485.44c-0.67,1.03-1.4,2.01-1.99,3.08c-2.01,3.69-3.76,3.52-6.26-0.09c0.37-2.27,0.68-4.32,3.98-2.78
		C828.64,486.18,830.32,485.55,831.76,485.44z"/>
	<path class="st184" d="M769.49,376.05c-0.5-0.04-0.99-0.07-1.49-0.11c-4.66-0.68-9.29-1.16-13.76,1.04
		c-1.09,0.54-2.31,0.94-3.51,1.12c-2.52,0.37-2.96,1.85-1.03,3.02c3.73,2.28,5.33,6.83,9.59,8.44c1.29,0.49,0.04,3.93,2.99,2.7
		c0.28-0.52,0.57-1.01,1.29-0.59c0.74,0.28,1.47,0.56,2.21,0.84c1.5,1.11,2.99,2.27,4.53,0.05c0.97-0.29,1.94-0.57,2.91-0.86
		c0.52,0.01,1.03,0.02,1.55,0.03c0.23,3.19-1.81,5.45-3.4,7.82c-1.3,1.93-3.3,3.39-4.07,5.71c-6.25,7.09-4.82,15.46-3.92,23.72
		c0.14,1.34,0.58,2.65,0.88,3.97c-1.23,1.26-0.37,3.2-1.47,4.5c-0.07,0.1-0.13,0.22-0.23,0.29c-4.82,3.42-4.82,3.42-7.31-1.78
		c-1.31-2.11-1.32-4.57-1.68-7.17c-2.72,1.33-3.3,4.49-5.79,5.66c-1.7-0.27-1.3-1.23-0.75-2.25c-0.02-3.07,0.39-5.8,3.93-7
		c1.86-0.63,1.05-1.86,0.08-2.87c-1.18-1.24-2.7-2.25-2.54-4.33c0.08-1.02,0.04-2.93-1.3-2.32c-1.31,0.59-4.12-0.02-3.84,2.61
		c0.3,2.83-1.95,3.51-3.44,4.84c-1.44,1.28-2.37,0.42-2.55-1.1c-0.32-2.76-0.34-5.67,1.79-7.73c3.48-3.35,2.05-7.89,3.17-11.8
		c0.43-1.49-1.79-2.51-2.86-3.69c-2.76-3.03-2.69-4.86,0.55-7.35c1.7-1.31,2.55-2.78,2.56-5.04c0.03-8.25,3.18-11.1,11.33-12.9
		c4.84-1.07,9.57-1.27,14.41-1.27c1.28,0,3.1-0.65,3.64,1C772.55,375.06,770.21,374.99,769.49,376.05z"/>
	<path class="st185" d="M734.3,412.72c0.48-3.93,2.21-7.32,4.5-10.48C740.13,406.76,738.25,411.14,734.3,412.72z"/>
	<path class="st186" d="M732.02,393.19c1.35-1.01,2.56-1.51,3.03,0.8c-0.9,0.79-1.71,1.63-1.59,2.96
		C731.75,396.17,732.08,394.61,732.02,393.19z"/>
	<path class="st185" d="M732.09,401.44c0.12-1.18,0.52-2.22,1.41-3.04c-0.17,2.51,1.57,2.24,3.23,2.4c0.75,0.07,2.9-1.15,2.07,1.43
		c-0.79-1.18-1.97-0.68-3.03-0.72c-1.25,0.48-2.5,0.6-3.73-0.07L732.09,401.44z"/>
	<path class="st187" d="M747.03,432.22c0.03,0.82-0.13,1.71,0.75,2.25c-0.3,0.7-0.75,1.24-1.52,1.45
		C744.39,434.24,744.04,432.88,747.03,432.22z"/>
	<path class="st187" d="M743.95,438.17c-0.22,0.56-0.63,1.39-1.18,0.78c-0.59-0.65-0.26-1.64,0.48-2.3
		C743.3,437.25,743.37,437.83,743.95,438.17z"/>
	<path class="st82" d="M701.4,492.75c-0.04,0.56-0.07,1.13-0.11,1.69c-0.5-0.5-0.99-1-1.49-1.51c-0.5-1.25-1-2.49-1.5-3.74
		c0.5,0.25,1,0.5,1.5,0.75C700.33,490.88,700.86,491.82,701.4,492.75z"/>
	<path class="st188" d="M842.2,402.24c-0.95-1.3-1.9-2.59-2.85-3.89c-0.13-0.48-0.26-0.95-0.39-1.43c2.56,0.5,3.75,2.43,4.76,4.56
		C843.36,402.01,842.84,402.25,842.2,402.24z"/>
	<path class="st189" d="M792.91,381.38c1.67-1.52,3.67-1.85,5.83-1.58c0.02,2.74-2.23,3.41-4.11,3.92
		C793.38,384.06,792.99,382.55,792.91,381.38z"/>
	<path class="st113" d="M795.76,378.22c2.03-1.1,4.07-0.93,6.13-0.08C799.85,378.17,797.8,378.19,795.76,378.22z"/>
	<path class="st181" d="M674.36,408.27c0.2-3.07-1.59-0.41-2.32-0.8c0.76-2.09,2.47-3.53,3.64-5.34c1.44-0.05,1.26,0.84,1.01,1.77
		C676.12,405.46,675.57,407.04,674.36,408.27z"/>
	<path class="st190" d="M676.69,403.89c-0.14-0.7-0.3-1.39-1.01-1.77c1.67-1.96,2.9-4.35,5.4-5.5
		C680.14,399.37,678.23,401.52,676.69,403.89z"/>
	<path class="st183" d="M788.87,589.59c-0.4,1.87-1.85,3.03-2.98,4.4c-0.27,0.13-0.55,0.26-0.75-0.07
		c-0.07-0.12,0.03-0.32,0.18-0.49c0.95-1.82,1.91-3.65,2.86-5.47C788.41,588.5,788.64,589.04,788.87,589.59z"/>
	<path class="st151" d="M794.93,573.29c0.01,1.7,0.01,3.4,0.02,5.1c-0.46-0.24-0.92-0.48-1.37-0.72c0.02-1.01,0.05-2.02,0.07-3.03
		C794.07,574.19,794.5,573.74,794.93,573.29z"/>
	<path class="st191" d="M755.25,435.97c0.73,0.31,1.28,0.79,1.46,1.58c0.26,1.16,0.74,2.36,1.98,2.39c1.04,0.03,0.95-1.22,1.16-2.05
		c0.62-2.4,2.17,1.22,2.93-0.43c-0.9,3.12,0.25,7.09-3.7,8.93C757.73,442.95,755.74,439.74,755.25,435.97z"/>
	<path class="st192" d="M785.32,593.43c0.19,0.19,0.38,0.38,0.57,0.57c-0.17,1.25-1.12,1.77-2.89,3.07
		C783.94,595.11,784.34,594.11,785.32,593.43z"/>
	<path class="st68" d="M740.28,498.93c1.25-1.14,2.5-0.99,3.74,0.02C742.77,498.94,741.52,498.94,740.28,498.93z"/>
	<path class="st65" d="M732.05,401.44c1.24,0.02,2.48,0.05,3.73,0.07C734.52,402.56,733.27,402.64,732.05,401.44z"/>
	<path class="st73" d="M797.25,540.91c0.26-1.5,0.53-2.99,0.79-4.49c1.52-4.5,0.51-8.99-0.01-13.49c2.43,5.1,2.27,10.45,1.49,15.85
		C799.33,540.14,797.73,539.91,797.25,540.91z"/>
	<path class="st193" d="M794.21,518.7c0.94-0.6,1.62-0.03,2.29,0.53c0.27,0.96,0.53,1.92,0.8,2.88
		C795.8,522.62,794.71,521.42,794.21,518.7z"/>
	<path class="st3" d="M822.23,547.33c0.86,0.84,0.19,1.58-0.11,2.35c-0.51,1.29-1.6,1.86-2.82,2.2c-0.22,0.06-0.76-0.28-0.82-0.52
		c-0.35-1.52,1.23-1.65,1.92-2.42C820.92,548.36,821.1,547.27,822.23,547.33z"/>
	<path class="st5" d="M748.16,550.72c-0.18,0.59-0.64,0.68-1.15,0.56c-0.5-0.12-0.96-0.42-0.86-0.98c0.03-0.16,0.62-0.31,0.96-0.31
		C747.6,549.97,748.12,550.03,748.16,550.72z"/>
	<path class="st5" d="M762.51,553.88c-0.31,0.15-0.6,0.4-0.91,0.41c-0.4,0.02-0.73-0.29-0.42-0.69c0.19-0.24,0.62-0.32,0.95-0.38
		C762.21,553.21,762.35,553.58,762.51,553.88z"/>
	<path class="st111" d="M842.2,402.24c0.34-0.6,0.91-0.73,1.52-0.76c0.8,1.4,2.54,2.06,2.93,3.78c-1.49,0.09-1.37,1.2-1.39,2.22
		C843.81,405.98,843.07,404.07,842.2,402.24z"/>
	<path class="st181" d="M672.04,407.47c0.04,1.16,0,2.25-1.62,2.2C670.61,408.68,671.12,407.92,672.04,407.47z"/>
	<path class="st172" d="M767.3,405.27c0.05-0.96-0.33-2.09,0.55-2.79c3.52-2.81,4.63-7.16,6.92-10.74c1.13-0.75,2.2-1.6,3.4-2.22
		c1.53-0.8,2.4-0.46,1.86,1.49c-0.51,0.74-1.01,1.48-1.52,2.22c-1.53,0.82-1.98,2.54-3.08,3.73c-0.48,0.49-0.97,0.98-1.45,1.47
		c-0.24,0.78-0.74,1.29-1.53,1.52C770.15,401.15,769.26,403.73,767.3,405.27z"/>
	<path class="st81" d="M772.46,399.94c0.51-0.51,1.02-1.01,1.53-1.52c0.16,0.55,0.74,1.1,0.15,1.68
		C773.55,400.68,773.01,400.1,772.46,399.94z"/>
	<path class="st194" d="M720.04,533.43c-0.7-1.37-1.51-2.32-2.96-0.74c-0.01-0.62,0-1.24-0.03-1.86c-0.07-1.37,0.71-2.26,1.92-2.28
		c1.55-0.02,0.96,1.41,1.05,2.28C720.11,531.68,720.04,532.56,720.04,533.43z"/>
	<path class="st195" d="M643.55,454.7c-0.32-0.03-0.65-0.06-0.97-0.09c0.29-1.62,0.45-3.28,1.64-4.58
		C643.99,451.59,643.77,453.14,643.55,454.7z"/>
	<path class="st69" d="M789.2,501.12c-0.31,0.05-0.63,0.1-0.95,0.14c-2.94-0.82-6.45,1.52-8.98-1.61
		C782.36,501.64,786.03,499.68,789.2,501.12z"/>
	<path class="st2" d="M655.63,433.05c-0.03,0.23-0.08,0.46-0.16,0.68c-0.79,0.34-1.76,0.49-2.31,1.06c-0.5,0.52-0.59,1.4-1.48,0.56
		c-0.48-0.45-0.68-1.06-0.48-1.69c0.19-0.6,0.63-1.32,1.3-0.95C653.54,433.31,654.69,432.12,655.63,433.05z"/>
	<path class="st68" d="M753.05,507.19c-1.25-2.27-2.49-4.53-3.74-6.8C752.73,501.46,752.71,504.42,753.05,507.19z"/>
	<path class="st137" d="M728.48,532.65c0-1.74,0-3.47,0-5.21c0.12,0,0.25,0,0.37,0c0,1.74,0,3.47,0,5.21
		C728.72,532.65,728.6,532.65,728.48,532.65z"/>
	<path class="st3" d="M849.87,470.44c0-1.68,0-3.37,0-5.06C850.3,467.09,851.05,468.81,849.87,470.44z"/>
	<path class="st71" d="M763.57,391.67c-0.43,0.2-0.86,0.4-1.29,0.6c-0.67-1.33,0.58-1.88,1.1-2.72
		C764.82,390.13,763.78,390.93,763.57,391.67z"/>
	<path class="st196" d="M867.77,437.45c0.15-2.26-2.17-4.78,0.74-6.74c0.25,0.53,0.49,1.06,0.74,1.59c0.66,1.1-1.9,2.82,0.88,3.7
		C871.08,436.31,870.55,437.19,867.77,437.45z"/>
	<path class="st69" d="M768.01,508.34c-0.6-0.16-0.71-0.62-0.59-1.14c0.11-0.51,0.4-0.98,0.97-0.91c0.16,0.02,0.32,0.62,0.34,0.96
		C768.75,507.74,768.69,508.27,768.01,508.34z"/>
	<path class="st172" d="M770.31,392.57c0.14,0.63,1.98,1.29,0.33,1.81c-1.85,0.59-4.23,1.28-4.86-1.87
		C767.29,392.53,768.8,392.55,770.31,392.57z"/>
</g>
</svg>
